<mxfile host="app.diagrams.net" agent="Mozilla/5.0 (Windows NT 10.0; Win64; x64) AppleWebKit/537.36 (KHTML, like Gecko) Chrome/131.0.0.0 Safari/537.36" version="25.0.3">
  <diagram id="C5RBs43oDa-KdzZeNtuy" name="Page-1">
    <mxGraphModel dx="3025" dy="1744" grid="1" gridSize="10" guides="1" tooltips="1" connect="1" arrows="1" fold="1" page="1" pageScale="1" pageWidth="827" pageHeight="1169" math="0" shadow="0">
      <root>
        <mxCell id="WIyWlLk6GJQsqaUBKTNV-0" />
        <mxCell id="WIyWlLk6GJQsqaUBKTNV-1" parent="WIyWlLk6GJQsqaUBKTNV-0" />
        <mxCell id="cOPIzc0EePtHE0Wcxyci-0" value="&lt;h1 style=&quot;margin-top: 0px;&quot;&gt;Film-Music diagram&lt;br&gt;&lt;/h1&gt;&lt;div&gt;FILMS (&lt;u&gt;&lt;b&gt;filmID&lt;/b&gt;&lt;/u&gt;, filmName, Category, filmDescription, posterImg, status, rating, releaseDate,&amp;nbsp;&lt;b&gt;ActorID&lt;/b&gt;)&lt;/div&gt;&lt;div&gt;&lt;br&gt;&lt;/div&gt;&lt;div&gt;ACTORS(&lt;b&gt;&lt;u&gt;ActorID&lt;/u&gt;&lt;/b&gt;, ActorName, DateOfBirth, Country, City, &lt;b&gt;filmID&lt;/b&gt;)&lt;/div&gt;&lt;div&gt;&lt;br&gt;&lt;/div&gt;&lt;div&gt;FILM_ACTOR (&lt;b&gt;filmID&lt;/b&gt;, &lt;b&gt;actorID&lt;/b&gt;)&lt;/div&gt;&lt;div&gt;&lt;br&gt;&lt;/div&gt;&lt;div&gt;PRODUCERS (&lt;b&gt;&lt;u&gt;ProducerID&lt;/u&gt;&lt;/b&gt;, ProducerName, &lt;b&gt;filmID)&lt;/b&gt;&lt;/div&gt;&lt;div&gt;&lt;b&gt;&lt;br&gt;&lt;/b&gt;&lt;/div&gt;&lt;div&gt;FILM_PRODUCER (&lt;b&gt;filmID&lt;/b&gt;, &lt;b&gt;producerID&lt;/b&gt;)&lt;/div&gt;&lt;div&gt;&lt;b&gt;&lt;br&gt;&lt;/b&gt;&lt;/div&gt;&lt;div&gt;CATEGORIES (&lt;b&gt;&lt;u&gt;categoryID&lt;/u&gt;&lt;/b&gt;, categoryName, descrption)&lt;/div&gt;&lt;div&gt;&lt;br&gt;&lt;/div&gt;&lt;div&gt;FILM_CATEGORY (&lt;b&gt;filmID&lt;/b&gt;, &lt;b&gt;categoryID&lt;/b&gt;)&lt;/div&gt;&lt;div&gt;&lt;br&gt;&lt;/div&gt;&lt;div&gt;SONG_CATEGORY (&lt;b&gt;songID&lt;/b&gt;, &lt;b&gt;categoryID&lt;/b&gt;)&lt;/div&gt;&lt;div&gt;&lt;br&gt;&lt;/div&gt;&lt;div&gt;SONGS (&lt;b&gt;&lt;u&gt;songID&lt;/u&gt;&lt;/b&gt;, songName, songDescription, releaseDate, category, rating, &lt;b&gt;SingerID&lt;/b&gt;)&lt;/div&gt;&lt;div&gt;&lt;br&gt;&lt;/div&gt;&lt;div&gt;SINGERS (&lt;b&gt;&lt;u&gt;singerID&lt;/u&gt;&lt;/b&gt;, name, DateOfBirth, Country, City, &lt;b&gt;songID&lt;/b&gt;)&lt;/div&gt;&lt;div&gt;&lt;br&gt;&lt;/div&gt;&lt;div&gt;SONG_SINGER (&lt;b&gt;songID&lt;/b&gt;, &lt;b&gt;singerID&lt;/b&gt;)&lt;/div&gt;&lt;div&gt;&lt;br&gt;&lt;/div&gt;&lt;div&gt;PLAYLISTS (&lt;b&gt;&lt;u&gt;playlistID&lt;/u&gt;&lt;/b&gt;, playlistName, &lt;b&gt;songID&lt;/b&gt;, &lt;b&gt;userID&lt;/b&gt;)&lt;/div&gt;&lt;div&gt;&lt;br&gt;&lt;/div&gt;&lt;div&gt;SONG_PLAYLIST (&lt;b&gt;songID&lt;/b&gt;, &lt;b&gt;playlistID&lt;/b&gt;)&lt;/div&gt;&lt;div&gt;&lt;br&gt;&lt;/div&gt;&lt;div&gt;COMMENTS (&lt;b&gt;&lt;u&gt;commentID&lt;/u&gt;&lt;/b&gt;, &lt;b&gt;parentCommentID &lt;/b&gt;numberOFStar, CommentText, timeRated, &lt;b&gt;UserID, filmID, songID&lt;/b&gt;)&lt;/div&gt;&lt;div&gt;&lt;br&gt;&lt;/div&gt;&lt;div&gt;STAR_RATED (&lt;b&gt;&lt;u&gt;starRatedID&lt;/u&gt;&lt;/b&gt;, starNum, &lt;b&gt;userID, songID, filmID&lt;/b&gt;)&lt;/div&gt;&lt;div&gt;&lt;br&gt;&lt;/div&gt;&lt;div&gt;LIKED_FILMS (&lt;b&gt;filmID&lt;/b&gt;, &lt;b&gt;userID&lt;/b&gt;)&lt;/div&gt;&lt;div&gt;&lt;br&gt;&lt;/div&gt;&lt;div&gt;LIKED_SONGS (&lt;b&gt;songID&lt;/b&gt;, &lt;b&gt;userID&lt;/b&gt;)&lt;/div&gt;&lt;div&gt;&lt;br&gt;&lt;/div&gt;&lt;div&gt;USERS (&lt;b&gt;&lt;u&gt;userID&lt;/u&gt;&lt;/b&gt;, name, DateOfBirth, username, password, Role)&lt;br&gt;&lt;/div&gt;" style="text;html=1;whiteSpace=wrap;overflow=hidden;rounded=0;" parent="WIyWlLk6GJQsqaUBKTNV-1" vertex="1">
          <mxGeometry x="-1010" y="-70" width="540" height="680" as="geometry" />
        </mxCell>
        <mxCell id="OdEKxOvV1YU56GnAyZDW-55" style="edgeStyle=orthogonalEdgeStyle;rounded=0;orthogonalLoop=1;jettySize=auto;html=1;exitX=0.5;exitY=0;exitDx=0;exitDy=0;" parent="WIyWlLk6GJQsqaUBKTNV-1" source="OdEKxOvV1YU56GnAyZDW-4" target="OdEKxOvV1YU56GnAyZDW-20" edge="1">
          <mxGeometry relative="1" as="geometry" />
        </mxCell>
        <mxCell id="OdEKxOvV1YU56GnAyZDW-4" value="" style="rounded=0;whiteSpace=wrap;html=1;" parent="WIyWlLk6GJQsqaUBKTNV-1" vertex="1">
          <mxGeometry x="50" y="-190" width="950" height="430" as="geometry" />
        </mxCell>
        <mxCell id="OdEKxOvV1YU56GnAyZDW-0" value="FilmRepository" style="swimlane;fontStyle=1;align=center;verticalAlign=top;childLayout=stackLayout;horizontal=1;startSize=26;horizontalStack=0;resizeParent=1;resizeParentMax=0;resizeLast=0;collapsible=1;marginBottom=0;whiteSpace=wrap;html=1;" parent="WIyWlLk6GJQsqaUBKTNV-1" vertex="1">
          <mxGeometry x="90" y="-130" width="250" height="140" as="geometry" />
        </mxCell>
        <mxCell id="OdEKxOvV1YU56GnAyZDW-1" value="+ field: type" style="text;strokeColor=none;fillColor=none;align=left;verticalAlign=top;spacingLeft=4;spacingRight=4;overflow=hidden;rotatable=0;points=[[0,0.5],[1,0.5]];portConstraint=eastwest;whiteSpace=wrap;html=1;" parent="OdEKxOvV1YU56GnAyZDW-0" vertex="1">
          <mxGeometry y="26" width="250" height="26" as="geometry" />
        </mxCell>
        <mxCell id="OdEKxOvV1YU56GnAyZDW-2" value="" style="line;strokeWidth=1;fillColor=none;align=left;verticalAlign=middle;spacingTop=-1;spacingLeft=3;spacingRight=3;rotatable=0;labelPosition=right;points=[];portConstraint=eastwest;strokeColor=inherit;" parent="OdEKxOvV1YU56GnAyZDW-0" vertex="1">
          <mxGeometry y="52" width="250" height="8" as="geometry" />
        </mxCell>
        <mxCell id="OdEKxOvV1YU56GnAyZDW-3" value="&lt;div&gt;+ getFilmsWithRatings: List&lt;/div&gt;+ findFilmByCategoryID: List&amp;lt;FilmEntity&amp;gt;&lt;div&gt;+ getFilmById: Object&lt;/div&gt;" style="text;strokeColor=none;fillColor=none;align=left;verticalAlign=top;spacingLeft=4;spacingRight=4;overflow=hidden;rotatable=0;points=[[0,0.5],[1,0.5]];portConstraint=eastwest;whiteSpace=wrap;html=1;" parent="OdEKxOvV1YU56GnAyZDW-0" vertex="1">
          <mxGeometry y="60" width="250" height="80" as="geometry" />
        </mxCell>
        <mxCell id="OdEKxOvV1YU56GnAyZDW-5" value="&lt;b&gt;&lt;font style=&quot;font-size: 24px;&quot;&gt;Repository&lt;/font&gt;&lt;/b&gt;" style="text;html=1;align=center;verticalAlign=middle;whiteSpace=wrap;rounded=0;" parent="WIyWlLk6GJQsqaUBKTNV-1" vertex="1">
          <mxGeometry x="90" y="-191" width="60" height="30" as="geometry" />
        </mxCell>
        <mxCell id="OdEKxOvV1YU56GnAyZDW-6" value="" style="shape=image;verticalLabelPosition=bottom;labelBackgroundColor=default;verticalAlign=top;aspect=fixed;imageAspect=0;image=data:image/png,iVBORw0KGgoAAAANSUhEUgAAAU0AAAIgCAYAAAABcjvdAAAAAXNSR0IArs4c6QAAAARnQU1BAACxjwv8YQUAAAAJcEhZcwAADsMAAA7DAcdvqGQAAF4pSURBVHhe7d0NcFRlgi/8v0K+YBIZEGGAJEbjEgfQl6+8e4GSADvzEmdDUu7eK96g1GQs1tld18SXwauG2toKYsnymig7o5tisoWSkdm7SwVyx7AfQrCArc2grHyMYYhGCDBASAYSIV+A7/M85znd55zuTvdJOkl35/+ratLns885nf738xXOXZiR882DU5PwxaUuhGKo1iUiigZ3659ERBQChuYIWvfiCpzbuQhb9DQRRT6GJhGRCyMbmuMS8S39NCSu1k/D/p152F+oJ2PIltfycO61ND1FRMNpBEPz21i38WXUvp6L2XpOv8Y9gBf/+mX84uU/xHf0LCKi4TaCofl7/OJfTuFq6hJsCxacKjDX4k+mX0H93v/C7/RsIqLhNuJDjr6V8z/wD88+intbDuH5l+twUs/3SsNfvvEjPCUC859f/znePNWt5wcmq6+r0/WE6exnSHv1nJ6QVfdHkamngDbsWnMEG/QUlszByefuw4l3jwKFj2Fxsp6v9yE7cErnjdMzb+Lwux/hqUN6Uu8bdbXYNcW6HtDx6ceY/eZ1PWV0BJXO67K9tn3fkmX/hYtwLneSMdvDfuzOc28Sx7G8Wk9IPvtwnDsR9WvEO4K+rv9H/HD7ZwFKnO4DU9rwai3S1nyGJvFchkbaGvEwA1MGogi1+0SAqfnisevsJKz26cUeh8XPLQCq9fZ1bUD6ozj5jgi1SWcs28r1fHvA71uyAn+Fo5715PYp8x7DyRfv0Wv4k4bVD13BJnMb5/6rj+h54rkMcLWOGXj34IN3RGBO/Mq7vXjNzFxLu64KzCQRwtb962VEFJKI6D1Xwfn2J7hoC05vYH7wNz8NOTCD2ZJ7P1I6v8LblhLfhldlwE7C445A6/j0qLcEWX0KhzuBlGRRMvSUWMW2dV+hQ2y7wNHhlNJ+xlaqlIG36dObIjhn9TPE6ByW//gEKvWUZOw/CeLS9K9wligRi1JptWV78ZoyFDPFF8U6MbluShLQeQUHPKViee4sZRK5ERGhKX3dsBt/5gnOJ/CyJTD/7oxeadDSsEBUXZsO2YMJuI7LMhAnWUPzJk40WEJPrNPSLn50dqoSbDBNv/EGq6nysmyqCCUARYlwZ57xeE6EvCj1TnE2Nzhs+a6ocp89Y2kmMDS13QSSk1VThHr95PtRyp53ogGLmNCUvME5H388NdyBKSy5B/eJH7LK6gkl9bC0W44k1XQgjicX2GVWsd+VJc1g7kHqRPEj/VHHeeXZ20dl9V7uz7MeB9YTuRVRoSmp4Hzp7/HDF8McmNKh67gifnjaOZ0PS7V76HShxVEaNNyDDwpFqVK1VbqtMutSsKed0/mw7E+UsmereR/jcKdsy12BD4KVfInII+JCU/r6wjn8tk1PhJVRDc/87tBXT/29hqpCh1i9N63Lvk9Uz4NT1fD0GS5Kjtfx1I9lW27wqj8ReUVkaIaHv4AUQXFI94I7On22vBbmqqp4DetfI8mhRHIokG97qkmXFq3BJ6rrf2UbfmTwF5CVb55RnVmr3zE6fTwKF3mOY92Li+ylysIZyMRNXGYPOlHIYjo0zYBU7Xdm54du18O8xzztfvLxeNupsPYiN9V9jMtLvPsvnQc11Mc2ZtJhw6tmlVlvJ8LubT9tmp6AVOuZYX8Oy2WVG/ej1NxePpZ0YpfnNZOw+DnLMjX8yDrGlIiC4f+nGXbewe39BSQRRacYLmkSEYUfQ5OIyAWGJhGRCwzNsJMdMmzPJIpVDE0iIhcYmkRELjA0iYhciJjQlGM6iYgiHUuaREQuMDSJiFxgaBIRucDQJCJygaFJROQCQ5OIyAWGJhGRCwzNYbLylTIcfe9ZrNTTRBSdGJpERC5ET2iOS8S39NOQuF0/bPJQXbMV1UV6kohiSpSE5rexbuPLqH09F7P1nH6NewAv/vXL+MXLf4jv6FlEROEQJaH5e/ziX07hauoSbAsWnCow1+JPpl9B/d7/wu/0bCKicIia6vnX9f+IH27/LEhwpuEvdWD+8+s/x5unuvX8YObirfe24qioVnsetk4bvbw8T097FZd711XPa5Zipng+c5Xej882RvXd8zp+9klEkSuqOoL6D04RmG/8CE+5DkyhKAePNFZjQcF6/TiI0ylZ2OQy0CpK9Lbi+em9el8ltcZCSe6zJhO/Nl+nohGdGUtx4JW5egUiinRRFZqSCs63P8FFW3B6A/ODv/mpu8CUqsqxbPMxPSHV4v2GLmDSlDAPEerC4YpyVOgp1G/HnmYgOWs+hyIRRYmoC03p64bd+DNPcD6Bly2B+Xdn9EoDYFSvjcem7CRRMkxGll4WFh1nUVevn2uNrSKcw/06RDRkojI0JW9wzscfTx1cYKqB5yIo1+Cgrp6vR6ksaRIROURtaEoqOF/6e/zwxUGUMHOexUuiVKnaIK3tjzbH0NymnxLRqBbVoSl9feEcfhv2QJuL3Cw/t9/waePMw8IM/ZSIRoWoD81Bq7+Mi+LHzDnenvKVrzyBxSl6Qqs4cUH1fr9k6ekuLjeGF9mdx9UO+/6IKHYwNFGLQj30x+wEegm7fds0q8rVvOTsQs96C0+sx85mvdzjGF6oFwFr7o/jMIliyl2YkfONvBPkF5dC6/iIhHWJiEYKS5pERC4wNImIXGBoEhG5wNAkInKBoUlE5AJDk4jIBYYmEZELURmackwnEdFIYEmTiMgFhiYRkQsMTSIiFxiaREQuMDSJiFxgaBIRucDQJCJyYXSFpjjbVP10oNQdK997NipuuatuGDdSx5rzLA7UbEV1kZ4mihGxHZrxd1A397aeEO7cRmXOLayN8LM27o5ZgmI9TUSRI2ZDMzXxFvYX3MDsZD1DS0jtwsYVfVg3usrYQeShmqVCopDEZHSkTujDnlVdeChuLD75fIyeK43BgVNxSJjajY25fXjeuiiC7Nu8EQsKylGhp4kocsRcaM6eKALz8W5MRhz2/yoJBa16gVb2aSJKj8SjZ2I3NuT1YlO8XkBEFIKYCs3Fk3vxy1wRmH3xqNmbiLXX9AKHHV8kYN2+BHSM78Ha/F78bZxeMGBz8dZ7xh0qPY8Ad6E02iu96x14Jc/Y1rK+T5um6lQpw1s5uiPKs32o7Z5G9duzneW1jP0ZtyKeucq+3NORpDt1zO2NarzjnKOkc4xosGIqNGdNvY2U2yIw9yTg+W49M4D9rfF48mNRzEy8jdRxeuZAqEApxOK2g6JKvV4/DuK0vIWvI0hkQG3KbsdOz3rVOJ611Oce6/4lYXGxcdtgc9vDHdOxJlhYpWRhU00mfm2+pr5d8QF9//aKEjlfHK94fnqvXqekVi1T5PYiJN/Q28tbFs9cVYYD7xXi3nq9vtxersfbFdMoEFOheerSGHSM6UVBfg+2JeqZASyXpdLHeoHuMWi5qWcOQHF+FpKbRWBag8a8l7oIkqfNzhURrvkZXThcYW2rPIYXnjECKxSdDdUorNIT5v3VU9KRK0qggTles3479ojgS86aH2LJUGxftR379FTFHnFeIsCTxZeE91hq8b68T3xGJnv8KebFVGgelqXHukS0xongXNWNHRP0Aoe1D/agcmUPUm4kYMeeePykTy9wLQ8LM0QJ7YQ1MLX6T3C8Q5TK5uiq7qJ0JKMdzfVq0uI8ror1guvC8SPH9HPty04VYPc+oKf96TiLOsdrNraKgEtJRpae7pdz+/rLuCh+dLaeN6aJRpmY6wg62R6H/A9FcKIPy3/QhZrJeoG2cV43Ni3qRUJ7IrbUxqNUFDYHLGcKpumnwWRNThIB1IlGPU1E0SnmQlNquSaCc28SzvTdwvyHLYPbcRvLZvWh51IiyurisM26aCB0qYuIRo+YDE2ppXsslteMx8lOPUPraUlC2UdxqLyjZwyKUbU2q+A2OfPxSIq36l5xIkD7o16PiKJDzIam0ns3co9ZRrDfPQbr6sdiR1gCUzqGF6qM3mj7EKM8VBcbHUSezpKqehzukD3g1mFCc/FWkVhPTw2WMVTJGJrkTj/hT0Q2sR2aTiIsW/TTsKnfjmXmECPPWMalmNZQ7ehRlz3lepiQZ70nRJjKeXqVEaN74s1z4NAhooDuwoycb+TdHb+41KVn9S/a1o18cpB4IR5prMayzY7ecSKKOKOrpBmJdJvmxUsMTKJowNAcNnmo9vnrHT9tn0QU0Riaw+Y8rkL+SaPZnikf/to+iSiSsU2TiMgFljSJiFxgaBIRucDQJCJyISpDk+2ZRDRSWNIkInKBoUlE5AJDk4jIBYYmEZELDE0iIhcYmkRELjA0iYhcYGhabHktD+d2yscibNHzrNTyd+ZgnZ4motGHoanJQFw98StsWlOLtDVHsAFp2C8C9OSL9+g1iIiiKTTHJeJb+mlIXK2fhgXpQMeZc6jUc4iI/ImS0Pw21m18GbWv52K2ntOvcQ/gxb9+Gb94+Q/xHT3LvXNYLkqds9+8rqeJiKImNH+PX/zLKVxNXYJtwYJTBeZa/Mn0K6jf+1/4nZ5NRBQOUVM9/7r+H/HD7Z8FCc40/KUOzH9+/ed481S3nh/YuhdX4NzOR5EpnqfMe0x1BBntmMHbNNW2smNoyRycVB1IxmN/oVx6Dz54xzuPHUhEsSGqOoL6D04RmG/8CE+5CEyp8s2PkLbmMzSJ5x2ffiyeu6ySJ9+PUhGSb6sOpFrsOgtk5q7AyXcew5RDxjy1f7nea2l6IyKKVlEVmpIKzrc/wUVbcHoD84O/+WnIgRkeN3G4+oSnA2lD3VfowDiktH+G5dV6Js5h16c3gfQZfocyEVH0iLrQlL5u2I0/8wTnE3jZEph/d0avNFw6r+DAIf1cOnQdV8SPjjZ2IBHFoqgMTckbnPPxx1NHKDCJaNSJ2tCUVHC+9Pf44YsMTCIaHlEdmtLXF87ht216gohoiEV9aBIRDSeGJhGRC3dhRs43D05NCvkOj5GwLhHRSGFJk4jIBYYmEZELDE0iIhcYmkRELjA0iYhcYGgSEbnA0CQiciEqQ1OO6SQiGgksaRIRucDQJCJygaFJROQCQ5OIyAWGJhGRCwxNIiIXGJpERC6MrtAUZ5uqnw7OPfjgnTyc2yke78zBOj3XastrgZdFIufxrntxhTi/RQFvOayWj9j5pWG/uPYnX7xHTxMNn9gOzfg7qJt7W08Id26jMucW1g7qrGVgPobF7Z8hbU0t0n58ApVL5uCk+BDvL9SrEFHMitnQTE28hf0FNzA7Wc/QElK7sHFFH9YN9MyXpGGO2GfTb87pGRSMKsW+lqaniKJbTIZm6oQ+7FnVhYfixuKTz8foudIYHDgVh4Sp3diY24fnrYsG49AJzBalzuXVepqIYlbMhebsiSIwH+/GZMRh/6+SUNCqF2hlnyai9Eg8eiZ2Y0NeLzbF6wVERCGIqdBcPLkXv8wVgdkXj5q9iVh7TS9w2PFFAtbtS0DH+B6sze/F38bpBUGoauZz9yNFPM/MFc/NdswQ2jQ9HSd6XdWJ5NnG0rEkHwPoYDE6biz7cHTiOJeHrxPF6JTx7NtaDS9cpOatThfP0x/V6+jjUtdhBT5Y4jh3vb39eOV6ajbRiIup0Jw19TZSbovA3JOA57v1zAD2t8bjyY9FMTPxNlLH6ZlBbHi1FmnvfoUO8bypTjx3WyVPvh+lIiTflh1I4rHrrAzfFTj5zmOYcsiYl7bmMzTJ9Vy0AcowL50HHH7X3Iexb5OxvAu79DJ5Dpj32OCDUx7nzhk4atlvhwhHz36rj3iP5azuOFtzBBuMpcI4LH5ugVhPb1/XpsL15DsrUDrpjF5fbi/XC9yTTzScYio0T10ag44xvSjI78G2RD0zgOWyVPpYL9A9Bi039cwhdxOHq0+gUk9tqJMBPA4p7Z9Zwvccdn0qDih9RmghIUpzq9PFft/9CE8d0vOEDa/qcBIlusdFSa+pzhJWh07gbfEaKfNmDTKI5Ova9/uhCMiUh9JCLil3fHrUe9zVp3C4U2yfLAL+VW9Hm3GdJmEBRydQBIip0DwsS491iWiNE8G5qhs7JugFDmsf7EHlyh6k3EjAjj3x+EmfXjDUOq/ggCXYcOg6rogfHW3XjekAfKve3qaALd+d5Ltfi3XZ9yGl8yvscpSIKy/Le8wnIXUw1V4/r9vUJgI/ORmZerp/N3GiwXru19HSLn50dqLJmEEUcWKuI+hkexzyPxTBiT4s/0EXaibrBdrGed3YtKgXCe2J2FIbj1JR2Ix0lW9+5Kmqmg+jZHoPUieKH+3XPaVXp8xJ43Q12h6653JF2BKRazEXmlLLNRGce5Nwpu8W5j9sGdyO21g2qw89lxJRVheHbdZFUUmXzPqhSn6ipLnJEbrGw16lJ6LgYjI0pZbusVheMx4nO/UMraclCWUfxaHyjp4R5VQo9tP+qarhyfdhGXuficIiZkNT6b0buccsI9jvHoN19WOxI0YCU6p88ygOd07CascQoy2v6WnVueKn93nJHOx30XtutKsObOhPsGAniiaxHZpOIixb9NPYcR1P/VgOy5HB6W2zXI3zulfb//JzzyXj6Jv9d0CFS+WbZ9AE8/U5dIii212YkfONvLvjF5dkb2pw0bYuEVE4ja6SJhHRIDE0iYhcYGgSEbnA0CQicoGhSUTkAkOTiMgFhiYRkQsMTSIiFxiaREQuMDSJiFxgaBIRucDQJCJygaFJROQCQ5OIyAWGJhGRC6MrNMXZpuqngzMXb723FUdrxOO9Z7FSz7UqLg+8LKxynsUBcRzVRXp6qKjXKcNbOXp6WOWhWpzjgVfm6mmikRPboRl/B3VzLXdPu3MblTm3sHZQZy0DsxCL2w5iQcF6LHhmO/YNV3CFhAFDNJRiNjRTE29hf8ENzE7WM7SE1C5sXNGHdQM985z5eCQFOH2iVs+IfqpUXJ6npwYv3PsjiiQxGZqpE/qwZ1UXHoobi08+t9xYDWNw4FQcEqZ2Y2NuH563LhqM+u1YJkqdhVV6ekTVolAcy7LNx/Q0EYVTzIXm7IkiMB/vxmTEYf+vklDQqhdoZZ8movRIPHomdmNDXi82xesFREQhiKnQXDy5F7/MFYHZF4+avYlYe00vcNjxRQLW7UtAx/gerM3vxd/G6QVBqGpncRZkjX/mKvHcbMcMoU1z5StlRseQXld1Inm2sXQsycegOpD8tWka8zz7Fw/1ukUl6vmaDPE8Y6leVoJitU1g6jp49mVZv7/9eTqSHOeqq/Hq+pjzRqzDiSi4mArNWVNvI+W2CMw9CXi+W88MYH9rPJ78WBQzE28jdZyeGURFyXosqGhEp3h+eq947rZKnpKFTSKs3pAdSOKxs1mGbxkOvFeIe+uNeQsKDuK0XC9sbYIyMJdiWkO13r947L1gLKoq9xwHmnXHVkE5KoylfiRhcfFWLDxhHms1DndMxxoz5IPuT27/hFhPby+PQ4TrgffKsGlyg15fbi/XCx7eRCMhpkLz1KUx6BjTi4L8HmxL1DMDWC5LpY/1At1j0HJTzxxyXThctR379FTFHhnASUhuO2gJ31q839AlwiQzPKGRMwXTxOseP2Jp4xThNtD2104Rvt5tj+GFehF8KenIDbFk2NmwW2yjJ6rqRegCySnt2Fni7Vgzrst0LOyn5E40UmIqNA/L0mNdIlrjRHCu6saOCXqBw9oHe1C5sgcpNxKwY088ftKnFwy1jrOoMwNDqr+Mi+JHZ+t5YzoAe9XVePTXFGCjXiNcJTdH+Epfdqrgv/cBPd0v5/bH0NwmfnR0otGYQRTxYq4j6GR7HPI/FMGJPiz/QRdqJusF2sZ53di0qBcJ7YnYUhuPUlHYjHT7Nm/0VF3NR+glRdmbrqvRbgOXiHzEXGhKLddEcO5Nwpm+W5j/sGVwO25j2aw+9FxKRFldHLZZF8U0UY1+xgjbUlH1l51YHPxONDAxGZpSS/dYLK8Zj5Oy18aipyUJZR/FofKOnjHKyFKr7KhJnjxDzyEiN2I2NJXeu5F7zDKC/e4xWFc/FjtGU2DmPItqx/CjhRn2dtTGVt+OJ6MddWBDf/ztjyhWxHZoOomwbNFPR5Np2YWWTiRj+JH1L4b2bW7AaZhtnoPvMAr3/ogiyV2YkfPNg1OT8MUlUToIQbStS0QUTqOrpElENEgMTSIiFxiaREQuMDSJiFxgaBIRucDQJCJyQQ050s+JiCgIVdKU4x5DFW3rEhGFE6vnREQuMDSJiFxgaBIRucDQJCJygaFJROQCQ5OIyAWGJhGRC6MrNMXZpuqngzMXb70n/4Nd8TDv+e1QXB542aiV8ywODPB/gx88ef933huJBi+2QzP+DurmWu6educ2KnNuYe2gzloGZiEWtx007gz5zHbsU2HAuzwSjQYxG5qpibewv+AGZifrGVpCahc2rujDuoGeec58PJICnD5Rq2fQUFAl9fI8PUUUOWIyNFMn9GHPqi48FDcWn3xuubEaxuDAqTgkTO3Gxtw+PG9dNBj127HM1b3IiShaxVxozp4oAvPxbkxGHPb/KgkFrXqBVvZpIkqPxKNnYjc25PViU7xeQEQUgpi6sdriyb2o/H4PUnrjUVObgOe79QI/lot1t6l1E7CrJh4/6dML+iGrjGsy9IR2eq8oYX75LA4UZ+GifK5Lm2rdSY0olW2eYlreEndT1lmUiuUviXXNVgO1fZVuJxXVfqXDu11Qsj21OB3HKzaiOd9+fMa+9YQiO0OWYqaeUpoPYkGJo6lB7dN7jPJ4djamY012O3YWlKNCz/bd3wXHcoeAx2rZrqgER1dNV3O99HLP9rvFepbrpc9BXeNs8z9z6cJh8Tov1OtJfazOO3ESuRVTJc1ZU28j5bYIzD39B6a0vzUeT34sipmJt5E6Ts8MoqJkPRZUNKJTPJeBJDuCXFXJU7KwqQh4Q3YgicfOZmDmqjIcEIF5b70xb0HBQZyW67lsz3ukaCsWnjD3sR6lDV1i3/bOqZWvZAP6uNVDnkvGUnuPsgwt/QXg2ZcKTMf/LKU6v4wQMtfb2Sxv2xvslr1JWFxsPdZqHO4Q25kjDarK9b7EcxmGah1rEMvtnxDr6e33XgDkObwnAnNyg15fbi/X4+2DKfxiKjRPXRqDjjG9KMjvwbZEPTMAWdL85WO9QPcYtNzUM4ecKP1UeUuQFXtkACchue2gJXxr8b4IPGRkuvjAi0BrrLYF+L7NG41QFuFmDnuS82whX78de8Q6yZNn6BmixJszHZ0iCP3ty6o4X5RERQn0DUupraJEBD6mIz/IsB77/o+J0qAIvpR05IY4FKmzYbe3BFlVL0JXnEOKKAVbSszGtZ2OhRzRQGEWU6F5WJYe6xLRGieCc1U3dkzQCxzWPtiDypWian4jATv2hFY1D4uOs6jzVBeF+su4KH50tp43pgOQ1U41JtTysA9v6sLxI75VzsZWEb4pycjS0wbLGFPxUFXkSVOMYNUjAy5eCrAvjzwsFNudFqFrb0I4j6sywDwh7I+fY/2yU3153PuAnu6Xc/tjaG4TPzo60WjMIBpSMdcRdLI9DvkfiuBEH5b/oAs1k/UCbeO8bmxa1IuE9kRsqY1HqShsRjpZ0jOrnebDVmIMkRrGU1OIR0Sp1NyPrQT5QDKSRShd/VJPB5IzBdPED1n9twa53LennZEoRsVcaEot10Rw7k3Cmb5bmP+wZXA7bmPZrD70XEpEWV0ctlkXxSqzBFZUIkqVsnNk/eA7QnQJ2WzX9Xk4O5aIYkhMhqbU0j0Wy2vG46TstbHoaUlC2UdxqLyjZ8SEJDyyyNmOOBe5WUlA2+V+euGNarZHVRNO97cvD6MaPnMOB5/T6BOzoan03o3cY5YR7HePwbr6sdgRU4FpSM5+wvY33cXlsqosSpZ7dKlPtxtaA7G43DH8SHdCJWcXOnrdn3BUu3XnjbPnXSgu9/ZYG22xA/tbc9WG6qozjGh4xHZoOomwbNFPY4usdjfg3mJv++KaDDm20TJOUf7V0t4LKhDNdeSwH2evuGw/NYcrmeu9hN1qno0cGlQhKv6W/clHfmt94HGaLuzb3KB64teo/XLoEEWOmBrcPipZBox7B3KHn2dwfqiD7oli1OgqadIAhdI+SjQ6MDTJprjctw3SaB8V1X32ihMxNMmusRXqzxyt7ZTqb+j7+5tyolGEbZpERC6wpElE5AJDk4jIhagMTVbNiWiksKRJROQCQ5OIyAWGJhGRCwxNIiIXGJpERC4wNImIXGBoEhG5wNAU1r24Aud2LsIWPU1EFAhDk4jIBYZmlNnyWh7OvZamp4houEVPaI5LxLf005C4XZ+IKARREprfxrqNL6P29VzM1nP6Ne4BvPjXL+MXL/8hvqNnERGFQ5SE5u/xi385haupS7AtWHCqwFyLP5l+BfV7/wu/07PdMjqHRFXY81iBD5bohYWL7NMWqvr8zhys09NAGvbb9pOHky/eo5cZAnZEWV9HPc/D6nTxPP1RvS92XhENt6ipnn9d/4/44fbPggRnGv5SB+Y/v/5zvHmqW893Kw2rH7qCTWtqkaYfu86Ow+LndEhVn0cTxmFOtj38sGQOHheh1nToBCrltAq6R3Hfpx979pP27lfAvMfct0tWH9HHIZ6f/Uzv7wg2GEuJaJhEVUdQ/8EpAvONH+GpQQemdA7Lf6yDT9tQ9xU6kATx0sI57Pr0JlLmzbKV9NZl34cUtOFotZy6R5QQJ6FDBObsN6+r5YoI1Nl1baK0+JDfkioRRbaoCk1JBefbn+CiLTi9gfnB3/x0kIFpoavE6vHc/SIQx2GKrB4LlQ1XRIhOwoJCY1qG5LKHxomQPGWU/pakYU7yTZxosASmKVBJlYgiXtSFpvR1w278mSc4n8DLlsD8uzN6pcEQ1eyTMihzgV2WanWHXqwcOocTnUDmd3U12xmS6ckiZIko1kRlaEre4JyPP54axsCU1epCUapU7Yb9tRlex1OHZDV7hqqiq6p55xUcOGQsxdlOe8j2o/Iy/yd6omgRtaEpqeB86e/xwxfDFZiBGe2VDqqaLavoaVg9b5y3A0g6dB1XAlXBC2cgE86qu9le6rXlu5P0MyKKFFEdmtLXF87ht6LAFz7X0dIufugSpCKq638lQtHXORw9K6roSx7CfZ4OINM5LK9rQ8q8x+xDjGTVP1d2EB0VJVU9T7dxLi60DFUqXGQML3JoartpPzYiGlZRH5pDYcOrH+Nw5ySsNjuBCoG3nW2amupVTx4nqvPnfavycpiQOcTI0qF0pa7W3qMuA1buP/l+lJrrffc80mQvu0Plm2dU6dY4No7TJBpud2FGzjcPTk0K+Q6PkbBuRJElx+fuw4l3P/KWHIkoZrGkOUhbcu+3dwARUUxjaA6G8y+AiCjmMTQHwhzHqdsnl9s6gIgolrFNk4jIBZY0iYhcYGgSEbnA0CQicuGu/+v/efabCQl9uNYTp2f1L9rWJSIKJ5Y0iYhcYGgSEbnA0CQicoGhSUTkAkOTiMgFhiYRkQsMTSIiF0ZXaN4FTNFPKQKsSMfelx9Wj5+t0PPIx/NF4hoVTdBTw6vgTzPF+5OO5/U0xXpoju1CxfQbekL45gZefqADPxDhSSNMBmZ2HD6r/RyrXv8cf/6Rnk8U4WI2NKeM7cTPZjXiwQQ9Q4uf8AV+lHkNBQzOsBlISej59HFA19f45KSeMSpNwM/CWcqePRUfvJyJstl6moZETIbmlKRr2DqrCal3p6DxsvWGaOPwyeUJiEtuxo9mtuF/sEWXiFyKudh4cFwbts5sFt/hk3C08UH85Ia1SHkXfn4hA++enYy+cefw9MOX8dxYvYiIKAQx9R92PDq+FS//wXmMvz0FB38zDVtv6QV+LBDrrlfrTsO/nZqCt2/rBSGR1arvYIaekm6cacZT/9StpxJRVpyBR5P0pHT5d1hVdU1PCLIqlfctNNWeB/7Isq5eTzbAFz1knmMfPqttwkZPVdZ4fTR8js/TH8b3zN6trt+jquISalR7obeEfV6s59NmqF7/2xivJz3b6kn1+jO+FvO68X3ruVrPw/E6hpv4t9fPYpue8uF8XUm/dqqo5n8PYv9n79H7Nffl53o6jtfgfF/E9g3A91Tbqb5+g7ruBvs6zvc+tGsnmzQ875vJ+TuiqXXldWlItF077+v6uT6Cudyzvee6Sua5Oa6Z4xiMc+3r/z0dZWIqNAumfoEfTUnEwVPT+w1M04P3XETFg1347DcPotT7O98/80Nv/eUS836WdQ1/Ln+B/S03P8zWD7onPCwfTB1CN7r6ML7jquMDZg0j7y+6JxD1/iC3hfzAGq9j/NLD/uHXr+MNU/2hg/f4vMFgeV3zNRwh4flQ+vnAB6K2SbEHnzGvDzfEuT9l3Zc43g++fdnymvr8He+Bz7F5Qt1yjQd13f3M8/O6oV874zzkl19/HWHGa4on1t8fn/dQUK8hvxAs77Xg2d5zvcz3W1xrEbSe9QOeC0PTKqaq582dKbhx9xUs/e5FrA9S7ZYlzdceuAzc+hau9OmZQYlftj9yBqJw8pIRmMLz2X6WQwRq7e/FL+i38X1Ho/+NM+e9v+AfXcZnXcD4JPFLatl+W4PYFuPwsLPDQLyO5wMjjuGIOJ3x4kPw2b97g6jmn67iPOKQmZWo54hzmCOCxLoturHx3/0dnwwWy4fFfI0ZE1CgZ4WdOPcjtmsnfHTWEjTSNfzrGfGmpSR6jsO87rb1xHZVcj0/BnTdRagsEuFzvsF+TX4pXmP8Q1Mcw3LCfe1EAFu+YMxjnpEeagec2N5zbuL9PnFTXGsR7NbrMBzvbwyIqdD87MZkvHo6Ddfuvoyls87hrx3VFdMPJp3HKzNF1bx3Gn71GxdV89kTkCn2ef6s40PtMQEPyw+Vv+Unr6HJ55e8D02N1jDoxpUO8aOrBy3GjH45X6elQwZEH65YShk+1DmID3SD4xhPdotyJvDtb5vhKvjp3VavkZSAVD0diCyhmGMwXY3F7OfcZYnJ3JcqyXmOw7juNzqs19JQ83t/oTmw616Q9S2MF6W9f3WUCo3XiMN91l7rQVw7vy5fd5T09DFbvjj65dz+co/4QgB+/3vfa0b9i7mOoC9uTsL60xmiLNKGBVlf4G/Hf6OXSN/gR9Ob8Vx6K+JupuH9z6fg3RCq8R5TElS1rk18G/s1OxGichPZ1DnE4dE8e6DttbZrhUHNPzWp8ZfWR39VUA8RfJ7SlGYGsGoC0PuylSD1dR/qAEhNkUH9bRTZrpt4qCYAGi1ictDN5a4JWH8qEy13OpA1RVRDPG5i/pRr6OvMwM9PT8I/3tGzQ6W/nQPSpbWIps5BVh3tgWY+7NXgCCCqxE+KUqVsu7M3eQw/VVKU7Yp+rtuq1+3tiBS7YjI0pcu3kvHnp7LwRY+eofVeexA/b5qAGmsBNFQqFK3tg07daAvUzhS0aj9Mgp5DNEjE/Bmyo0Xz2/RhUIPow0RVw5O+hfkcPD6qxWxoKreSUHzBMrjlrvF4/csU/Goggalcw5833MT4hzLwwZ9aQkeUhn6mpnWHypTvOP5CZgJ+JntsbZ0vI8XoRJHnYG9jTERZ0dQBdQCoEtiUe4bm75N16d0aiAV/OsMxvEZ3bIjrbntfVqQbvcbhojpfZNOG42+xPe+/W/6+ZGXPtqjyFw/gvYiJL8TIF9uh6STCMlBzZMg+OotVteJjLELH06aV9y20mR0LJy/hqdd/h/MyOD3tXt/Bt880j3j10qTaG0X4z8g2j08+MjDprKV31gWjh34cvqf2E+7/3EGPPLBczyfFq/n0isv3RX+hec4p/bqaFz4inCs+x79dNs9VP/IS8PmAmjW8Ya/2M+j/lMP7hSj3Z/sCobDh3SgptqnxjOA4Qwqb0VXSpFHH+I9BQhvCRRQKhibFBDksyTkOVM773pQ+22B/osFi9Zxig+dPJq3sfwJJFA4MTSIiF1g9JyJygaFJROQCQ5OIyIW7MCPnmwenJuGLS116Vv+ibV0ionBiSZOIyAWGJhGRCwxNIiIXGJpERC4wNImIXGBoEhG5wNAkInJhdIWmONsB3QnQx1y89d5WHK0Rj/eexUo916q4PPCy4ZGHanF81UV6MmLpa1mep6d9qWvZz/KhtPKVMvE+l6BYTxPFdmjG30HdXMv9ee/cRmXOLawd1FnLD3khFrcdxIKC9VjwzHbsy3kWB6IioIhosGI2NFMTb2F/wQ3MTtYztITULmxc0Yd1Az3znPl4JAU4faJWzwhVtJT8opj68irDWzl6mmgIxGRopk7ow55VXXgobiw++XyMniuNwYFTcUiY2o2NuX143rpoMOq3Y5kodRZW6WkiilkxF5qzJ4rAfLwbkxGH/b9KQkGrXqCVfZqI0iPx6JnYjQ15vdgUrxcQEYUgpv7DjsWTe1H5/R6k9MajpjYBz/dzg8DlYt1tat0E7KqJx08cNzf0R3ZIrMnQE9rpvaKE+aWoFhZn4aJ8rkubat1JjSh9Zjuy/GyH5oNYUGJW8WXVfSlm6ingAnYWlKNCT6lqZ3E6jlfsBooKsTgF6GyoxrLNx/QK/hj7hDim96eWYVO29563/rd1HoP/9WTHiHVfQBcOV2zEC/V6MsixOrfvbDiI41lLjTZiz/WwU9cSYvmeKeo6my0u3v3qdmbxWlbmcs/2JzJxdNV0vdQ8bsd5294X83jb7e8HjWoxVdKcNfU2Um6LwNzTf2BK+1vj8eTHopiZeBupzrskBFBRsh4LKhrRKZ7LsJQdQaFUydV2BQdxWjw3t/N8MFU73FJMEx9wNV88djZPxxo/PbaPFD0BVBnr+Iaef9NyyvASdnv2vWDvBSRnF+LAK3P1GkJRCY46jkGeJ8R69l7rPDyddRal5jrisbM5CYuLQztWGV5GAJnbVxuB6Qg7vzKW4mgR8Ia5rT4Po434GF54RsxT740MQ2Md2zWS289p8rzu4Q5x3EVl4tpn46peX20v1rNdGyKHmArNU5fGoGNMLwrye7AtyC2fZUnzl4/1At1j0BLOW2O7VJwvSk4djXjD8gGvKJEBOx35tg+vKJ017vaW6EKU3NZgD4+qcpQ2dInAydFBJ0ppOdN9S5WynVYEEzKyLR0rtSiUowX0lFSxRwbVRGTYOl/8HKv4csjPkIFmLbHJsDO+TIITpW/ra1fVi+ADZs4JdSiS2N5TghSvWy/OLUUcZ4PlOMU572kW1yxr/ggOFaNIF1OheViWHusS0RongnNVN3YEuPf+2gd7ULlSVM1vJGDHntCq5kMjDwtFtf20+LBagwg4j6siEJInz9DThouXLKEmGGMIt9oezt55f738+y61i3910KnRAF04fsS+b6WqSQRaEh5Z5Ch5qZKpfk1VXU7CvQ/oZZrPsS5KF18OZ1HnE/rGuQbV3OSoHh9Dc5v4MWlKaAHn3P7LTlVjcB4nUTAx1xF0sj0O+R+K4EQflv+gCzWT9QJt47xubFrUi4T2RGypjUepKGyOmJwpmCZ+zFxlD76jNb7tc7IN7uqX+qm2b/NGXd30Plz34D+Q7GkjDEo1JYjjWwVvFVs3V9j5HmvWZGs7KFH0irnQlFquieDcm4Qzfbcw/2HL4HbcxrJZfei5lIiyujhssy4aCfWXcVH88LRzOh8BOkbCox3NstSnS1zBiWp8kShVyo6SAXSKNLaG1slHFOliMjSllu6xWF4zHicdidDTkoSyj+JQeUfPGFFG1TT0djn3/O27eM50oKMTjXJCBbefKrhUlImZotTot+quqWq3ft4f1SSQko5c58Bz/ccCRNEiZkNT6b0buccsI9jvHoN19WOxY0QC019A6g4JPz22xeVh+ntnsW9rO6dsB5XDn7ztqLUo9NejLqviq2QHkdlRotsQMzK9xyXWeck2/KgfquPG2dOuS696ymD85dSA/ta8vy8AojCJ7dB0EmHZop8OP29AqnZLMxSqyr3DezxtmluR31oflnGBp/dW42qOd7+bsqGG5NjaPv0dgx53au1RryiRQ3XkcCi9jhwC5LdN0x/ZU+7YvkYOS5Lz9CqDVov31cgA4zw4dIiGAu9GSUTkwugqaRIRDRJDk4jIBYYmEZELDE0iIhcYmkRELjA0iYhcYGgSEbnA0CQicoGhSUTkAkOTiMgFhiYRkQsMTSIiFxiaREQuMDSJiFxgaBIRuTC6QlOcbap+Ojhz8dZ7+j/Sfe/Z6L3dq7pRWpnlFr3DS94HPaqvH41KsR2a8XdQN9dy97Q7t1GZcwtrB3XWMjALsbhN3mBsPRY47gNORLEtZkMzNfEW9hfcwGzHXb8SUruwcUUf1g30zPWNwPzdTzy8jHvlOO9jPlLUPdZZKiSKzdBMndCHPau68FDcWHzyueXGahiDA6fikDC1Gxtz+/C8dRERUQhiLjRnTxSB+Xg3JiMO+3+VhIJWvUAr+zQRpUfi0TOxGxvyerEpXi8gIgpBTN1YbfHkXlR+vwcpvfGoqU3A8916gR/Lxbrb1LoJ2FUTj5/06QX9kB0X8va3Vqf3eu/sKKuwm2y3tL2AnQXlfu4qKaveSzFTT0mdDdWeOz/6ex00H8SCErNJwLm943VkB09xOo5X7AaKCrE4xb5/D896G9Gcb31Ny/7UOs7b7HbhsNjmhXrjOCCuwa/nWLbvaESpbOstKsHRVdP1TPu1ktR5TtLr6nlEkS6mSpqzpt5Gym0RmHv6D0xpf2s8nvxYFDMTbyN1nJ4ZREXJenWrW3nLWhkAsiPICAGjN31TdrsIG2O+fOxslrerdfROyyARQTNNhJi5nuf2ufq2vup1Cg7itHhuvo4nMFWPt31743V875P+SJG8Ra6xjk9gesh7kW/FwhP6dQr0bXbN9sv67Vgm5pc2iC8pGYZqHRmYamNl5irL9vL6pGThpffKcDSnU69vbD9z1cj11BOFS0yF5qlLY9AxphcF+T3YlqhnBiBLmr98rBfoHoOWm3rmQBXliNKcb6nSuE+4CKV8fY9zGa45031LfTKY9sp7omcHDZXifFHqE+H1hu1+5DJgpyPfdp9vUeJt3G0Lt0Dk8XhLgPr+7CnpyA014EQp2LO9OJc9zUCyKN0ervKWIPdtbhDHmIRHFvFe5BTdYio0D8vSY10iWuNEcK7qxo4JeoHD2gd7ULlSVM1vJGDHntCq5v0pniOqoM1Nfqrhx1DXKEpoGZlGKVD1vHfh+BE/pb6qphBCJQ8LRRX4tAgme3X2PK52iKCaPENPGy5eClS6tPJzPF92itJ0Eu59QE8H4RxJ0Ngqm07a0RxCYBNFm5jrCDrZHof8D0Vwog/Lf9CFmsl6gbZxXjc2LepFQnsittTGo1QUNgdnLjIm6afBPJDsaBt0KWcKpokfsjqsBtZ7Hka7pV0Xrn6pnxJR2MRcaEot10Rw7k3Cmb5bmP+wZXA7bmPZrD70XEpEWV0ctlkXDdgxNLfpp8GoEtwg1F/GRfHD087pfHg6iohoqMRkaEot3WOxvGY8TjpSqqclCWUfxaHyjp4RBqo6albBbeYiNyvJW3VXoRegCl6UiZn+qso2RjV85hyzjZSIhlvMhqbSezdyj1lGsN89Buvqx2JHGANT2rd5t9Hj7OjBLi6X1eYL2OkpAdaicO8FJGcX4oC100b2iK+SHUTWjht/Aak7aTKW2rcXist9e899qJ77gf2V0b5L7e46h4hiVGyHppMIyxb9NLxEmD1jDv3xtjWqMYjOcZpV5d4hRua6xVm4KKrc9mFB3oBU6+jhSH63F4/81no/HVFhVFVvjAQolq/HoUM0esXU4HYioqE2ukqaRESDxNAkInKBoUlE5AJDk4jIBYYmEZELDE0iIhcYmkRELjA0iYhcYGgSEbnA0CQicoGhSUTkAkOTiMgFhiYRkQsMTSIiFxiaREQujK7QFGebqp8O1JbX8nDutTQ9NYIKF+HczhX4YImeDrORPM91L64Q57YIW/Q0USSJ7dCMv4O6uZa7p925jcqcW1jL8jURDVDMxkdq4i3sL7iB2Y575iakdmHjij6sY3CGx5I5ODmEJV6iSBOT0ZE6oQ97VnXhobix+ORzy43VMAYHTsUhYWo3Nub24XnrIiKiEMRcaM6eKALz8W5MRhz2/yoJBa16gVb2aSJKj8SjZ2I3NuT1YlO8XkBEFIKYurHa4sm9qPx+D1J641FTm4Dnu/UCP5aLdbepdROwqyYeP+nTC4KQHSSr8RnS6u7ByefuR4qe3/Hpx5j95nU9pcmqq2UddH6FTT8+gUo9CdyDD955DIutTQg+60hp2L/zUWTqKaANu+qA1blJOPzuR3jqkJ4tyE6U0nnj9JTvcXmO/zczcC53kpgj9rXmCDYYiz2Cn6efYxfM5b6vI93Ux+s4n7NivVfP6QnzHLr8HhfRSIupkuasqbeRclsE5p7+A1Pa3xqPJz8WxczE20j1Zkxo0h/FuULg7TW1SJOPujakzHsM+8U8D9m7LcLmSp1eZ83HOIz7UfrOHKzTq6BwFuac+Vgvl4/P0JQs1rH2Wqs2w0dxnwgjz3oqMM0g8pJBZYSNXu/drwBxXCdfvEevoU18CCe/e17vr59g6vc8r+OpHxuv0aHC0FjH9sUht/e8jjj/znFYXLhCnM9DuKzXV9uL9XyOkShCxVRonro0Bh1jelGQ34NtiXpmALKk+cvHeoHuMWi5qWeGTJTOrKXB6lMiEIDM75phJ0phS0SoiRLU8mo9S4ZMtQgIEYqrzXCtPuIonZ7Drk/FwUy8xxOsW3JFKU/sx7ae2G6TXM9KhOvj6UBTnSUED53A22K9lHmz7MN3krvwoaVkF1iw8wxGbO95HXH+h9rEa4tvqE+PekvH4hg/PAukPJTm/TIhimAxFZqHZemxLhGtcSI4V3VjxwS9wGHtgz2oXCmq5jcSsGNP6FVzj7PnHaWz62hpFz/MsFuShjnJovRV5wimQ9dxRfy4b4q9VCVLiOd2Gg9VtU5O1lXXNCyQQfgb34CrvGxvnliXfR9SRNV+lyekDcZ6SUi19m53dqJJP+1XsPMMxrn92U5RKgWuXLZ+URBFl5jrCDrZHof8D0Vwog/Lf9CFmsl6gbZxXjc2LepFQnsittTGo1QUNsMuPRkpEFXR57xhaDys7ZLmIG7d9qerwLYS5JJ7cJ9+GkzmJBm2ompvez3x8FONR/t1R5spEYUq5kJTarkmgnNvEs703cL8hy2D23Eby2b1oedSIsrq4rDNuiicVInK287nfKiqtqhO/5UoVTbJNs9AVWVdMg1FU5sIW9mJ5Of10tbYO4uIaOBiMjSllu6xWF4zHic79QytpyUJZR/FofKOnjEUVNiNw5xst50b92DZQ9Zeqeu4HKANcct37SVIVQ1Pvg/LOMicaEjFbGgqvXcj95hlBPvdY7Cufix2DGVgKkaHjk+Puuwgek33nutSpDUQ1724wDGER3eeOHuXCxdhdbp+blKdNLJJwPE326JEuz9oz7QcPiSq8tae/VAN+AuCKDrFdmg6ibBs0U+HWuWbH6khOpm51jbGxzDlN2Zv9Dks18NtzOV/haO+veLVRzxDfTz7kcN4xDw7YwjQrrOTsNpcTz6eS8ZRWw99uHm/IOTrcegQxbqYGtxORDTURldJk4hokBiaREQuMDSJiFxgaBIRucDQJCJygaFJROQCQ5OIyAWGJhGRCwxNIiIXGJpERC4wNImIXGBoEhG5wNAkInKBoUlE5AJDk4jIhdEVmuJsU/XTkTUXb723FUfL8/Q0ScXlI3dNVr5ShqM1JSjW00SBxHZoxt9B3VzL3dPu3EZlzi2sHaqzznkWB2q2orpITxNRzInZ0ExNvIX9BTcw23bPHSAhtQsbV/Rh3egqY8cW9eVUhrdy9DTRMIrJ6Eid0Ic9q7rwUNxYfPK55cZqGIMDp+KQMLUbG3P78Lx1UTjUb8eygvUorNLTRBRzYi40Z08Ugfl4NyYjDvt/lYSCVr1AK/s0EaVH4tEzsRsb8nqxKV4vICIKQUzdWG3x5F5Ufr8HKb3xqKlNwPPdeoEfy8W629S6CdhVE4+f9OkFQeWhumYpZuop6fReXbqU1cbiLFw0pzXZybApO0lPAZ0NB3E8aykWtx3EgpJaPVdy7vsCdhaUo0JP9Uu9djqOV+wGigqxOEXPbzZew34MXThcsREv1OtJkz5+T4tGRyNKn9mOfXpS7SPrrJh3GU9bj1O/hkF2conX9zk3o6NnzST7Pq3Ucojt9kyxHUdnQzWWbT4mnul9m+emmcs925/IxNFV0/VS81wd19Z2zOZ71B769aZRK6ZKmrOm3kbKbRGYe/oPTGl/azye/FgUMxNvI3WcnhmU8cGbJj6kC0Q1XD32XtDL/JMfZOPDqNcvqDYC0/HBN9rp7Pve2Twda1z16CZhcfETQJXl2DKW4sB7IhAmN1j2K9dz7LeoBEd14BvrVeMwsrDpvWexUq+ipIh5NZn4td7XgopGdMrXeGWuXmGQxL6OFgFvmPsX55CcXag7147hhWf0a6owNNYxAlWT289p8p5DhzjXojJxbbNxVa8f9mOmUSWmQvPUpTHoGNOLgvwebEvUMwOQJc1fPtYLdI9Bi+NW4wHlTME08WE9fsTyIa0qD9yGKYIwP0N+uK2lF/nBP4jTespUnC9KVqJk94YlACpK5HrTke/iw93ZsNtbgqyqF6EBJKeI0LaUqir2yNCZjoWeXn5RgssRJTNR+vKeizjOKrGeCMmnbaMBHOdTvx17msVrZM23h+uAidK1tSSqz2HmnFCHIontPecqzqFefHGkiBK29bqE/ZhpNImp0DwsS491iWiNE8G5qhs7JugFDmsf7EHlSlE1v5GAHXtcVM3rL+OiKs2FVvpbuShdBOFZ1DmrwTiPqyIIvPKwMENU88WH2V5tNdZLnjxDTRljCbfaHvbhTY5AF6HR3CZ+dHSi0ZjhX858PJIiwnCPvTptnC8wbaoltP2cT2NrlwimZFEuDYPmJkf1WJ/DpCmhBZxz+y87xRcEcPGS9boQDVzMdQSdbI9D/ociONGH5T/oQs1kvUDbOK8bmxb1IqE9EVtq41EqCpuhq0WhqvLJarO/0LLLmuxtx+yXKsGK0tQqeyAerbG33+3bvFFXO72PsPTUP5CMZPVl4Hx9e9stEcVgaEot10Rw7k3Cmb5bmP+wZXA7bmPZrD70XEpEWV0ctlkXhUy3q4nAKm3oUkEXqG1MlcBCoUt0skPJGYrq4ehQCTtVGvO2EToftjbDoHTJkChGxWRoSi3dY7G8ZjxOyrqZRU9LEso+ikPlHT1jEGTJb6dsG9PVZ6d9l9pFtTUduc5B2Ko6rJ8rRjU89Ha7MNPNDo8sCmPHiE912miCIIp2MRuaSu/dyD1mGcF+9xisqx+LHQMNzJxnUW0rVRpB0Nl6Xk87qE4MZxvoXLxVZBnWo+gOCz89usXlw/H30LV4X5Savb3UJnGs5Y7e8xBUnJCdL1l4yXIuxeXOqr4cPrQVR52986EYipAnClFsh6aTCMsW/XSgpolgsbb5ySFCgauvsipvbwM9WiOHBMl5ehVTVbkaCgPb/rciv7V+WMYNqvbSvRcc7aqFuPeE/zGV/RLnIpsuZAib+1p4Qg510ssHzRvyct8cOkTDKaYGtxMRDbXRVdIkIhokhiYRkQsMTSIiFxiaREQuMDSJiFxgaBIRucDQJCJyISpDk2M0iWiksKRJROQCQ5OIyAWGJhGRCwxNIiIXGJpERC4wNImIXGBoEhG5EH2hOW4+Nv/sf+HtvDQ9g4ho+ERfaN48hSNfAfPX/M+YCs7i8q0Du/UDEQ2rKKyed+P/bKnA658Ywbn1e/a77RARDaWovN2FIRF//P8W4+Vs4D+2/xTr/81x20kioiEQxR1BosT5/4kSZwPw3579C5Y4iWhYRHFJ02Qpcb5TgfX13Xp+6Fa+UoZNWWdRWgW8VOy9ve7pvetRWCVvNVuIxeZ9yjsaUfqM9w6NatvsduwsKLffNbKoBEdXTcThio14od6YZaybZExIln3JNs01k+z7Nm5za3ltqfkgFpTU6gkiGm4xMORIlzj/ow/zf/wX+Os5erZbKVnYVAS8UbAeC8RD3m525qoyHBChdW+9MW9BwUGcluuV5+mNQucNV3Nf1Tjcphf6lYfqGhGYEEHq2Ua8vl5KRCMjBkJTGDcLOQ9PRPy1q/jkCz3PtS4crvKW8ir2NKITSUhuOyhKm3qmvt82MjJRrOeEKmuyKGE2N1lKo8fwQknge4oXly/FTEepVr5+IUuZRCMq+kNz3HxsLX8C/w2/xZuv7MD/uannu9VxFnW6Gq3UX8ZF8aOz9bwxPUiNrTJsl+LAK3P1nP7kYWGGeO3GTwKGKhGNjOgOTUdg/nO/1d2RtW/zRizYewHJ2YU4WhNkTGbOFEwTPy5eOmZME1HEiN7Q9ATml/i7rSMXmPsutetnIagq97ZNyrbRmhL/1XxdyiWiyBOdoWkLzJ/jgzN6/oiZiIwc/VQrnjNdP/OnFoUVss3UdzvDeVztAGbOcd/hRERDK/pCM9ICs6oJp5GExUWW6nZRCdZk6Odacbm9VLlyUTqS0Y5mazuqxzG8UCVCNWMpjtp66vNQPYCeeyIKn+gLzZunUP9fv8GOiChhSrrUqKrbW432yjlNqv3SbjrWmMvFw+/YTqv67Vgmq/EyOD3bLQVOsPecaCTFwOB2IqLhE92950REw4yhSUTkAkOTiMgFhiYRkQsMTSIiFxiaREQuMDSJiFxgaBIRucDQJCJygaFJROQCQ5OIyAWGJhGRCwxNIiIXGJpERC4wNImIXIiJ0EyNuLNIw/6deTj54j16emise3EFzr0zB+v09LBaMgcnxTnuL9TTRKNE9IXm3d9gx//dZwmKb/C3/60XG+P15ACo8Nm5CFv0NBFRINEVmmO+wa7cr7F8ip42TerBusd7sWkQwRnbjJIvS4VEgxc9oRl/B3V5X2PxxLvRcmos6vRseceOulPx6Bnfg7UFPdiWqGe7UPnmR0hbcwQb9DQRUSBREZqpibewP/8GZo8fg5P7x2PRF3ehRS+TdnyRgHX/moCOuF4UrOrGjgl6ARFRmEV+aI67hV+u6sJDcXE4XDcOuc6bPGr7W+OxsiZJhGkflj8ugtNFH4xPm6bq5FiBD5YAW17LE8vMh/92T/s6/VSDdeeJZ11LJ45xDM5t78EH79jX88+ofnv2+1qanm8e26PIFM8zc+3LPR1JjuMyjkG/tjl/pDqciCJM5IfmpNtITRiLT/YlYnW7nhdAy42xWFSXiI4xfUhN0TMHbBwWP5eHBb+pFVV3+fgYhzsnYbUtPIxgWT3xK2xS68jHZ0CuEVI2hYtw7rn7caXOsj/cj1K9P9lEsOusCDYRYN4gXYDFyW3Y9eMTqNTzfCSLfeycgaPm67/7FTrSH/X03G941TimJvG8yXztV8+pZYrcXoTk23p7dQy5K3Dynccw5ZBeX24v17OEMdFoFfmh2TYGLT23MH9lN3ZN1PMCSB1/C0dyu5FyOw4tHXrmIHR8+jGWV+sJXMdTh9pEyNyHZaIEqhTO8hNq57BcBpeeMohwXTIJOPuZfX/VYj0RRqt16XLDq0Y4/ZUKvDSsnjdOBF2wttabOPyuZZ1DJ/ChCL6Uh9JCLBmK7au9x7+hTh77OKS0W4/1HHZ9ehNIn8ERBjTqRX5o3hyLJ/cm4UxfHxbn3kTddD3fYfnkXuwr6EIq4rD/w0Ssva4XDNhNnGhw7ORspwqUKenG5JbvyiA87xtqh67jin6qLEnDnGQRTnWWEp6k17tvitmWIAK3rg0p82Zh/2uitGoL2QA6r+DAIf1ca2oTAZec7Fva9ce5vT6mjrZBX0CimBQVHUEt3WOxfM94nLxxG7OX38CRB78R4ei19sEeVH6/Byl98ajZKwLzml4wpO5BapCSr0d6MlJ0dd/TRqgefqrx1UdEFXkSMtNFCdZajSaiiBAVoan03o3c2m/hcPsdpM66hVw9Ww5uz53Vi4QbCdhRk4Dnu/XsIXcdLUHaWD1UCVVWo802Qvtj9puWUl3hIqxOv4kO2X7KNkSiiBM9oSndvgur676F/Zf1tKktAZUfxqO0V08PE1UN9tfOVzjDXoJUVd5xmJMdrEs/DftzJ6Hj06OYLds70x/lgHSiCBNdoSnduQtr/zPO0vFyF37yH/EoG+bAlCrfPIMmOHvUjeCzMzpSUuY95juk6DXvtltkO2bnV3hbljwPncDbYpvMXHOYU6jDj/y5jsudQOZ3WXIlGqzoC00/Wu7oJ8PuHJabw3E87ZRy+I8xxMdK/dVRXZt3rKR6PIYpvzF6ruV4Slktt/Zk+w/lgdA9/6Lkql6X1X6iAbsLM3K+eXBqEr641KVn9S8S1iUiGikxUdIkIhouDE0iIhcYmkRELjA0iYhcYGgSEbnA0CQicoGhSUTkQsSEJsdoElE0YEmTiMgFhiYRkQsMTSIiFxiaREQuMDSJiFxgaBIRucDQJCJyITL+P828H+J/r5yqJ4K4dhpbX92N/9STkaa4fCvWTGpE6TPbsU/PI6LYERklzelT8fAfpIb2mPkd3Ks3iwYrXynD0ZoSFOvpoZWH6pqtOPDKXD1N4TS87yVFqsgIzXdfx+zv/Xlojz/9KX6lNxvN1Af4vWexUk9TOBlfPtVFepLIgm2aQ2zf5o1YUFCOCj09tGpRWLAeyzYf09MUTsP7XlKkiozQfO5lnPy3n/k+/ukv8AO9ChFRJIiMjqDsP8KrC523vRW6WvBB1RF8qSfdmYu33ivE4hQ9KXXYO2hkFXdT1lkx7zKerlmKmXo+cAE7bSUKWV1bCuxdj/enim2yk/R8oLOh2layc3YEqdfIbnfsTygqwdFV0/WE1IXDFRvxQr146rMMOC1eu7BKPMl5FgeKs5BszNbMbY3jnOY4Jr/XovkgFpTU6glB7Tcdx8V+mvPFOWTo+T7XwiHgdpZjVrzX8Ndz9Hq2YzCWe98D32sb+vtlMK59kPcK4hhOZOrrfQGfN0/Hw5ZzUPRxBnov1X4Cnrfg834GuaYU0SKjpNnw73jtp7/0fQw4MIWiHDzSWC2qU+v14yBOp2RhU3meXsGUjpdqMvFrz3rVONwxHWv8NPhPyynDS9jt3efeC0jOLnTd8SI/fPJDJD9c5r5KG9r1UhFwORAfKuuyLsxcVabmo347lul56ktAraPD1h8ZajUiMNvEB9+zT3EtMpb6aRNNwuLirVh4wlxPX4sQ2k4fKbJuZx6zb7ugvIae9czAlKGiw97cfkFFo/gyLcTRAb5fMsiMgLPvz+e9mpSNA3Oa9L7K8XSJ/Cmuj1jkeX+sXy428stIBKb8kjRfR/xO2M5bBeZE8aWml4vHzma9jKJSZISmLGn+xZOhPYoW4QG9Wb+qyh2lrVq8L4Nm0hR7AIjS1/EK67f+MbzwjPzQTEe+4wOW3NZg36d4DRkOydk5ofeoihB7SZR+nKWRfZvLdfDJ17eXQvZtbhDHk4R7Qzpxu+J8USp1lipl26cIkU7xJfK0I9Rkacx7XOJY6i+Ia5SOXBnYAYnSnPiCsp/PRhUOM8X5Wq+3vIa2Upj6kpjuUwpUXw4igJCRbXxZmEJ5v8Rr5ouS3+m9lvXE/t7w916ltGNPwFAMQnwxL04Rpfwqy/Ay8TthPe+VUyeKL7ezqLN8qVWUsJQZzSIjNOctxFMFS0N7PD4XD+vNQiFLHEdrjIeqqqUkI0svUxy/0IbzuNohPuCTZ+hpw+kTvh+ufZdkCXEiMvoNFa+Vi9JF1foCfm0LDj9UCdE8dqMqOm2q26FEeVgow8PPcaP+ExwX5zhzjrUk14XjR6xfNMKXnegMGth+thMaW8WXlON6d7ae18+0nPl4RASPv+1R1aS+LB5ZZDnvEN4vdY1FKfx9xzX2+151dEKUQQekeI6ocjc3+JTyreetXtNvDYeiVWSE5hAMOVJVYBE4qs1KV4tUlXaEZU0Wwd3vB9UY7nJUtROaVTqjuuhazhRM008jxcVLjnB8INnRPjt46hrLoPJ86eiHo51Yabs8wD9CmIsM2Qwvmzkcr2NtR5UlT9k00OlZj+M8o11khGa4WarAgdujgvMpFQXUjmaf0o9/qhTSj+JyUapUbZX9tFOGqv4yLuqnIyZYSU6VZMPDfL/UNfa09zofYbiuyjE0t4kfsunD7+vYmwZkO7S3/VW3T1NUiozQDDTkyHyEZejRXORmWUoAJn/tdarK6FsqsldlDaqK5qKKZ1TXgrUROhRl2nqVQ2dUW/0dt3mOfqvurjmq0Iq+3sFKcirY/W0vqPN2VN1DeL8GdI0HQIVzRqaLkqPZ/jqw9mmKDJERmhcu4fPftgR+nP4drupVQ6JLWNawWPnKE/YhNx5JWFxk7awQ1WM5pMdPm5isill7g2UTgBxqclqUJEKu4qmOAtlLbS9trHylRE0b7WHWD7w4Hj/VytCCQXxIq3TV0Namps9RlJLsnTLBGc0eviWl5OwnbPOKy+UQpy4c3hMslGtR6G8UgmzTFefd2bDbUTIM4f2qqhclOnmNHVVhsc/qkEY69PNlY2F00PkZXVBU4vk9Md9XD/1FcHXAw0JopI3VP0dW7T/gv4ejwOMhe4en4ECxbEdaqubI3tnShiewKVtNeslqXH2yav/apGf5jGHUTu+txtUc2TamZ6jxketdV/cqStajUY75Kxb7Mj/V8jg2iw9i/UZklW/FGs8yOabvICCH5KgVNRkMOSKY1HqWMZ5Osmqox2+a10KS12OBbXTBYMjXb8C91vNxMxZRtvt9Kcd7FopjLNQz5fV2jHeUQnq/ZInumDF+Uqy3Rs81jimUc5ajBnLE+6yvWYDfB/V7VnBejYG1HY88xmf0c0zU75GeVNcqXE0ENBIiY3D7CFGDldVg6WAlRSN05MBstyWzmCdLhHpw+1AHQejvF9HQic2OICKiIcLQJCJygaFJROTCqG7TJCJyiyVNIiIXGJpERC4wNImIXGBoEhG5wNAkInKBoUlE5AJDk4jIBYYmEZELDE0iIhcYmkRELjA0iYhciIy/Pc/7If73yql6Iohrp7H11d34Tz0ZiPq/F/3c2D+iee6Rrf9vyiH8vyrVf9Ar79fN/5uSyJXIKGlOn4qH/yA1tMfM7+BevVnEkaFXs9V+2wZB3UbYeUuE0cjv9ZH/wXOAaybmmw/n8tHMuOUI72o5UiIjNIfgFr7Dby7eyvFzi1jSQr8+qhRsufXyAn/3EBoVjC8U632paOSxTTNcinIC3LjNuCfQgtFeDQ54feR9dtZjmfV+RScc9+RRN6MDkrPms7Qu7Nu80X6LYBpWkRGagW7hG5Zb9w4HoxR1eq+8PSv5cnd9Kqp8b2Jm3KUzGVl6mmikRMbdKD/9NT4Y4+eepl0t+Fw/DRejg8h6//MAd01UnTBZSNaT8g6DOxvTscZP55K6PTAaUVoFPO25U6WX/04X42Zt3vuZi+PYq5/6ofaRoScEv3dq9NmncddJWymuXyLc3pO33tWTUoA7MTqvY2fDQRzPWorFbb7r9399jGOe5uo4fXlvunYZTzuvq+39Ml5P3iTv13P0NbWdY/BrGPprGXyvlX1/nuaIE5k4qm7XfAGfN0/Hw+b7vWqrcQdUfZzG/nx/D4P+jqiORmsTSYDffepXZJQ0G/4dr/30l76PqiMI3+2hZSBs1b9suq1MPHaKX841zvt4y18uEZgXxS+duV6pCkxr2GoiXF/KBg5Xuah+y0DWQWHuf4EIzDV+7m8uPVK0FQtPWI6loQszxQfJ1tal9zlTfrDMfVY0qvu/h0RtLwJThp65fYEoGcp7pjs6seSH034dq43A9Ff9Hsj18TEXuVni2jc3BfmAp+Olmkz82nJchzvk++vbaTItp8x7Tc3AVB1VjvdFXENkFzruGy+F9lo+10rvz6d9dlI2Dsxp0vsqx9OySUdef7FIhp+a7+fLy2D8bqsvZvN19l6w/46owJQjM/Ry8ZBNHuReZIRm9h/h1b94MrRH0SI8oDdzRbWp+X6zVpTIX/YkLM43PxRGVVKWBqzf0rIdyfeXTKxbJCqMDbtdDQkqzhclWBFutpJVVbkKQ18iLBr9H8tMEUhGmBnHIfdp+2DVb0dhiKU385jsH0x5//hGdKZk4WnzwydeMz9D3rvbeh3lfcb9Vb0Hdn2cistl6Ve8dwFDQxOhfdzvcU1HviOkktsaHCV17/tue1/kfeNFACEj2/7FGsprqWslQ8+yntjfG+J9Ts7OsQd5Sjv2BDu/QNTvtnhPrF9Muh3Y/B1ZOXWiqC2dRZ3lfagosX8WKDSREZrzFuKpgqWhPR6fi4f1Zm4UzxGlOL8llWOoaxRhlZFp/BLnzMcj4gNx8ZJv2Kh2NQv1YRbVzjdCDCZDHhbKD9IJ3w/Ivkvt+plVF44fCXAsZhufPmZ/+wxN4GNC/Sc43iE+fHOML5WVi9KRjHY0+4TgeVwV61kN7PpYyaqyrHI6QzoARygYjONKnjxDTxs6W8/rZ5q6hv6vNaqaRBgm4ZFFluAN4bXUtepoxPu2cDbf54nIsIZwR6e4UgNj/G43+HwxWX9H1GuKL79NPiVmcisyQnPIhxzNRcYk/TSYB5JFKHTharB2AVHdUR9mt9XOnCmYpp+GTajHHIiLY8qaLEq+oXzAB3p9TKKEpJobROiUFoR/cL/Pl6K6huGlrpUMKst4U/Xw1wzTdnmAzRf6d1s2ozhex9Z2L0qesmmg07Mex3kOVGSE5pA7huY2/TQsjKqcrDovLrb+ohqdAnJM4VFnO6mp/nLo7YzBmOH1ZSc61YwBCucxKYO4PpJuU1bNBWEaquVTsnQa7DW0MF9LlfRU6HvbEb2PcH0R6N9ta1u27WFvGlim5pntr/28BxRQZIRmoCFH5iMMQ4/UL7BZBbdxdDL4q4opej1Ftl85fznlw2jXk+1igT8URhXOrO5aqWqWj36OxSydqNDzt16oAh+Ts+pfceKCKD2lI9f5YdPrGQZzfXTg+rSvhqCf4/LX3GLT3zUsyhRh76i6h/BaRpXYz3phFvh3OxCz/TUJ9w6og2B0i4zQvHAJn/+2JfDj9O9wVa86UPs27w7Qu+nsZKjF+6qhvtDWO62GzXhCYTDEL2y97FhYau9BVdVZ/dwhOfsJW4nAOGZR9d3jPeZCf381I6q41WpaBNF7oqQX8E85xTFV6aqbrc0rD9W6xOfpNKmqNzrOiq3XUexfdkTpqUHRbYvec/NPDrvxLa2K4yqynqM+fj/tir4CX8MDojrd6dOZFcJr+b1Wgud9CaafLzOLfZsbRACK323n+yt+p8zf4ZWvlNivlf4iGHCTzigWGeM0a/8B/91locI9+e16TATOVhGcclycpqpP9iqg7J2GHAtnjo8TZOmotOEJbMo2pgdFti9BDgGR1dRCY54sWe2FGhZiJztBGnCvrOZ6Pnl+xtfJfX4pPuDFln2qbbeLnyF8QGXVrd4Yoyir0SZVKrR15MjrCDWe03sd5euIKl+R7PgJB12t91N08undtpLvZX2yakPcpGe5KrH6vYay99vPmNiQXivA75x6/4KUfBX5BZsjfif0exLwXORfVZ1X74nteOQxivfKMNFxTeV7Fv624tEgMv6XoyjhHdTsrp1NfWjk4GW31c2oIkuzhXik0e0gdSOo5WBzn2ByYaDvzUAM52tR5BklHUHh4GhHDJnRuxm0IyLahdp26KR67llNpOjB0PSjuNy3VzHkAdZOeuCx3/F/UUmUDH3aRnV7nrXtM0RqUL3fMY9EkYmh6UdjKxxDZUT1Wv2JWqh/QaE7XuS21v9UOCacx1U4xx7qPz0M9QtFjcE0tuV/hEzRhm2aREQusKRJROQCQ5OIyAWGJhGRCwxNIiIXGJpERC4wNImIXGBoEhG5wNAkInKBoUlE5AJDk4jIBYYmEZELkfG353k/xP9eOVVPBHHtNLa+uhv/qSeJiIZTZJQ0p0/Fw3+QGtpj5ndwr96MaPDkf4K81X6LC6J+8H85olHD//+4bvzP8fK/tnP3P87TaMU2TRrl5P111jMwKWSREZqBbuEbhlv3EhGFU2RUz7P/CK8unKQnLLpa8EHVEQzk9jGeqlgV8JK8FYOeb9xZ0LgJmOeWvOqufb7/e7i6IZrltro+dyUskneUtN6r3HqXSMdrCLY7Kfps6/+uh+o8ss37rct9HMTxrKVY3Oa8UZtRzZypp/zdsdK5r0Dnbe5L3uzs/anO17dXY32vs/0uhz6v6XNcob+WIch5yv8Vvjgdxyt2i2tsXP/OLy6KX8ZpjlsMm8cZoHqu9uP9vfG9VkHeX4pZMdum6fmwWn7ZjRDsQmdHEi7WmwGlP4S226PqDwQsHxQdcp5gU9P2W1kUl5cAJfIDrLe3Bpu81/WiT1CoPlRyeQ6an/F+2I3jhWN/8ngDBLH1ePUHHJYPrXNbY//t9n2Vz0ddSeDQnNYh3rvG3d4g0NfAGg5GaIrAwFm84TdU7KFmvgfe8wz9tUI5TzM00QEcr/JeS8k41hDaNJ3vtXkunt8HPR3w/aVYFhnVc1nS/IsnQ3sULcIDerPgxIezyvsBqdjTKD7cSUgWv+zeEl0t3m8QH9iMTO8N/fXN0Kzbynti72wGZooPh7yp2MqpE8UH035DsAoVmNIM3CuC7fQJS0mwfrvlAyXvh+0NEsm44X8S7jVPTrxOvgoX63pyu4NiPTvj5mSNeMPyga0oketNR77uFc6aLL5Ampvs+/IbmF7JbQ3eIJHENSgV1yo5O8d7rSRxrset10pS19BRChQqSqpxWHxpLc7P03MMobxWKOdpEOcqAtgamKETgZgjagC2m8SJa1UlfndSsvB0kZwO9v5SLIuM0Jy3EE8VLA3t8fhcPKw3C8p5l8P6yxAVtaC30y2eIz80DT4fusZWEa4pyRBlHey71C6eZ2FTuf3DbziPq6KkM3OV710tbWSpyHJzMlnlnDbV+PCvXJQuqobtaPb54Bv79srDwgzxARYfWnsAGuslT56hptSxZyx1NbTGFgqaOm9MRIbtvHyP07iG1pA2HUNdo+NLSgj+WqGdp8n1rYRN6lbE4stqj+N49O+O8f6E+P5STIqM0Hz3dcz+3p+H9vjTn+JXerOhYdynXAaM926LxsPWNidKQgsqROnDs16JJQRkiXC9KJmKEpW+q6U9rGSVUMxXbW/rsaBAPuwlSFUy7OgUFcIg1H3D5QfYe5zGQ1fjtX2bN2LB3gui5FZoLPe5De8g+BynvobhFOJ5GgZxH/UHksWXlfd98z6s7ajB3l+KZRxy5OMYmtvED9lmqMLM+bBUN0WpZ5maJ6uc07Gmxl7yqCjR25hhpUulxeXiAyjbWgvsbW4DoktAsv3N91jFw2xzk2TQq/kioGUp2Rb0bvgrAVvpaxgW+rXcnOdgfNmJTtVJ5Oc1xMPahBDo/aXYFtlDjszHMA89Mqqy9upj/8y2RkubpJVun8OkKYFLd0WZlpKM+ECeuCCq/+nIdVb/VPVRP1d0VXGOmw9sLQplKdmnmm3nb5+q2h1CCTjwNZyL3Cxn+2oorzWQ8xwAFc5JeGSRi5JjKO8vxYzICM0Ll/D5b1sCP07/Dlf1qsPB6JQRJUdnFbaoBNWqI0D2xJbY27NU6JnVQlH9tpU6dFC0XVbtcUbbqDUQxfqO4Ueoqjc6TIqtpcG5eKvIMgxGEYFdLwLWT3ul7M03t7U+l+xtprq5wFlSEvs0z1eSvc9yCJZvu6KvfZt369K3/XWLy3WPurNkGPS1QjvP/hjt0H6+iGyMjkFZcrQej7r25ebvQ//vL8W22B5yFOKfzKl1bcNxJD2sxFqqswxfMraxtHF6xv3J58brWEuOtiFCgjFURk+osYZNWOhzbM5jkK+hxx86x2mqoTb2QLUO17G/nmTt2dbH6zlGYxp7q3E1x/n6oQzj8fJ5Xcs1NIT+WkqQ8zSWy7Zif00f1utp7t//74Q57MjKOwQp+PtLsYt/ex51jA/+I42OD3lYmUHmO9g+/IbztYgGjx1B0Ua3aQ54SA0RDQpDM2KJEpjPsCAxT1ZNbQOviWg4MTQj1nlchRwWZIwDNMcKyrY3tp0RjRy2aRIRucCSJhGRCwxNIiIXGJpERC64Dk03bZRszySiWMOSJhGRCwxNIiIXGJpERC4wNImIXGBoEhG5wNAkInKBoUlE5IK70Bw3H5t/9r/wdl6ankFENLq4C82bp3DkK2D+mv/J4CSiUcll9bwb/2dLBV7/xAjOrd+z361moIr/sh5H/7JDT4VTB6r/th7Vy/UkEdGgAP8/SP6069XhtOAAAAAASUVORK5CYII=;" parent="WIyWlLk6GJQsqaUBKTNV-1" vertex="1">
          <mxGeometry x="-470" y="-210" width="173" height="282.62" as="geometry" />
        </mxCell>
        <mxCell id="OdEKxOvV1YU56GnAyZDW-8" value="" style="shape=image;verticalLabelPosition=bottom;labelBackgroundColor=default;verticalAlign=top;aspect=fixed;imageAspect=0;image=data:image/png,iVBORw0KGgoAAAANSUhEUgAAAU4AAAIbCAYAAACE+HewAAAAAXNSR0IArs4c6QAAAARnQU1BAACxjwv8YQUAAAAJcEhZcwAADsMAAA7DAcdvqGQAAIG0SURBVHhe7b0NfFXVne/9D6EIlBM1L0UTJQ2CRC2xCElb4CnBPm1JW4jXmXp1Er3TjNf23sfW0NrSUnRmFG2pThM6zjjXa9M+klQ/zq2Xl2mhnacS5hLahiAaqiZiyUQggiRBcxihKOH5/9fLPmuvvc85e+eNc5L/l8/m7Lez91pr7/3b/5d1sjLgivLz4MNVl02DPx47rZYSk3jfS+Gu79XCbfA7+Op3tsMf1Nq4TJ8NX//r/wLlb2+HL3/vd/CmWj1+GYCmR14A2F4OVc+rVQzDpDST1OcochJ+9quXoffKpfD336uAj6i1vijR/LOCt6B564sTQDQZhklHxsDilMwovwV+cuf1kHt4dxzLcxbcveGv4DYUzZ9/78fww5fPqPWJWXHry7D+6lxY9zTAmrtehQjkQcsT18E9B2mrtObmiT2JImj8ZiHUqyWYexx23tUL7bh/12ebobpQrUc6fS1A+3gA0X2LYfkzU9QScRY23r8HlkTUImLuU3s3nif7Glj3wEwopnnjnILuG2DRY1lqwXss93bEqcNcgNvkvtGDV+P616DHpw6ivRbOcLcDwzChGAOLU3Kq+Vn40pMvxbE8hyaaMXphzW0AG75ZDou+qUSTBAVFLh9Fa5FYXw6N3V1Q/Ug31MovOZTc1gylr8h9aFq3Lw/mVTRD041qB+LGbmizjrfoiWsAFu6BtrsH1E5K6PpR3Ix9etRWm/rHaJ8boBPnSajF/loURfmtY9G+hS9A2/3HYYXcy6HkNqz003K/5U/kQnsUYN61ulyaAbh94QkU8stZNBlmGIyZcBJCPH+0D3pc4hkTzaf/9h+GIJoIWlntT8+EHWqRqP0sWp/Ra2CDYQ3WP0Yi1QWVt55Va4gTAK8tdllmO565DkUWhWepFigUxKVdXuvy4ExYvr0IoPAwbESDD+AM5GJZOl8xLELcp8plkQZDlN+2LiELqlCIo5FX4XZT1EUd5iorm5gC9+w2y6W48SRay3nQvi98eRiGiTGmwkmcan0OvuyI583wHUM0H3Me/LDMgC7XdwegFF3gzt1uMQWYCr1oiUVyTXH2F5KO3jzc8QwU08Lck1ASiSM4z1+KYnwCShaSGMvjz6t42S1YoVHlNwVYc/BSX2uy5y2rbK5ySWqv7UJX/0pDYBmGGQpjLpxETDwXwhcuG65oItGp0KFmBXNPQz5+kLvd9og5WfHCoFx5hozaAKCl9wCFBE7AkrvkOXe6rNuAqPIHJw96D6tZhyzYi1Zz5OqTympOIMYMw4TigggnIcRzzf+AL319mKLpx8FpIq7oxA3tyeX+JkAL8uGpgEZeYGTsEid04yOuGGhAVPmHS/2vyK3vhQqyfoWbXgR7ucsTwwybCyacxKmjb8BrfWphRFEusyc54ofbnZWchYqrTwD0T5OuvhAyv/2QRHHD5wtFogmyT3uSOYlJUH4RNghoOQq3nso9oGK0nBRimJHgggrn6KGTIy94XOXau71Z9cjCg66YZO3d5NLnQcuvtDhlQZWyHl3Ho8x3BQmSTswMQJPLurQE2Bc/kcTyP43WImXQXcfD41OXq+4bAnaWnwLbX8tDd/1w/BgtwzChGbN+nKOF04/zATsRhIg+jtS3M4YrM+70gbwScu9K0N9T43M8d39Pbz9Pu9+l2Y/TKS91dUIBFrj2D9Bv1KmD7rtqo44Rtc7JMMyQSXvhHBZJRWc8IIWTf9LJMCPHOHXVGc2KWw9zUohhRhgWznEN/1KIYUYDFs5xCbnn1I9U/kTU/Vt6hmGGy8SOcTIMwwwBtjgZhmFCwsLJMAwTkjEXTnLrGYZh0hm2OBmGYULCwskwDBMSFk6GYZiQsHAyDMOEhIWTYRgmJCycDMMwIUkr4azNmQxts+XUNFWtZBiGGWPY4mQYhgnJmP9WfTi/ayeLs/piOd/Z8z5UDWEkYc2KtQ/C+jK7M/5paKm/D+5pVosMQM1qaFtVoBYMunbBotXb1EKqshKaNi+D/NYmWP7wfrUudaitexSqczpg3R1P8h+YTjMmnsVZfifs3PworC/uhnU33QuLjKlR/RH2iQmJzKPQVKMWXdALxWyrXdBZtAzanroz5FhKKYC4/g/CxnK1zDBDYIIJJ4pDbTEAWiCLfN7y9avZ2gzGNqjaehQgqxAqUlqAsJwo9KlobRL1q/ElxNZmWjKhhLO2bhnMG+iADSn6IKUVh6KhhkxmmPHEBIpxyngXbL0XqhrUqqTI77gGS7PjZeT61RZCe/1zADVVsESPs6ZigO5Yqh1DjZVp7/xHobpIrUZxF3EvK77Y6Vd2cf7i2ABy+rtqUZyfwhJ3HIfbzboYMUoRa9Pn1ujtogzZ3tivWA/QeFOd8dfl7fY66t7utNV90FXpPqdv3YK0PyyAjU8Z7Y7E9pHflzFO8OxHuI83tOsd/WMP3tj50ONTB3n9+612knhjnN66mNczbkxU3QPO+X3i0v7tywyViWNx1szBB+I09B5Sy8mgm089dE5sr74DoKwK2upWqp0002BJ7c0ADWo/cmOLlsHOp/ChyWt1vt/YRfut9gxPPG/Vo1B6IHaOaFYxrMHvtpVHnTjsutbTuJ8Vm6MyqgdGnqMJWqAY1tuxRzze+s1zYK86ljgHlW/tArFZuIwUt8R5esDEPokSP/Sg4oMZbW12i6LVXo1dBVC92VvfkhqjvjjJulnx1UDtr4SmD0Xe2AdlzIf9cM8dcnvUiNk6ohjqelMdYtd7+Td2QvsAXsf59n4r4XZ8abraKRE15VDSYZyfrgldO3X++gP+4ZEViwvxxXkU9gphxDbB7Y3OMeLcO8yw4O5IvtDNR8JgWRvNT8JyIYplnpsw2vpczCJraIYWfJAiWWhpGAJUv4Ue2gIotRMwaN051gCeY0sXfRegpSFmWex4uBWFbRqULJZip8vo+i6JQ4MU3ttd5yChMCwefY7ihQGTOyT4j6KwqAmPvQEfSLNtaivR6rXCIPWrSYwLoFIJtAStbxQH0/rZ8fB9IjE3D8VXlido+18BudhOnQcMkcd9qszvBCLs9aY6GNeb2r3ZZz/1sm7fE7A8DXXu88M22ISiBzkzZbs0vG7dA8QCqCg2xZleEG7rVt87ubPVCmbYsHD6Ub4QSrLi3PC+N6+9737o6sOPgSigzZIU14OPdJygUEY/dCVKVKkytmyxLMPm48Liyr/MKN9AN2y3jiXOkRVB+zQIRlZdJIXQInaJ4UooRbe7E4XG5ULCEeilF0jeFWqZ8G9XV3kCt788/rCtqdDXG6DnmLWvz3618+nF1uoOcQSAXHL9khJhHuc6SSGNlJXHrPh4ZRcegD6ODD+47glmWKSmcGbgw6ZmTSK4fsiIZEbAt+7siO/5UwpRRssSNB6SUQOtInL9ImU3x8SqfCbk4we52+6yeGOKgQjc/tL9liEQeU4dfghF6OvtF/LZBntdVrx6mVgvxURQPJTqUA2x0AO1tcmOPd0ur0Va+uaLkeK02BYiDqvddRmGYUaOlBTOyhmZsPWSDCg1hLJk6iSocB7C8zBwTs0GpXlfnDiUD+mQMRZlNCxBa3K7fCOLdv2WVKq2VFauEx+1p0TxUhNtoYdsfxmjxQmt4UicmGRCRuh6i1CMjkEKN13HHQOAFuIatC5FGyZqL9d97LX0dc+RdTdx17rRJOWEkwRyTV4GRLIz4fFZk2FPQSZOk6EhfxI4g9yeGoTG99R8YHQcalmcTt4GQgi87pkgbNxqtEhUxlFH9eN02lK5zEFeSr5llnE66DsuBWCo7a+sYScmGJSRut5C1Og4K1XMNGBSKC6qXVzo+3gO1AYVZ7EfM5Kkpqs+qD4zAaZclIGTWibOomj2nocWtRgK9WCRS+l16RbAxqd0rEwKA1kvrv0obiSyyWZi4EKh411V1osA61FnZdUDEUb8EJUAkwmd2EvJbtfaOm9W3eXmI7V15NKb8dqg7Y9uqcu6tATYD1+RHKnrvR+2d+A1KS7ziTvS/YUudLxfW4lyudt/xdqb/UMdIp5aANV2zwZExorNzDu2Ee7HjCwpJ5ztZwZh5ZFz0B49HxNQAuf73jkH9T2DUG+uDwllcCnm00MunROLowkfXjBiRSiyTncUvY/q+jOabnAYRF3wgXfHFqsg94CdpAlCTPzEcZK6u2p/nSjyay+cKk/YVheFF1oh14jNVhdRf0/LtQza/rq8YlJdkxKGBmIvHPqOI5QjdL1FGCNrmhV3DAKKN56fuonp86+B5zwxTomMp/ol2mQPBTP2Td3QOMY50qRVB3gmzSELTnWAH7/xN9mJPsgPLUSHdkoEBY0BMylDarrqDJOmrFhbFizuiK57UQ5A9MQRtcykEyycDDNihPilUE25iOte8CQjMyRYOBlm2Ki+k+onm/FjoipBRPv6/f6fSRs4xskwDBMStjgZhmFCwsLJMAwTEhZOhmGYkLBwMgzDhISFk2EYJiQsnAzDMCFh4WQYhgkJCyfDMExIWDgZhmFCwsLJMAwTkrQSThpXvW22nJqmqpUMwzBjDFucSai9uxna7j8+hL+ozjDMeCWt/sgHWZzVF8v5zp73oeqMnA/KiltfhvULT6glg+g1sO6BmbADBqDpkRcgf99iWP6MHOGIhLM6W28fSeS5PGPBdN8Aix4bytCQac6N3dBWIf6suZs0aY/Ru0+Gj7zvZ0DjNwuHOQYSo5mAFmcR3kDlsMicxvhmF1YsiiZst8rxxDWhR1sUx7p7QC2lO3nQ8oTZJjdAZ+ELaWrx04uxGZpuVIvMuIJddRdZUIUPrLY2RwN6+1cXSvGuel6t1BycCcsnorUZF7we24sAIr1QMVetSlHqH0OhT0Frk9jxzHX4EmJrcyRh4RxL5h6HNQtPQOd2vokDc3hq6o9xz0w4JmCMM1GsJ3mMUxzj6lxY9zTAmrtehYjYC8uDbnfV82dh4/17YIle6cROJc53A1omsrxmTJZc2evgnoM46xsTJEs2VjdR9kK1gMgyqgWFfY7ovhug/eoXYEm/HVu06kbY8Ud8Mey8qxfan0Dz8Da5b/Tg1bj+NeiJe251PUR9TsXqpxHrwbpmdnzYXW+9nUIhmz5k1y92bWN4481++3muh3F9zfuk2Gp3gautRrkt1TqN3zZPXTz3ls+10OV27g1vu02UGD1bnEMh8iqsvw1gg4rFNXYDzKt4GXbiTZW724jP0X5O/PEsVFyNN2r/tIDu3ADcTiKrziHPcwKW3NUtxyl/vtA5t7hZxT76waAbXD3I+vvo8s6rcMfc6GGXD5Q+x2IpmuYDTdBD/Ih6YJx948cfS27Dp+1pud/yJ3KhHU3GedfacVisHz640X2Xex50Bzovvhxc+4iyyJebLktjdxdUP6LaxSB/6cuwBuY6+1EbRBbugZ23nlV7ICQS1vEo1gy4nxk7jomP2gfbqqVfbbQQbju1D87Ty0rsr8XkQrWli2T31qVY9hNQstBoJ2LuSSjBe6PzFVmXFbcedsfpKUaP9XC17zhlAgonPWSUnIlN4S80vp2fjlmN9b+ipM4JiODDELMEsmDTvjyAwpOeBzoYWVBlWabyPKegKFm878Y3UfzcZSShFQK/VD2c+ABXFpKVYVooU+CeB+QDb1L7WbSsPZYElo8eFHw53O5KgODL4bW5hqWCx9xdhO1wGDaa5b7xJFoqedC+z7Tq6OE1ro16OZmWnygLWnobjHX1j1GZu6DSuo6R/ivdViO2wTq8JpGFb6prgi+YpSTMlnVJsWaKrRplLs7FenVf6m6rx4J5DiZj15aJSHZvZcFevFciV590CfmKhb2i7Tepe5xipy7LF9ttC30vN6QrmIZwVt16MAMRzYXtpgtzcBr04Ee0dxR65QuLSAmJCA2cgNwr1bY41F6LLnz3lZabBdDRi0IeOQPFOC8eApgBXdY+AFOh1xVUHIBSdDu1leHi4KW+FlDPW1Z7+lgw/mUkIVfXRSSFXoU1LjFUZdltC5Yss/3A+pV5x1sz8H8lEMKCiiM4VplF2w3bmhrLtgxAgntLCKlLyKXHFH3tUqvtpXejjyNCFNmn07AXRDhSUzgz8CFQsyYRXJ++TIEucu2C3lTCpcObUcT3lJgE6q50Foqy8YNcP/1QqMmMaQkLKjoVOtRyXOaehnw1G4w86EUPzo1twSQQEI1jHR6MWVeqLBRycNfNihcG5cozvveZHyIzrVx9cc6hdJG6UG1pE+TesoVceTHmS0Z0hcO2L3nNDJuojeOclBTOyhmZsPWSDCg1hLJk6iSocO6N8zBwTs2mEfWvBO1ag2/x25RL5xPsT4wSaCfuaU8hj6es6eEiLRhVd+FaFsFeK8Fhs+OZK4V1teSz6uFVZXHihvYUOCmhLO2wGXsVV3bi1z5x1YRcwLaMEfTemgLbX4uFmjxWLVqr1SLUM7rd91KVlBNOEsg1eRkQyc6Ex2dNhj0FmThNhob8SXgpFacGofE9NZ9OPH85tERRCG4bWodu6V4nR7qViWOrcUVcJQBiSDfYm5BArGRBQoQFQy7mgIorBklkqH6caD3LpFaCsvjgt58QAG1pCyHzSYIQCeOGKiYZJN7s4kK2ZWL87i354uqC0huDWrVyv4lAarrqg+ozE997F2XgpJaJsyiaveehRS2mFyr5Es9aoZiTyOQqq9EUP3SvqA+ojZ9I6hu+2nYn8fhOVl2LuM6kCpQ1opYkWOanUSTI9Xf9QmkAmiguhpaL3TXGH2nBRK4+HD+u6IcoJ4qNSGrp5Ig31lh7t097OoIrocw4xeBiMVIpzJ5MO7myIpsfS8zYx48fI9b4ieRYtKWKOcYNJQS/t3RYYF7FCzDPSAoJhLVuxVrv9vkJ8Tgl5YSz/cwgrDxyDt+o52MCSuB83zvnoL5nEOrN9WkHPqzo7q3bd8qT3ad+mfqtXv/YYhQMowcAZZh9YpyOSIr99MNN58DvAwm0+j5NS6caNz+JuHWOR1AFnqZ1ahcNZZl1lxlnX9WFJ0SfPVHWyAmI2Mm1hCix1IkicpexHUR3IacszVDZ67W6Orcvht6lsX3WLwThWrrEye94KGLUV9Ltgrp7Y8TrMxkjJvLiO1ooL2hbSoLeW4TwTBBPUkj1PHBivjiVvjJxYpxp1QGeGQvIYpEB/5GPXcU6pgezrIbKWJ3nQhK8jqIPaogfXjDJSU1XnblwqFibpxvMCEAdpsMlMph4hGlL0YMi8A8vmCCwcE5Y0GLxxMHCxtrCEPbXLUx8QrTlXPqhQ8CkExMYdtUnLNIlt/s/+v+WezhIl5KSBiN/7HiMV1c9eFuaf6fA728UMMODhZNhGCYk7KozDMOEhIWTYRgmJCycDMMwIWHhZBiGCQkLJ8MwTEhYOBmGYULCwskwDBMSFk6GYZiQsHAyDMOEhIWTYRgmJGklnDSuettsOTWNwrhoDMMwQWCLMwm1dY9C21N3DmmoC4ZhxicTSjhXrH0Q2jajENqTI4wroQmXd65dIJZGHnl8bxlWe4d9SEFk+6VoWcvvhJ3Ylk01aplhRpEJaHEehcab7oVF5nTHk2P6R16jrU2u8zd2FUD15gdhY7naIY0QFnndSrXEMBMDdtVdbIMqFLLlD+9Xy2ND/epd0AnToGTxaFm6I8OOh+9Doa9LzT9E3PwkLMdrV9WglhlmFGHhTAmOQK856CHDMClNWv0hY8qqV18s5zt73oeqM3I+KBSjW1/Wj656PKuJYpDLIB9daW11kitandMB65Q7L45R3A3r0LJZU1vsDKXbuZWsnQWw8akqWKJHKRiIfU/iPb5ErgdxDLUKEeeWgwwK5DnUgvGdTZdRvaap9TIU4LWarbIRXbtg0eptakFRsxraVhWoBYJCG7K9XO3n2Y+I7UvI/WPlsrebddg7X9W161VoybkGlvT5lI3imNjmPVY7Cfy2+ZTRacMEx3Jfc59281xXZqLBFudQyCqG9TUAG5wYJcC8VQ/CTnzAcpt17BLdb9ovafyPHsxlMA8fxk3OA0zr1MOrzrFo61E8hzf5kV/+IKyB59Q55X6Rsip3gkskTvDhJzHS+1H5ipa5ewwIocmGlnq9j6ybLw11se0kwGJ/LYqy/FJkzWP5x3KpDqUH1H6rfwzbO/DFWjTHk4SqrcQXlaudEoFlwPOY51/XelpcJ3H+5n3Qjlb+vPn29VkJpSjg0Y59UhhryqGkw4xJB72uzHhmAgonPbxmRnsoWfTT0NIQszjqt3RAFKZBBIUpZr1sg034oPoJAAlb7Pw3owjhA2laMPiwLslyn4OESgg0iqDZNSrS1+q2LnE/EohIWblzXiE4HutyG1TVY7lRBG5XYrzismy0prphe7NcJupXmxZiQET5beuSjtUELQPTYEmlW3SoDqbVt+PhVujE61Tpui6WoCVlP9xzh/v88rjTIHc2Le33F+iaOTAPLeMtuk2xPd3Wu7quOTO5i9oEhrPqOHnd2iRY4gLNx6EHP6InjsjlJMSy6jIptKTGLYa189G97GqFe8xzIB0n8IHNikCxWiY6D1juLLLjWD/+nw1FwrKTguO3n211ie+NgDUly/+6j+D6i5W33bbBXnxJRIoXGtawJWhBEda2fkmhZY+r8i+Tguwn0PHKLnoPqOOI8IN1HZiJRWoKZwY+NGrWJILrxxcxq2+N8/AugKIc/CA32nngjQc2LOUzIV/NJoXcbyqPc+6h9NlU5Q9BzzGvGNYfOIriVAgVyq2PL8bxoPgp1qG2ENqd0AO9qEwsgUaRrbReMrLv6qNQDbEwB1n0zMQmJYWzckYmbL0kA0oNoSyZOgkqnAD9eRg4p2bTneYnYQs9vI5rvR+6+vDDiRvaU1DXuR+6yGJV1nBgVLeeRTeRWz2U/qWq/MOloVm49bKLVgKrOQ61dTJuvO6m+zyWu4kp0CsWF7pjqCika/BlRQklT6KKmdCknHCSQK7Jy4BIdiY8Pmsy7CnIxGkyNORPAmcU6VOD0Piemh8HyH6cKFLKRRYuuU9s1A9vckNZZwNR6BBLsquT335QvhBK8GXkL0gUI5ShBBkTDE788i+AimK0mgNZjtKtJ2uwdm2ZlTwbIsLdt3AEeqUoW/IYqqoDM6FJTVd9UH1mAky5KAMntUycRdHsPQ8tanF8oBNJZcK607G3avs38jWrvT8pRLfaXEeuJXXr6UTLUQoACmCDcr9dsUt0Zak7FVq2OjGzYu1qt3UphOY09B5Syz74ieSOh59T1qrb1a+to249R6ExoPW2Y083RNEarPQRNOlCx7eGZTw45uqL+nq6TxFKoMuWibK5YqjKWjdfOivW3uzumsRMSFJOONvPDMLKI+egPXo+JqAEzve9cw7qewah3lw/TtAZX5kool8woasMxbBexTfFVB71WF2dW5ugtzy2z/oyEN2JXH0ThfuN1qMrbir7k7pd0GxYUhs7luyalNjVdURefEcLJVmruvtR7Hiye1WILL0IY0yDSNZpaN8TLilEv3JqxO/G6jMH9npinBIh0DTjsYRVDNpoN+r6xTFOJq06wDMmsc7jdgfu8YTojE6JmWRWKmXPRSIosdAzzEiQmq46wxA+We64zI5ARCfEGGaUYeFkUpbgvxSiXwmF7a7EMEOHhZNJOXRnc/NvBPhCPxEVsUf1c1LuMsSMERzjZBiGCQlbnAzDMCFh4WQYhgkJCyfDMExIWDgZhmFCwsLJMAwTEhZOhmGYkLBwMgzDhISFk2EYJiQsnAzDMCFh4WQYhglJWgknjaveNltOTVPVSoZhmDGGLU5GkP3tz8A3fr4U5qplhmHik1Z/5IMszuqL5Xxnz/tQdUbOh2LZ9fClr82GbLUoOQFb/2w3HFRLIw2J0pdKP6iWYvTv3Qk/+f7baunCIsv4bqwd/nIpfGNlntjmousF+Lt7u9VC6jL30f8Eq3IOwU++9BLQYMmphKetmbRjQlmcwqr62kx45Uf/G/7uz/S0E3YPqB0IEtaffwY+tkwtjxgkzsZ5f3QIoHQ5fOPRQrU9OKIeP7neEv/R4D9gt6utXoCDRTeM0blHmkJY9XMU079UiwwzDCaQcBbCUrT6+ve2wu93qVWCt+H3X7oAb/5dL8GWvf8BUHRlGrnH3bB12wmArJkwd8RfLCPLwXtR6FPQ2iT6v/9rfAmxtZnOTBzhXHYJ5OBH37HUcI2J/mPvqrk0oiuakmLEMGPJBIpxXgIf+8lyWArx4l5quzX0aywOSa7eDW7r0Ir3ibga4Lo/XKnigzJ22hcnpiViXfOOu8vjE1s8uO1/w9af4oxvfJbc6V87VrSMn8Xiqb5xVPs4A4dga+dMWOWJcU53HVsg1oOnLqLuRWoBccoskG0HuG73ZQHK59PWfvvZdaV66LY0Y5w5VtkErmvnc+09sdxYHV79iDreiRPQn5cHfa66SmTZ/OOYfts8dTGva7xrocvdp8ua/B5lRoZMyPrw36h5F9kzPgAnT72vlhIzWvvafHz6JChR3ZD6ooPwXKjDnIGjb18ExZ+cDYv/8zWQN70DOl9UmwS4fUsH/PY47vOxKbDvR7+Af/5BB7y4W6pz9rc/BrNe+AX8dC3u86zab8W1sGD2MWefnM9cA/NysqA4cgj+8c7f4X5viId42tKrYEHBe9CplgX4MPz35ZfAwV83w4tOOfBBuOdD8OJf/Br+hc6BU+fsWfCp5VfB4PE/wtFdx+FFtW5B5Aj85C+a4flncb16Lkgsbr3uHXwg1fexjAtuvsFVRvEQ3nEFHMGHXdel85rr4Vbx0L4bK+NHZ8HieR+AN34fO74QXPzu6b2t8Bt9PPHwVsCnp6NIifLgMafnwhdWLjTa+BKY958vh5zLZ0FxXyv849delG2I+31q+XVQbJfvvjmQgULp7Kfq8amy0/DbX78jdouJj26rYzD4f10C/b8+DvRaFtdi+kl4cctxOPpr2n4a8rAM/bre6jiiTj+8Aeb1oMCIa6b2/fIN8IWKi6ATvy9f87E6fHCvug/+ZQAuqijCaxErl6QQPr26EOtgtlMM7/2A+//VOdiq2w+n3rIS+PSKXOilfV7MwLIXQuEko52IZfPgM5+8FI7s/p1o5yD3KDMyTKzuSLtegp+oZNDclf8JvhEiWUBxKZdVgcfa3YU3a64ygTVZ78Ju3zd8HloD8pxi+shhkXBxWyreeGv/9ztx+YMw07aYbFAAluI+B7cZ31dx1OzSjygrBEVuWZ6w3szzirphXbx8EJZ+zSgzttUWLLPL8vvLj6ClhtbRTw2r+ae7xfHmYplM6zi7r9P9XdzvJ3HK59qPrhvFVovmOUm7nFwU+q7DRlth290bPqY5dyVa3h6rrBu2/ugQ9GfNhqXW/UF1iLUdnnOXu1yCv6S49X/AK7+1Lel44PksL+jgNjw/TIdscdxueJXutXmF7vb8xEzIRit7typP4HuUGTYTsB8niRNliGMC+qVvX6K2JYOsq5iQCHct5xK36zwQhT416yaWVSexgKIb4os2WUFarJTrlXNZ4jLaD5FGxlHVA7isEK5FkfN7oPt6sUwejKy6SArNhkqrreZ+JA8FrNNyIdXxsiIirqw5+AfvCyVo+eCnJJIfhGs/Ic8vjo9tGPza+VEI19DLxqdcsKsbXqH74yPuXg/9vaZliVjlIuK1SVLI2tbXXYRSYi9MIaQuIb8E5s77IPR3dlsviwD3KDNsUlM4MwAiatYkgutHDimg0uIpS9r9iNzgb/x8OVzbuVMKCU6+Vlrf20mtHm3hzV1pdzinGBU9NGaXqRcMqyo+wgLDBysmuGoy46VFkaE/QI51aLYVPpCkjNRFyTqvX7/VpIQon8hMo5hnU5cuOudQukiphGEYvMlF2xpMIMbx0C9KETtW150sXrVZYAu5svTNl0zge5QZNikpnJUzMmHrJRlQaghlydRJUOEE78/DwDk1O0y0K2xaDB7QElhVJK0vlws5DKQrlgdLDYtp7qNoXVKC48/sJEByhAUmvqsF15zU8YaZEddttXSltsLwJUHmNbm6vuf1Jkb8eRf6h1I+FHN5Hny5iJdGyF8+7Xo7jncQDmkNqi5awk0/Aa9aln980EL8SxUuSNheb8PBTrKyZfc1j1U7CvcoE5+UE04SyDV5GRDJzoTHZ02GPQWZOE2GhvxJMEXtA6cGofE9NT9ChO+mJC2LIePEH5NYu+JBTI5weZP1rxRC4feSkG5fclQ/TiPMIF3mYGW03V5CCIAOb8QtH5Iwbqhikk5MMCjvwHEfd1wgwgYBLUdhDVK5C/FaUoz2DwFfGPERoRc1r5Evrjy45i+DWrXDvEeZuKSmqz6oPjMBplyUgZNaJs6iaPaehxa1GBhyhzzuHMWDpJXnxAb9Hl5hCbnXCetQzQ8V24KTcUFT/NB19/nZo69I/vQPsBsf3qVfs6wurPcqx6rtht1CrJe74qvZ3y7zdMOKizgP1l8lfvTDvMpuW7KA7BiuFdelzDjF4A7iS0RamlKYqXyu2CVdO2wH88cLcx9111MKjbJcffETybfh9z9FwaVQg+sXXNjuFGNEK9CdvIuHtAaz583zjdFSPb8R99doymo3Xz5Y30rfUIcMC8xdad2zxCjdo4w/KdmPM2dyBjxy6SQo+SD66lraUUz7oudg08nz0KiFNQz08Hn6QCI+/dzMPnVOhpcC94aIUT9F0Z/P+D206DtI/Th9j5eoT98HxfHoIRXHcKwESigdhmt+fgPkuDLNJPi636HR3w9xf5+gY7jPa9aPoDpugTJ3GUV9/foOIqotYtlvszwKChs4mWLdB3InHF9m7ucuu4PPtXL3C01eT7Hd/q26eQ1d193b/9GT2XfqYPeE0KhjuOotke0NTl2994PVfnQMPEcltoGnj6in7Q0C3KPMyJBWHeCZdCWZ6IwHgtdRCKf9wwcmrUhNV51h0ozsb89DizVYUkj0gAjQ+4JJXVg4GWbY6D8gEyAptEz9UCFMdyUm5WDhZJghQ+459Z20Y9BeKOYq+pv6xS2ZtINjnAzDMCFhi5NhGCYkLJwMwzAhYeFkGIYJCQsnwzBMSFg4GYZhQsLCyTAMExIWToZhmJCwcDIMw4SEhZNhGCYkLJwMwzAhSSvhpHHV22bLqUkNE8wwDDPWsMXJMAwTkgklnLV1j0LbU3fCCrVsI7bXrVRLo0zNamjbjOezp7E6/7BYCU1Y1p1rF6jl1CLZdWaY4cIW5wXlNLTU3wuLbtLTLugsWpaeD335nbBz84OwsVwtM8w4hoUzpdgGVVuPAmQVQkVKCxCWE4V++cP71XJqUb8aX0J3PAk71DLDjDQsnKnGoShE1SzDMKlJWv0hY8qqV18s5zt73oeqM3I+KBT7qs7pgHVxrBGxHXbBotXb1JoFsPGpKlhijN4YbW1yWVor1j4I68umqSXvdueYB+ZA26oCXHMUGm+qg3qKca7KRlf9PrinWe4rEOtB7qNWyZjiMpinlpxjqCXhJtcWQjseq6sSz2eM/ti59V6oalALDvbxvOVOXHf5/XyxDJ79CPfxApzPqcNz2AbyeNFjJyFy2VRvGyGJrqV3m7cuMBDbHvdYokzF0KPbUFwbuoYx/NuXGe+wxRkX9bD1oejpGGR9B/SorQQ9cOvL+lHEYtuhrMqbNMkpg53zX1fHMQXRgh5UfDCjrc1uUVQipcvR2FUA1ZtXQ63aRVNS8yiUHlBlwWld62mYt+pRaKpROxAiKeU+ni53LDGVvO4x9sM9d8jtUSNm64hioPPFKKm5GaBBHeMr7dAJ06BksdWe2CaV+HLobPZ/AXqoKYeSDuP8FEvOKob16vz1B/zDIysWF0IEX1J7hTBim+B251rjJNuX47oTERbOuFwBuWihdB7Q1ieCD2qVFgT98G41hBC3b8CHKVJW7ha1rH7Y4lixJtNgSa2RUUeB24APpGmJ1VYWQwStow3GuvrV+OBDAVS6BBqtXhQH0/rZ8fB9KLIA87CsMtlEDz8Js2XtYbmXU2y1qEyJQJK6Bybo+TRUh+cM63IbbPJpT7egBaChzn1+dVzImSnbpeF1H4FeABXF04yXGL0g3C+9HQ+3iu/lzlYrmAkDC2dcjkDvAIpOHItCPLwoaJush3fHMRr0NRuKzO8MRAFtLB+MrLpIChXDGpcYroRSX8tKli2Sd4VaJk5D+x6vsHWcQIHIikAxLZQvhJIs//3c4pG47oEJfL4YPcfc++7Y042WbAGUOlazLWjBIQ9Bv6REeEW3i59Axyu78AD0cWT4If8ydx2Y8U9qCmcGioKaNYng+rFDuqCNXTGr0HTBi/PowUN3z3mI1GTFwAR9x5O7lGgVkesXKbs5JlblMyEfP8jddp1jszemGIjZEd929ZK47oEJfD7Naeg9pGY1zfugnUR8vnLrE4lxHCgOTXUQsWbDzTaxBVpa+t2w3bF+Zd/VNhGH1e46Wf7MRCQlhbNyRiZsvSQDSg2hLJk6CSocsTgPA+fUbAhc1peHBVCUAxA9cUQtS0TXFmURRoy4nDgWJRjUg+ievMmMIGjXb0mlEonm4yKuSAkI7zlw8nX/fdAWb8iMfby6B2ZEegigiDeTWz9HWIPS0jcFLQloIa5B61K0YaL2cgm019KvrUPrUlzvoV1bZnyRcsJJArkmLwMi2Znw+KzJsKcgE6fJ0JA/CaaofeDUIDS+p+ZD4HX7DJJZMsoi1HEx4ZKPeH9L1Y+zaJlK6CiXWVtbCfFJoii31rF4hRD77YfUzEG3M55b7a57YIZ6Phvh1tN1Wwm3kwh6QhdhUe3iwhBoUbYAMVSxHzMRSU1XfVB9ZgJMuSgDJ7VMnEXR7D0PLWoxFPjAbaFkiSd2h25YLbpmXa2GNYHrXBaWJUINzdAyQK6sld1GC6dpKG6tRhwXyygSOvphXuZxlWvrvFl1l5uP1NaRS38aWrZoS0sKM1mPruNR3E5k83ViJknd/fAVyaDnS8Y22CuSXGWQ7xE06gGALnS8X1spq918+axYe7N/qEMJdLXdswGR3or5osQ28gvLMBOClBPO9jODsPLIOWiPno8JKIHzfe+cg/qeQag314eE3M91reDOZm9eBuDnytHPH519VPccZx8dB6SuQcaxaiOwN3T22USJpU4UobXndN8xzlN5wk6OUKKpFXKNelUXUX9Py7X0O57qq+jKPCesux86wSKP6whl0PMloX5LB0SzpuHL7fWQSSEUb+oqZdRnDTzniXFKpED7JdpkDwWzF8Qc2MsxzglLWnWAZ+JAFpzqAD9u428h6ig6tLt+yMAwI0tquuoMY+HNcsfDP8nHMCMJCyeT+qC1GfiXQjXlIq4bprsSw4SFhZNJXcg9N2Ki8X8TrhJEtK/f7/8ZZoThGCfDMExI2OJkGIYJCQsnwzBMSFg4GYZhQjLmwsnxTYZh0h22OBmGYULCwskwDBMSFk6GYZiQsHAyDMOEhIWTYRgmJCycDMMwIWHhZBiGCQkLJ8MwTEhYOIfD3OOw85FmaLpRLTMMMyEYG+GcPhVmqNlAhN2fYRhmDBkD4bwU7rrvO7DtexXwEbUmIdNnw9f/+jvws+98HC5Xq1KWgzNh+TfLoep5tcwwzIRgDITzJPzsVy9D75VL4e+TiacQzf8Cf1bwFjRvfRHeVKsZhmFSiTH7Q8Yzym+Bn9x5PeQe3g1f/c52+INaH2MW3L3hr+A2FM2ff+/H8MOXz6j1yTgLG+/fA0siahGJ7lsMy59xRmGHFbe+DOsXnlBL3u21dzdDNdwAi145CW0VNMzhLOiJvgH5/bjuMWsc2Ru7cZ9T0PLEdXAPHIedd70KPdstq1PsI4ZLVOTJ/Q+qRYqN4vecIkevgXUPzBzmWOEMw4wVY5YcOtX8LHzpyZfiWJ7DFE0SOHSZxfTENWIcbQ2J4vqFM6DR2A4L98DOW8+qPRTZh2HntZeq48yGf3wtD6DwpGfs8tprURCjubBdi6AFiTSJZieKqS7Tun1GxJZEVYmt3L4YWuBVWH//cf9xwRmGSTnGNKsuxPNH+6DHJZ4x0Xz6b/8hhGgSZyAXzbbOVwyr8OBMqNLWJFp2lYW4fXthbCxu3L5hXx5EFr7pFsXIDNhiWJc79uVCFLqg1JUxH4BSOt7uONYhnm8NWrYkmqYFuuOZQmVtotAvReHtvsHYPgXuefoaiEZehds5O88wacGYCidxqvU5+LIjnjfDdwzRfCyOFRefqdAbBZhX8TJsnKtWGaxY2AsRdIM3WcmbHW+RBXgKiszvRKdCh5oVoMBu6cZjLzUswRtPwjwogr1xkkHifAm2w9yTUBJBt/1Xlvt/cJqwkvM/ZFnBDMOkJGMunERMPBfCFy4bqmgSaK09UA6N3SdgyV3N0PZIs8sFL849gZYkusG4nrY5kyv+qOif5rEi618pwu/3QoUQWG0tXhqzXi3E+WwBNrnyDAprrKyx6QUUZIZh0oUxH+XSZEbBLMg/8wa81qdWDBedlEFXmJI6Iil0dW7SxIuTHLITQeiaN6Go5VMyad9J2HlXL7T7JHl0cijp+cT+1jEYhkk7LojFqTl1dARFk3i+ENbtywPIPi3ca+GSOxbjUMiCTRQPvfok1Aq3P35SiEh6PuGSn4CSheySM0w6c0GFc/igRXj3gJonzkLF1egua7f7+cuhJUqucbc7EYSWX5OdVY+DSBKhu19NSZ94SSENCrcMG7hjritu7VbLSogX7rF+pnkWNt7NWXWGSRcuqKs+fKQr7YoPKjfdRLjihWpBUASN34xl2uO76oTuJ+r+jsBy1TV2v1FPP01PP0/K/PMvkBgmXUhz4WQYhhl70txVZxiGGXtYOBmGYULCwskwDBMSFk6GYZiQsHAyDMOEhIWTYRgmJCycDMMwIRlz4aQ+nwzDMOkMW5wMwzAhYeFkGIYJCQsnwzBMSFg4GYZhQsLCyTAMExIWToZhmJCwcDIMw4SEhZNJDP2x5kearb9YzzATGxbOEYb++nvbI9ZQHSPAaB2XYZjwpJ5wTp8KNOp5YMLuz0w4aGiUNtfYVAwzPFJMOC+Fu+77Dmz7XgV8RK1JyPTZ8PW//g787Dsfh8vVqgvNjmeug0X22EQMw4wrUkw4T8LPfvUy9F65FP4+mXgK0fwv8GcFb0Hz1hfhTbWaYRhmtBnzwdqC7Duj/Bb4yZ3XQ+7h3fDV72yHP6j1MWbB3Rv+Cm5D0fz5934MP3z5jFqfDO+omPbokvaImM72OCNaEuI72XIkSxAjXM7wjIjpGfnSGmnT3h7dtxiWPzNFLent5nFlXQDLs/dao8x6RE1rJE3fetLInr86LeoVUes9I3IGHMnTLq9z/FdOGuXIg5YnroN7DlrXwWdkUu+1skYZFeXqhXY8XtdnzWtm7OczmqjnOAwzBFIyOXSq+Vn40pMvxbE8hyea+fiAL/pmuZy2F6ltBA0DrATQ2D6vQmWUD14K7VGAedfasbIBKMWHNvrapXHHXCcRWb8QUDTUcXFq7FYbEbmdRFFtf+IagIV7YGeAsd+pfKWvxL5HY8Cvuf9laFs61anHun15uJ97rHdB9mHYeRvABn3eb94Anfj99fcnHuM9cHkLX4C2ay9Vx14sx7i/7WXY+chh6NVtQWXG/VzfFZl897Vq7O6Cak9yjMawN+ovzoH76fI/X6i+i/MkzmIfFk1m+KRsVl2I54/2QY9LPGOi+fTf/kMI0UTmnoZ8tHja98WsInqwHCvqxjdhSQQtoqcNawu300M3byk9iFNg+2t5KAYn3Q/vjSfRKiqCLYa15QKtnupCbWmpdUj9Y+oBRpGoROHt3G480AdnwgYUu8jCN5Nn0VEQnDrg97ZgeSNoPpr12PHMldCJIlOy0BK2yAzYYlqXkAVVSnxvj9f9KFR50bpzLMkpcM9ufFFF0ErdNzfWFrrMV590xLr2s2gBo+W7wWjT+sdQ1KELKi1xJks3Zgnrc/RChf2SYJgRJGWFkzjV+hx82RHPm+E7hmg+ZohQIA5Ogx5hofh36am9Fl267itd4kZ09KJYRs5AMc5LAXI/vPJ7l8a1YsT2aC5sj1PeFQt7hUhsMtxgYsdb1FfgFBQlEYDOV9wurigvzICuIO3jV27RTgD5H7JEVhGqvPbxD08FNNqh5604LxmBtOA7d5uCTkyFXvxyJNd8WVovQkKc4wTkXqmWGWYUSGnhJGLiuRC+cNkQRVOA1pR25R5phjZXp+6zUJSNH+Raqm16cscls2CvaR1p68sSrxjquP3T4rrxxbl4fHKPrfN6Y3OpwaiXV3gGMgThOv4je9AjkLswzIUm5YWTEOK55n/Al74+VNHUoCv3gIyHybhfs4qtTYGufvxw4mD2FHNL61+JuYLxrK8Y6rgJEBYiJWR8z+t278eSeFbhqJdXWbyUzPIeHydPEolhxp60EE7i1NE34LU+tTACUH9Lil9q108Igh2/9OP5y0WSo2ThAFRcfSJhUohIdlzh4l6omJxfuUTMNg96D6tli9Evr3TJvUk4hkkd0kY4hw261U2uxILKhvdOFUs6fulkZDU3dlu/05ZJosjCF9B1TJAUUux4Zq4KD7hjq7V3q2UlxJ7Yq6e8owGWy/xFDZ5zJ7ncPrFeh1Evr0rw2Jl2xGmzkAR+KTJMQCaOcCL5C/cYMTPZ3SXW91DFQMGK3y2d6k2E7MsVSY5ESaEYMjwgu9PEjlsN+rv+29vuOgN7k4jysOm+AdahaRk756sA1AUooTs8BuWlbkSqi5NzfJwqey8P0N5enJeiOM7QxJdhTFKyAzwz+jgd1DlmyDChmVAWJ8MwzEjAwskwDBMSFk6GYZiQsHBOUOof4z6RDDNUWDgZhmFCwsLJMAwTEhZOhmGYkKS0cFKfT4ZhmFSDLU6GYZiQsHAyDMOEhIWTYRgmJCycDMMwIWHhZBiGCQkLJ8MwTEjGrXDW5kyGttlyapJ/q5hhGGZEYIuTYVKZ8jth5+ZHoalGLTMpAQtnAFasfRDa8OZ1Tw/CxnK1AxNDPejutlo9dn91fbSEpmY1X/PRJM1eECyciVAXc31xN6y76V5YZEyNqTl679gg2sUrIuIFU1sI7fVmWzVBC4+7NqGprcOXZ91KtTQ+YOGMy0poqi0GaG2CRXc86RnJsn71fXBPs1pgkJVwe9k0iLY+Z7XLfrjnjrohjRU0JJqfhOUo2FUNaplJD9LsurFwxqG2bhnMG+iADQ/vV2uYhJTPhHz86DnG7cWMf1J6sLbhDOxGWfXqi+V8Z8/7UCWHTw8IWpublwFsDfMGlN+Zp5aIKFqryw3hJVdWuP14zDVozUbU+k5xngWw8akqWKL/tjCK9jrT0iX3WLjBzwHUGPt17YJFq7fJY6PFJzkNLfVei9i9j7d85FJVAx5vy0w8V6x8sf2sMirkdpDbwCp3HMS5itQCIttALRjtv3e+2q/rVWjJuQaW9Mn6uqD446psWWegdiqGHvvaiX0K1ALhbqNkbeM6h/iOTxkJfd2s87nrF7+t/a+7tz6Br+WBOUY5dJ2te1XdQ27s+/koNN5keA7O/XgfdFWa19LYz9PmhHUcjV89fb7vtGOcdiFE3XN0O/rcs3YbDwG2OP2omYM3zGnoPaSWk0EXGG+yfLx5ndhefQdAWZU3tpNVDOtrADao/ShWOm/Vg7ATL25us44L7oJO2s8TF5oGS2pvBmhQ+209ClC0DL+LD1Feq/ouHZP2cydk6GZaX9aPN636rirfzrUL1B4KPF6bUT46RwT3k0F7crvld6PiIZT7yAcWtzXgeip3wiA/3cjqxjbOMW+V9zv55Q9C6QG1z+ofw/YOfIkWzfEkmmrn48M10A3b44ROSGToAaSHThwLp3Wt/WpriLbxgcrtlJHaBeu/Bq9HW3nUqd+61tPiGnsSSzllsNNsa33dn7rTPba/RahrOf91dWyKNeN9UYP32uYy6NVxaCoz3UPmd0mUrPu5sasAqj1JPrrPjPqLc+B+uvwNdeq7OE/iLPYJGrbB+wTby6kjTq52bN4H7QPY/vPtZ2QllKKIRzv2SWGsKYeSDuO5jPtshYOFc9jQBS7wWigUsxHCVmY9MCg4DbG3Xf0WEqFpEEFLKvbm3Aab8CbxEwlXDLGhWSReIln4EBkWgzxmAZRqIcIHoRJvps6txk2L5duA54iUlVvnQIvAfBurc3hvUB9EnEomg0hQKKPuEVC8kZdkuduAHjDxAsFymoIR6Wt1WRM79nS76yWQD0onntvXgsBjrkHLzLb4djxcJ9sxVNv4gILgHBe/twXrEUHrxqzfjodboROvccliS9jwum1xWT7boEqJ7+12u2nCXkvnvsAXWzPej1lopZr3kC5z8UKn7Wsr0QK2wlT1q1FwsO0rLXGm+z7WrvochVBhvyRC442N63bMnU1L+/1fpMLoOQpbdNnx3nI9l/rZypmZ8OWUDBbO4VK+EEpQCNr3mBdH0fC694GxLaPm49CDH9ETR+RyQuzz7IeuPvwYiKKDHJ8ViwvFg7DJEA5ixzGyurKhyLzJu163LAJ1jsA3mrJKDQE1rRlhHXa1xh5cRccJvJmzIlCslglPm6iH3CWw6kHZa9VNI+qebHvQtvGh84DbxRX1gH7osurni6etEXU/5F9miaxiWNfyUBRfPMni0PFeREegl17SeVeoZcLnvhfn0OI2AuC1jnVvk6ED3TZSSN1iLu8vb7uSla67x4kQh3WvhSX9hTMDL6aaNYng+iET5uLPjvieP5UozqMbRbrQ+uYRkyf+NJJIASX3KlJ2s7K6F0BRDn6QC2mVxYzXafwe8PoDpkUjrX1fAVKIuid4sVyYthk6o15eleTTHkNs8sa2RxeKseJ5Xd3byOo12QZ7TWtZW+PGy0yEafA4It5ruPzDJe2Fs3JGJmy9JANKDaEsmToJKpyLfB4GzqnZoMSNn/ig3uKpjLCCKCDuxHnMyZtEGkncbqqyXp14lz0FiH+ZVryy9lu22ImNGNICjM+FbJtExLMKR728yuI148GuyZNEGh10r5Z1Sepkvkg91jgKqQ7TjHS501o4SSDX5GVAJDsTHp81GfYUZOI0GRryJ8EUtQ+cGoTG99R8YFSsBi2jpL9kEDeaT/yKUEkmXzd+DBFu3IjEnYaOFgLx4PvEboMjY1RkZdSKByV+UohIVvcL2jZ+7ZAkMTn65ZUueSCjYawRbWMhYvD0/K2EiuJpsaRQXBaI/YZL+rvqg+ozE2DKRRk4qWXiLIpm73loUYuhaKhTWTx3jE5CmWGdJd0GVSrz7MlMovvk7RB+AVA3l51ppzI2eeoWAL+XBdXXkw2mdpKWg7YCdFzKybxqalYnf0kpRJII3dVqsiY8sTgLkXiiuruz2ivWrpbLI902ocB2MLO76p7xiwE7jHp5Y0aDfd/X1tlZ9WD4vSylC+3T00AhvuN6QaDr7huOkEmiSNkyWJJlJIUIZT2bL4EVa28ekZBDWgtn+5lBWHnkHLRHz8cElMD5vnfOQX3PINSb60Oy4+H70D3ZBT0oip54DxiWDnW7UF1CnH1UHzN3Ru9CIeONskuJUY/aCOwdUvmU1afq6zxgntgbthP1u7Qzx5Q4Amvf8qgn4REXFUqhrHG8pI9J/WqKa4HoOqPPt744qq7fSLdNCLp2wboTZcY51S/VErqVY1Bev/sZp8oTzclDKT44L0txnGDiS8+efOHp88+BvZ4Yp0T2tkA8sW7VS8GIqa+B50YkxjluO8AzTCojOmlTwmKMYoYpD1nbqkP9BffQApD+rjrDMOmP6J0SsBtXCsDCyTDMBSZ5t7JUg4WTYZgLg/ipMsUeVSw8jcIWHONkGIYJCVucDMMwIWHhZBiGCQkLJ8MwTEhYOBmGYULCwskwDBMSFk6GYZiQsHAyDMOEhIWTYRgmJCycDMMwIWHhZBiGCcm4FU4aV71ttpyapqqVDMMwIwBbnCOIGEkvyZjYTBpDfzNyc6Ix45mJAgtnHPToeJ5JC+OYPkRqxD97Guag+mmL+Ks68YddYIYJvyCSwsKZkKPQaI/y5xoGYvSR40EvA7BHHaQhAdQ+QRHHmqhiywiEQcBe0bBh4RwqzU/CchSwqqDj5AwBusmri6R4e85D5+dhF5jRYAzu7XSHhTNVQXdJjgkdYKxxhmHGlHH7h4wpq159sZzv7Hkfqs7I+aCQtbe+rB+tvTjCJQaXkiNZ6jezGIArpwPWKXdeHKO4G9bh9jW4b0TuJgbIr2qgoXOrYkOV0uD7RhjA+W7A0IAsrzle9Glo0QNfUUzQM7QqWbKxuomyF6kFRJZRLSjsc0Rbd0F78TKfv95NMdllrjGwo61N7hE/RfvR4FzPYflkO0T/2IMXPd/VphrX9RD1yY7VDxHlp8HPDswx6qrbwCpPl7u8sbY+Dre7yu1uI79rTnjbxV1X5/hDuA80ia+PrB+FczZdZpbFuAdU2fW5JcZ2E796+txDThnitAvhfiasuhJx6pvqsMU52tCQuTUAG1RssrELYN6qB2En3kC5zTpmuQs6aT8n/qgGze87HvCGWgm304OpziHPY4y9TcO9qnML0RD7aEGgm1nd3Pr7W4+K8eTN5AA9AFK49DmapGjaY1SLxM0yyKdhbvW+eqhZn/hqSc3NWD653/Jv7BTD/prjYEuwfigG0dYkw9PSMLDzX3fKJ8Yfr8G23lwGvfWxstBwsd6x8gthjRiCVu0nvk9D2iYeztbTLqqunuMP6T4ggl0fgtbR8LfyWNY9oNxvMTQuiZXYx0c0fcEylINx7eVxqPwiQaeGa/a7bqUo9tGOffI+rimHkg7jvvCtb3rAwpkQa+xqnLwPXDLwrd4Qe6PWb6GkzjSIoJUWezvLccrtQfuDsw2qrLe2PE82FCXLPOPNvCTLXUYSWvFgoyWhexBUFpF1YlrfNL63Pc41PWAFXuuSHlp82KGozMqE48uh4znj4cVjNvvsVzMHrcDT0L4n2bjhaCE6lqQ6Vhaeo9U4B5ZlC9YtUrzQnSDBF0C7b/0KoDLeNRftQpaX8T08/gYx5ny5dS2HeB8EuT4afCma7S7PUQClw86OU1uYbaPHSp8GubNpaT9s7/C5f8V1OwpbdJmw3K77Qtc3Z2baJatYOBPizaq7L3wABrphu/lWbz4O6JBC9MQRuTySCGtPibxwy/SNHZ/a+TS6YKvH8ug4gTd0VgSKcX7F4sI4Q7cegV60NBzKF0IJPuS+AtfwunjQSha7RajnmLWvz37xyujBHiXxUFT0PPCcww/7Oglk/SJ5V6hlN6Jd0HrbZLmnO4714//WS2uI90GQ66PpPGAlC9U58i8L+7KPA7nkjhEhQxr62FJI3S8ZWXbvyJVkpev7VIQVrHqkA+kvnBl4Y6tZkwiuT1/2Q1cffgR9E+sbepXhTgXqrrQAinLwg1xc54EwbmhFcR7OD0QBndDEiLGxw3Aaeg+pWYdtsNdlEUp3zyMKKYBoF3I1rbbzxpOHSrDrM/qofsQiJq2NCNvbsK6btsaN60axXiq7iEWr+1SEDtKQtBfOyhmZsPWSDCg1hLJk6iSocGJv52HgnJpNI+oPkJtZCBXJXG1yj2vQuhSxS7c7lRwl0E7c055CHk9ZeMNFuJi67srd22tZdWNJPKtQWH1OvNCegsYPEzHC12eI1NahdSnqmbhO5j3rscZRSGUvESz3OOhGl9bCSQK5Ji8DItmZ8PisybCnIBOnydCQPwmmqH3g1CA0vqfm04mGZpXcsOJYAZHudXLEw58kthpXxIVrruYJ4Rp63XFB4DglIpINdJyVKmaaJCk0EiSoXzxXX7jkgV5uQyfI9bkgiOtpoe5Zum6U3HSSQnFRSdA0JP1d9UH1mQkw5aIMnNQycRZFs/c8tKjF9EIlJ4Qr6JPZpXimyEYqq8R8uNTb3cbvIdSxqWr71yR4fCdrq0VcZ2gFytJVS5JtULX1KETsrDKFEtB9jZpJmoTIZEOkuCx+zHTEsV9S6J5SnNgnhung2y4I1rcpdBLRn0DXJwS+Yq9i4/GOJ+Op5newbXzDEeq6lVFvCyMpRKh4q5l5X7H2Zm+vjDQhrYWz/cwgrDxyDtqj52MCSuB83zvnoL5nEOrN9WkHChG6ZOtasz3ZfYqj6fhR/WrddUZtwwdgg0+M03kIxX76Yadz4PfBitWVRw3BIBG3zrGZuhHROrWLhro+6e5Hel/Vxy9MYk2UNWsaCpdf0mYUIFe0OWK0Abqn5CIn7GNI7ULdfsx2ofpGYG/YJGJcglyfEDhiT8cJ9nv/HQ/fp7o26fNTty07xinZsadb3neepBDWQ3UF03WgrlPpGuMctx3gmbGA+hhWib55oXsbJCXWqdvuVD3SxDrAJxLJCQR5CCIRNBJx2vFJ+rvqzIUjSQxwOKxYW3bBk0ITFtE7wq/7GaNh4WQCgNaf5y/qqBggurMjbxEG/KUQMwrIHzH49b9kYrBwMgE4Ar12jE3/rHJEu5aQex479si7/0xcnB9PVPn87QHGhmOcDMMwIWGLk2EYJiQsnAzDMCFh4WQYhgkJCyfDMExIWDgZhmFCwsLJMAwTEhZOhmGYkLBwMgzDhISFk2EYJiQsnAzDMCEZt8JJ46q3zZZT01S1kmEYZgRgi3MEqb27GdruPz6koS5ShwFoeqQZdt56Vi0zDGPDwhmHFbe+DG0oIJ5JC+Pc47ATl5tuFLuPAixgowu3LzN0WDgTUgSN3yyHReb0wEz+K+GpjnipvQwb56plhhlhWDiHysGZsByFtOp5tcykGVlQhddv+TPOeKgMExgWToZhmJCM2z9kTFn16ovlfGfP+1B1Rs4HhWKc6xfOQFe90H8IAXIH73oVerbHrE5KDlVnXwPrlDsvjnF1Lqx7GmAN7quH0u0U3zkLG+/fA0v0ymjsexKKwb0A+fsWO1bRsI4nytsL7U9cB12fxXIWqvWI/L5a8DmvQNXXGQ7YOv7w6ioR7Re3XGo73ACLfnXaVZaoU1brPIrYdhO/esp1rvHCu/F8j9EYturY/XrZ4MZuaKs4BS3Ytvcc1PfOCbWRyHO2MeMDtjhHm8irsP42gA0qRtrYDTCv4mXYiQ9h7m4dO70BOmm/u+2xdn0Y5vFKbmuG0lf0fuWwbl8efj9JkouEAYWKXhLye4uhBfD4dg+CIZeNREm9dNR3F20v8i9X4QvQZpyD9oss3KP2mwL3PIDrnrgGokKs5D5e0fRnxa2HAZw6quPg+WQCaQpsfy0Pz3/SPYY6UnttF6pzLmwXwjgAt9MLRB8Dp8buE7Dkrm7P95j0hYUzIV1QrbPpagqfhcUH+OmYdVX/K3qoT0AELZeYNZUFm1DA/B5KL8M5HlpBry12WXE7nrlOCtzSeN2oUNSWojCg5RX7HgrU03heFMDbXcI2xLLd+CZaie7vwvOFccpVBI2mtfr85dASxf2uDfDSSQK1hdk2FMfegmWI5Ep3Zce+XKxPF5S66jwApWgld+7WZcqCKsualu1wCoo4WTVuYOFMiDerHtR6cXAsEcXBadCDH9HeIfbKH9bx8qB9n7f8Hb0oZJEzUKyWXcw9CSUkar+y3FN13vwPGS+SIZZNWGzdV3pcWd9ydV9qhU6mQFc/fmSfHqH+s9L61S9KETrQx1ZC6hLzG0+ia18Ee03BJchK1y9cEVY4AblXqm1M2pP+wpmBz5aaNYngemYEuPKMeOiX3BUTEzlZscAhcxaKsvGDXHDX8ZutOOHoI37A8MgeKEGrPOZmq42K+leK8ObqhQphPWpr3BBz1b+3rQJiL10ROmDGE2kvnJUzMmHrJRlQaghlydRJUOEYSOdh4JyaZeITnQodatbF4an40KPFqeKF9hTaAvegLEZKwvgcf1G85NxIgxZidaGsZ8I6PX8pdOKLpGQhWtoeaxyF9Da0LkVdxqjczAUhrYWTBHJNXgZEsjPh8VmTYU9BJk6ToSF/Ej6OilOD0Piemp/wqAfexVmouBotu/5prricg3C3/b43cgiXPFB8d6yR8Us3MkYbuRrLu7AXInZ4wocVtJ+aZ8YH6e+qD6rPTLRdLsrASS0TZ1E0e89Di1pk0MtceND1i5rau6n7jk8M00EJhZO51qB1dXe8hFI4djxzJVpxXVBtZ+nRChzST1p9xV7+xLItXs8FYVm7v1N7t384QiSJIq9C9cITRlKIUNaz+RJA133NGIccmNEnrYWz/cwgrDxyDtqj52MCSuB83zvnoL5nEOrN9RMeckWvhFwjXlldSAmwxH0MKdusuwfFYpB7IPcVd/Z46NCveFQXJ+f4OC2dCpvspEsgYmJPxwnUE4J+Caa6NunzU7ctO8YpOHgp3nM0400K1T+G9YgavTGo6xTHOMcd47YDPGNhdIDnjtiE7OxO/TZdXZAYJgDp76ozzFCYexry0QLvPayWGSYELJzMhKT2s68GSuwwjB8snMzEQfexxMn8mwIMExaOcTIMw4SELU6GYZiQsHAyDMOEhIWTYRgmJCycDMMwIWHhZBiGCQkLJ8MwTEhYOBmGYULCwskwDBMSFk6GYZiQsHAyDMOEZNwKJ42r3jZbTk1DHBeNYRjGD7Y4mfiU3wk7Nz8KTTVqmWEYAQtnHGrrHoW2p+6MOzSE2F63Ui2NLivWPghtm1en4Jg84wNuXyYsLJzMuGYsX3DMxIGFk5nw7Hj4Plh0Ux0P58sEhoWTYRgmJOP2DxlTVr36Yjnf2fM+VJ2R80EhF686pwPW3fGk718JF9thFyxavU2tWQlNm5e5hpPt3HovVDWoBYRiaevLpqklgGhrEyx/eL9aMo55YA60rSrANUehES2hDvG9fjEvrSJ5LsDj752P3ykSKwEGVHlrVqvvS+xyOOfZMhN21hbHxvzW31eLIjmE23uGXQ/iNLTU3wf3NFvt1GW2ocZuS9kOjkUoylUI7Xi8rkqj/uZ+VhtIrOMoZH3M9kV8vu+0Y5x2Idz3zQLY+FQVLDFHXrbbmElL2OIcEeSDno8Csuime+W09ajaJqEHSj6cant9B0BZFexcu0Dtocgpg53zX1fH8T7kJvNWPQqlB2LHi2YVw5qnHoS28iisU+dZ13oa93sQNparL2noPDUAG9R+i27aBZ34/fUJEmJE4HoULYM2px5N0DIwDZbUPAg7N5dBb33su1Hcz/Vdkcl3t2VjVwFUe5I3eLxao/7iHLifLn9DnfouzpM4i30St2cMFDxsL6eOOLnasXkftA9g+8+3Y6croRRFPNqxTwpjTTmUdBj3hG5jjrmmPSycI0H5TMhHi6p9T8zqogfXsUZQDCrxgercajy4zU/CBnwYI2XlbkHI6octHgssDigIzjnweFtQJCJo3bQ0xCyaHQ+3QieKTMliS9joPC7LZxtUKfG9PV73ozD1IOvOqcd+tDTxRZKFVmrrczivVusyFy90xLq2Ei1gtMo2GBZs/WoUHCiASkucydKNWXz6HIVQYb8kQoPHusMtsrodc2fT0n7Y3oGeUNEcd51r5qCVfBS26LLjPWBa4tTGm7CtIGdmwpcTk/qwcI4EzcehR1hA/l1aViwuFGKwyXLrdhzrx/+zoch80AeigDZcIDoPuAW24wSFNfqhSwtTIrpe91pfoh4A+ZdZIqsIVQ/7+IeiEMWPnmOmkNhIi60TBdXtyh6BXrTwInlXqGXCelER4hxa3EYAYf0+Cm1ikqED3TZSSN1iXjsfXXufdiUrXR6DrHV8eWRFoFhtY9KT9BfODHyg1KxJBNePHWitaVdRPSBmp/HiPHpY0EVT25zJE4ND+o6nbPwrVD2GgrDcZQjCdfzNVpxw1KHQC55XxFENN1ttlWyDvaa1rK1x42Um+4eqeK/h8jPpT9oLZ+WMTNh6SQaUGkJZMnUSVDgP2nkYOKdmQyCst7iWwQIoykFX8cQRtUyQexd7OOjh17E7cSxKCqiHxz1RwkTsljLEswpHvR7K4qUkjPf4OAUNYQyT2jq0LkU9E9ep/kAsNOCxxlFI16B1KeoyRuVmxo60Fk4SyDV5GRDJzoTHZ02GPQWZOE2GhvxJMEXtA6cGofE9NR+CHXu60e0rgFK/eF/5QijJ8nEVFdQvkJIS2rUUruyIxN5GEDs+R4gY3WnoPaSWLUa/HtIl9yZdUgDRNhYNzSLpVbJ4JVQUT4slheKyQOzHpD/p76oPqs9MgCkXZeCklomzKJq956FFLYZCJS68GWl046gLT1drzBpB66LJlbhQ2VVtkaoHzBMD9XxvLCmAajO7i2XZSS63WS+bUa+HSvDYmXaktm5oP4kUVrL1kpAutE9PA4X0NswXBF5z33CETBJFypbBkiwjKUQo69l8CaxYe/MYhxyY0SKthbP9zCCsPHIO2qPnYwJK4HzfO+egvmcQ6s31IalfTW43iG4vsXib7D9pu1/5ZVWufag7TSyjKt142a3GOFZtBPa6sq5jSNcuWHeizChLMQB1AUroVo5BPagbkeri5Bwfp8oTzd5kVgB0EkeWN5j4So9BdneS558Dez0xTon0TBBPUkj1UqBuWaoOa+A5jnGOE8ZtB3gmPk4HdY69CUQH+OJu7pjOBCb9XXWGGSait0AK92ZgUg8WTmZiU+7tRsQwyWDhZCYkTqf0OL85Z5hEcIyTYRgmJGxxMgzDhISFk2EYJiQsnAzDMCFJaeHk+CbDMKkIW5wMwzAhYeFkGIYJCQsnwzBMSFg4GYZhQsLCyTAMExIWToZhmJCklXDSWOlts+XUNFWtZBiGGWPY4mQYhglJSv+RDxuyOKsvlvOdPe9D1Rk5PxTEH6+loVpdnIaW+tQbPO3CQ6M+yuFxY4xhW9GwHmPwV4zEH3jO6eA/aMwkZeJZnPQQbn5U/sVvaxRFGmBt4iKHxDWHNRbUrAZnuBBuK4YRTDCLU1pO7vGAGIlsGxLImFW3ADY+VQVL+niYDYYxmVAWpx4vewOLZkCugNwse/x4hmEmkMXpZ1Elwxvbi9rWqoi/FUJ7/XPo1qJ1pod/7ZJWmjuWascFY2XaO/9RqC5Sq1HcRZyN3GRjWNpOv7Kr+F9ELTrfVYuxgciOw+1mXVT5CBHb0+fWqO1y21FovKku6SiT9nHc5fWpa9er0JJzjb9FK+qeLdsL4sQ4rfbxtG+StrHxxjiVxW0O6WscI25M1I7JesoZ51oyacPEsThr5qBonIbeQ2o5GSq2R269E9vTw9aa45ELaCjZmwEa1H5b1djgT6Fo5bUacUGfMcmReasehdIDsXNEs4phDX63rTzqxGFpWFnPGO9URvWAynM0QQsUw/qn7oQVahcBHm+9GOLWOIcxdjkNg7xIDX9LD7TYRwlZ/WpaL4fXtcc6j0ECo0REnwPbgOplx0zzyx+M1XX1j8W45Pa450TtfBSagW7YHif5JMZGRzFyyovTutZ+tRUJ2jaJqCmHkg7j+lMbUVuq619/AK+za/x1yYrFhSjWR2GvEEZsG9ze6BwjzrVk0grujuQL3ewFXuuy+UlYLkSxzHPTR1ufi1k6Dc3QMgAQyeqHRsOSqt+CgoUiVGonYNC6c6wPPMeWLvouQEtDzJKR44NPg5LFWrxkGV3fpXHPG6Tw3u46B1lihsWoz1G8MICIbIMqfNgpGRRRY517BBQFZkkWnsMoL42PTt+Zh9aXeY5IX6vL0pLjktttshJKaQA1LKfLktPgMdegFW9bbTserlPXIEzbJADr4I6Fb4NNNC56zkxZp4bXrWtCLICK4ml4P+hx4Gksere1rq9l7my1gkk7WDj9KF8IJSgE7Xt8YqG+D4u9737o6sOPgSigjZoUe4TFjhMUyuiHrjjWlkCVsWWL5eI2H4ce/Mi/zCifj+UmzpEVQRssGNIqNQTUsLqFddjV6uma5HcOT7xUibhLYIV3oC02L26LzocwbRMAcsnFwG7UG4PCLk6dpJBGyspjFnO8e4fcd3UM8mQoZBK2HEzqkJrCmYEPp5o1ieD6IXMoipZNwLf87Ijv+VMKUUZy/WMPtflQjhZCQFUoQrrhC6AoBz9w2V0OJTIWPce8LyO3y6utxdfjxlTFOOiJXkoj1DYiHIDfq4ZdLjfbxLaYayuLIeJ6UVFsF88t4uDaXZdhESZ9SUnhrJyRCVsvyYBSQyhLpk6CCidIfx4GzqnZoDTvg3Z0n+fNt+OTPgiRTXFEGckF1w+jexrV7lYqFCHbUlnXlEzyKceiAEkllxUfz1o0kBZ5AkaibYxwgCdxZeK6r7whBt2TY91N/MOK8UTKCScJ5Jq8DIhkZ8LjsybDnoJMnCZDQ/4kmKL2gVOD0Piemg/MfrxxTUspAcKls91xhUoy+brxY0miMo4R2u0WQuaT4AmOcnmLF0ItueEJkkLEjmP9vkkZh1FrGxm/dKPvK6x/khCDg9iPSWdS01UfVJ+ZAFMuysBJLRNnUTR7z0OLWgxFQ53KaPpliNFFfEpnOrdBFbqjFMtz7UdxqlWUNDISQRcMHV+rsl4EWI+6EJljhyPQ67HIyc309gKoraMuOkdhi7LcZLKjAKrtjHXN6uQvKYVwebOKoZqsvHhJIY1IPJEr7s5Mr1i72rl+yduGrje60PGy7CoearbHirU3u7smaYTFjPUX94ZOCklknNcUeWxTq2sSk36knHC2nxmElUfOQXv0fExACZzve+cc1PcMQr25PiQ7Hr4P3bVd0KMyxLEJxQAMSwcfTqf7kd5HdW8ZVTc4BKIuqtuPWY/cA0mEx5eYRS6O4yR/ZFek2PF1tyPTBafMu+ruY+5bHoVNyawvjXJ5IYjFhlCsdV0ruOKY64ujzvUbfttgnVS3Lf39NfCcJ8Yp2QZ7u+jT64lQOaTI6zJQtzCOcaY7adUBnmFGE9GhnRJBiWKaDIOkpqvOMGOO7B3APy9lgsDCyTCE6sR/wZN+TFrAwslMYFSCiGKP+nfx3GWICQDHOBmGYULCFifDMExIWDgZhmFCwsLJMAwTkoyPfvZO3xjnJRe9B2//6QNqKTGjtS/DMEwqwhYnwzBMSFg4GYZhQsLCyTAMExIWToZhmJCwcDIMw4SEhZNhGCYkaSWct7z/7/DkaTndP4y/yckwDDMc2OJMwi13fwWe/O7n4GNqmWEYJq06wJPF+Rk11tAbF30YHggp+x+r/hL812vMcTgU774B//OhX8Lv4RNw/0PXQ+6rv4GvNR4Um0g4P3Ox3j6SyHPNUksOb74Edz72W7Uw0fBrkz/BgX/+CWx8US2OJh/9HPzoi7Ogt+Wf4IFfqnWjgLwPo/Dr7/4veFatY9KLCWhx9uIN+09wpzmNuCgmRlixKBCAD6irHP/8Bryr9gmKONbdn1BLaczn/ty3TX79ptrOMCkEu+oufgsP4MOqrc3RgKyNz1wuxdtj1bz4S/jahLQ258I9C3KFtW23ybOPjZG1SVD7+12XEeb3jT/BlwJbm+kMC+dYgq5g1TUXwRst/NC4yYWLpwO8+3avWmaY1GYCxjgTxZaSxzjFMQqPw//8BUDVF2cBPu+CN0RcDC2n734K5uuVTuxU4nw3YGhAlteMyRrxPnJtl6CV5oIs2VjdRNkvVwuILKNaUNjnePfVl+CPhdfD/HfsWKtVN8KOx4oY4Uz44z/vBvi83Pfdnj6A/BzfuKF5PUCU1V3+eHjLHLtehKg3YNkOFag2ikLvuxHI9dQJEe0Yke0K8WKc3tir65wqNuo0jXXdbcx667omv9aqjC7rW10Tp14+MeIJHTMfPdjiHArTZ8F//TxAkxGHm7XkS/AjvIkv3q/jcy/BG7SfE3+cCx8vxAfjnZMB46mfgM+SyKpzyPNcBPO/+OdwC23+5f9yzi0eDrGPfhDpgVKCr7/f0otl/Arc/zmxg4AERj7A+hy/kaJpiiNBwvCQekCdfbF+l1/v2+Pgqs8vBfiF3O9r//Ai/PFdbJ/ZdhwW64dCQUJNZX72MTweWp6feegr8KPquXIXHzxl/uc3AK75lPc7FxfDj2YfVWVtgv/d/SeAywtk2xncMhuF9d3j8Lt44QBRdxQjp43lOR3bmERNia3c/hs4gNL1X0P1xEh2rY9i21wEV33EquNH58JVeK3eOCSF8WPVxe4YMcXM8Rolak9maExA4ZQP55PGFP7GQmvgFzGL4tndlNS5CKajsMQsld/Cr171f1iD8Vt4wLJa5HkicPlH1Yp4fI7Ez11GEloh8AvUA42CsPRysmpMC+8gbHyIBMzNLUvRmvJYLlg+ejDx5fBZQ4wB2wG6dxuWER5zP8rM5cVwj1nuzxWgvPwJ/vgHbSnK+DKVcToKoe91EWUmy9ko84u/hCZs5+nXXO9u5+lR2G2U9/d/OI5tlwvFrrJ+AorpePvjWYf4Avq8T93xnA8IaxO3e2KzWN9f+LVLIpJd699CB7VL4VyXGH/sIzNhOlq3v1Lnptipy1LGcu6m711ieybMcJmAwunNqodOBtkWyosnhQUyKjE6kW1WIi/cwYvg4ny1LQ7Cinqzw5NU6X4bhXz6dCjEefHQoQv7psfS6oV3XKl9JS7KqnHx4kFfa7K332pPH4spXhmffUxeE0dAjR4DtlBoft8fxf+tF8q770K3mhUoEXFeHIQQ717osI7nYFl0HsR2fPnstrar+yE3O+QLOcG1FkLqEmPpwbzbfdASfelt6OOIUM3Fl4awfpkgpKxw2t4iwHmYnta/FjoIb76DH0FvYuEi4s2/BFxuafLuSnPh8ovxg9xo/RCqyYyhFV6C87a4+PHRS9FOC8Of4J0eNetgW0wJxFghBLSFLNXrnfCCKDOFP6x6eWO9iE9I5NlDeLzpM+HjQmC1tXjUsLgt8qfjfehXH4XYTi61VR47zpiMINfafkkpryJmscswxpMPfQqu6v6NYxSIUA4z4qSkcC49dwy+/94ZuEYtE1cN9sPHz6kF+AD8R4aaTSPcD24iDBcxQLLEjRJoMybnmkIeT1lPw0VaTKruySw9zS9fggOGWAiLmRIvvvUK0G3JtHzjWYsmPe8mflGJ7RTu8CtPUE8m6LU+CL8z4rQeix2t1c+I0MvodqdjJCknnFcN9kH12TMw/f1j8I0zh+GfzhzB6TB8509RmKz2gcxL4NdpKJxSCNBC+fzQfsIp3evkCIFJEluNK+LKPY0hXXdvcgdJ5sqaCIuJROsTwtLTSaEg6BCIcMkDvXjiIePOZPneItz+BEkhQrw0fJIymmTbh4Hftf59Y4dIoBV/LrnFLpH7MSNPasc4z5+Dyeffx8kxNQEyIvDrKR+EA2oxvVDJF+FuqoypCcW4RExPWY2m+KE7R31AbfxEUj9gn7Ezu3h8J6uuRVxnbgXK+lFLEpXsINff9QulT8D9FIdzJUYSIS2m6YXFwtIzXUxxLJ/2uOVu6tLUC7u1BeVbZgTb5v6ACT6RJML2/wy2ZfykkOa38EBLr4i1uhJVzvmUEON2s7eCaMe7ddvjPMUc42bZg19rHfKYteR6mGXHeoX1a8WR7w4ZMmACk3LC+cdJOfCtqTPhj5l2X89JMPCBHHh2Kk5qTXois8f/89WIJ7tPsTptRTz72G9QJIweANT9ySfG6Yik2E8LCp1DdYvR36dpwbvGw0Yibp3jIepGROvULhrxixrV/cjZV/Z3DdNHUJR1+kVxLD1vbwfZncrO+lPcztr3i9OhI6h7qmKFZEknDRUQ1O0L2526PMXONxPeUcIvfgWkuno52x/6FFx8KJkoxwh6rQnhKSCepBBdIyXyuhzFh1I0xnn+fNpPPMolY0EWkkwwjHysTHbQpr6GwazU8Yno7B7ihxBpCQmMha/QpCmp7aozY4+KW3q6FI0A1EE7UFJonCN6BwT+IUQaoayx8zTRomvyrknniYVzwoLWnyfuFjZuGQb3L4UmLB9VnfiDJNTSASWWQjBpUa70mcYX7KpPWKRLbv+80v7d9/CR7jklKUb+2OmD+XcD/P5mQNqhhNIlis6s2kaCOk5h4WQYJjhKDM3/Yx844xJLWlaziLkl3WFXnWGYUEgBVDIotBH/nR/EGb1OLotYp/iUExiTuT4dJxZOhmGCQUIoZ8T/WjRpvVwmoaQ16nOQRIbmvcIjtqXxxMLJMExyhCCKGfG/0EvxHy0roRTLUljEZyKRPH8uracMuKJctYSbqy6bBn88dlotJWa09mUYJlVQMiE+tGTodfLzgx+cClcVXgm52ZdAZmamWDdeYeFkGCYJhkSIWb2Mn1o0p0+F6z8yD/798DHofzsKZ/50Vqwfr7CrzjBMMOKIJs1f9eEr4Y//3gM9x/vGvWgSLJwMwyRAiyNhiKaDFFByz8nSnCiwcDIMEx5hbcYmimm+9/77tGVCwMLJMExyHCPTmZFYixMFFk6GYeIQRxUtazMW65w4pJVw1uZMhrbZcmqaqlYyDDMG+Iijs4qFk7H4wUMr4Y3H58NdaplhGJOJJ5rEhBLOu77+KXijEYXQnhxhnAXP4/Ifvk7DRI4eQoytMoz2OWOMTR1h6Xz4A57n+Sq1zKQvcbURN4htbHFOAPrgmeptMMuc/tsBeEJtHV2kaN0KL7nPv71PbWeYVMYUyIknlibsqrt4A25EIfvID2n0rJHnrq/PhTkk3N99Q61RNO0ZtXN6Gd06Ouw+AB/B89zYpJaZccTICugPv1sDbZsfdU20zuTjH70afv3//g3ctvL/Umvc1H5pJTT/bL3YzybRtqHCwjmGzMmZDhCNwutqmWFSlziCqDPoI6CdJGQkaDNzLoZFN93rTH/34y1wSeSDai/J7158Df7w2hvwheWL1JoLCwuni+TxPxEnpZioiuHpGKWM5V0MTz9uxC6tpNK3XkGXPPJhuDVI3M86vn0sbzk+BXs3evcTuOKN8epolZ2mh8zBZeX3YtsXww/UFl/8YpxVi43vy8nZ7re/wp2g8ymnX52ZlGb2lTPhu//9i/DCy4eg6ut1aq3k6W3/B2q+/fdqKcbe9oOQhyI7kpbjUGHhHAoofuvwAf+RilE+043WZMWn4A+PfxJm7taxy5fgddrPFB90yeW+SR52EpivfBje2q6P9W/QAngsz3c+BF9zyvEbKG0lYf4QLF+qNivuKvsQZEEftMV1m0kUPwlL4N9hvaqTKL/aKkXtevjQC/+mtlGdc+DWZOLpAgUPy2XGl9e/8K5oN1oPu9+AA1Fsm2vtkcBnwaJCgIGDb8g4dNV1MP9grBy+7cyMEdrUDG9yrvq/yyAyYxo8+4vdao0/5LJrN/v3aHX+6U/vwS2ft27wIdD0w9Wu0AC58xptCett2574rhB6DX13AgonPfBuiyV8hvldaGmKJZS+tf3fYQCmQ1b/S0ZM7w14BoUBCq9wicu3vosPOyWD6GH3tZZIYHIAus1jvQO3NeE5bGs1AnDAKAc0HUGxmw7zy8z6XAzL506HgRdehm+pNTY/eOh6mBNF0XQlyd6AG1Us9gcVH4Ys3P4jIy76re+SsObA5wK3Hdbhv+1xleGJHx4U5Z2Jwkjbdx70thdUXSHiwr/U5/bEg1U7Z1/MVmcaUTp/Dhw91idc8KAcOnwcfvPbdphbeLlLyMJCYpw1Yzrc8tVHRGigccsutUWK5ve/dQds/tffO6GDgVPvwsb77nSdcwIKpzerHjpREn0Ldpovyt3vwFv4MdAX8Dj48ItzOwJqWG5LZ8H8CArzdiuBpM7xoZmmUJ2Gw64XthSRrBuu8xzvQGu8slkWnQe5/fXdds+Dd+A4WohZ6DqFwgkt0ISCjat0naSQusX4B9fSS+SIR/TNLl3rbpiO7RgRx2LSh+MBnpevP9QA5X+xzhHY3+3vhIsu+gB8bBjuOsVUSQxJiIn6n2wTE0HWLAm6Xib+ZWebsI7Nc6amcGYIY8pDBNePK4SASsvtVu1qFkbQrZ4OS74SEwZTZFz4JJqeaH0Lrd8cWKQsU2ktWkJvsvRidPgB3joe5yZW20V4wVUedO39LlJcVIz0Kx+CA/+kX1pGOEDwBrR1oxjPnSWtRxTZz5FovxJ7iei+uGaXLnL5mfSDBCwsI5EkIiEsQutxzz9/35OlpzLNm13gcuO/8VeVMOUDk9UekpQUzsoZmbD1kgwoNYSyZOokqMhSC3AeBs6p2bTHcum7oyh8aHE64uKeklrHrlhhPGvRQFmycVHbX3firdZkd62KgxMOqP4N3JYgrCUTaDJOK2Kz+J1ndMgChfRraF2KsgQ8L5OakLVJ7vJQXO7hJoko+bT4i9+GZ3/ZIkTRFtB/2/uK46brifan72lSTjhJINfkZUAkOxMenzUZ9hRk4jQZGvInwRS1D5wahMb31Px4QVuPQqjsOGUY3kFhQvEhIVbxwfhJIUK63N6kjCbZ9mEgymfR9DK0RKn+s2RsNm4IQSNjuEx6QeKXc2lEJInCQgJ2AoXXTBId731bWIUfXzBPrYkRL55K7jjFOftORqG0ZK5YR4IeJIaamq76oPrMBJhyUQZOapk4i6LZex5a1GI6QXE5T3ebqsUiRhezCnWc8pPWvhfD0w8F7HYjkkTo/lfkJEwKSVTiqfB6b/cjsayF+HpPEu0HD8Vis9KFVhlyH17vQ6valfHH42P5vMgkUdYN18OSiJEUIpT1a4r4XV9fFDJkwKQCJH5k8VVXLvN0difrr+H7XxXzZlbdZO+B110CR8frOnwcbvr0x1z7Urac3HJyzzX/8Ld3xbVWtaDffcfn1RqZMKLvmKSccLafGYSVR85Be/R8TEAJnO975xzU9wxCvbk+zfDECiumCbfc/IXNEz/8jUgcuff9JMx8JYHL7ULGCin7Hz8pZCB+5fMSvE7i6ZzvegAdW6RY7D/9OwCKeWz7SvhcXzJRjkF1eqbbjN1eAW2eGKdExmkRT1LoDbgRyyFEXpXha9DGMc40hSy+u//mCbjhutmumOJXUbT+teVFtZc/fkki6g9K/UIf+5u7nGORkFKCyXSzqXO93ufZv/8mHOx+U+xD0H5//9QvhFjqY5B47257VWzX8GBtzOhA2XORCEoc02RSFUMWxCz9h5P+W5zik4YBpvlB+PSNy+Bf/0/MqhsLSNAomWN3oB8LUtNVZ9If0TvA7i7FMCMHudUFl+XE/f36aMLCyYwCuhO/t/8lw4wU5FZTH0/TDR8rWDiZkcP5LfonYUn/S9xliBm3sHAyI4f+RVSI/p0Mk46wcDIMw4SEhZNhGCYkLJwMwzAhYeFkGIYJCQsnwzBMSFg4GYZhQsLCyTAMExIWToZhmJCwcDIMw4SEhZNhGCYkaSWctTmToW22nJqmqpUMwzAW9Pc0zSF+aaJhfUcKtjgZhhlX0J+Zo7/VaQ7xS38w+e3of6g9hs+EEs7aOnzzPHUnrFDLNmJ7XWxg+tFnJTQZb0Q5PQgby9Xm0ab8TthJb2L3yAUjTrJ2Z5iRhMYPomE0zCF+abyh/+evg42fEAS2OC8UNatRJJcBbHWPptfYpbYzzDiHxgva9sR3XYYDjRFkQu61nmj7P63/b+I79jhF2jXX36c/cBxvXCENWaY0wqU+t+nK67L9499+2SkjnZvOQd9j4bwgLECrsgCgaxdUyaFOHOpX3wf3NKuF0ab5SViOYm2XYaSpX40vhTuehB1qmWFI1Bo2fBUGTr3rGA1/9+MtcMvnlnhEkcY5p8HZaJ+vrHtcjBFkj0SpR7eksYgee+oXED11Whwn3l+Hp/Vfvu2zYnwhOi6NdknDFdtx0I9eWwQ/2/ZvYp8f/I/nxHHJomXhvCBcAblZANETR9Qyw0wsaGhfEqH76n6m1si/6E4utS2Kb751Erb+f61qCeDZX+z2DNRGQwDTQG30/UPopq+86yEx7zduOvGF5YvE/vqvx9N3fvPbdo+lSi6/uY8WbRbOhKBl+FTMjaBp59oFaptkxdoHE2534qbCNad9VkMtbIO96JJHyspxPjniGMY53DFJGSeldc5+dX8ly+0XrxXlUHHUeDFOp6x6suKu6nvO9iTxS2+M09uu5va4MVG7vJ5y+tSFSUlokDUSIRIjExpHiETxQ7hdQ1apuR8JIo2rrsdCJ6HLw/3puyY0ciVZilpAtSVLokzW5SdLr3XdOzRUsQ2Ns26iRZuFMy70cFfBkr5dovHFVN8BPWorQQ/4+rJ+aDS2Q1mVRzwhpwx2zpeuxqKb6qAeV9Wv3gWdUADVeME8+ztIganO6YB1+hxbj8K8VV6ByC9/EEoPqH1W/xi2d5wGKJrjEeba+QV4J3bD9jjhAPEiWFUAnUbsdV1rv9qKkFjVFkOPs70JWqAY1odJ/tSUQ0lHk3P8RTdhW2ThMZTQ1x84CpBVCBVWkmzF4kKIwFHYK0ILFO6AWNvjtK71NLbNGCbXmAuGOa46uekkpPHGHiIBbdyySwxDbFqTtC52D8qJxjAioY2HFm0WzrhId7rzQCwzRzHBqof3y3m0fiqLcPtWKYQC3L4BH16PJZnVD1tWG8cRbIMqvFCUDIqg2NIbzyOgKDBLsk5DS4MRH2yoE9+Zh+c3hSrS1+qKVe7Y0w1RFOZSl8CuhFIqM5bTN96Ix1xTNk2IputYD9epuCuJlR2b3Q/3NHRAFIXv9qDWHtZhuW5HwTbYhO0GOTNlnRpex5fKNChZbLbHAqgongbR1mbV3njeO4y2R3Y83Cq+lztbrWBSFrLkbJecICvyT396D96yLD0bct3/dPY94a6Tm05CmojjvW+LzyI8H1mvZMXS94YCnYuFMy5HoHcABSqOBSOsn4EO2GQlVnYcI+ssG4rM7wxEAW1RX0TixBRQw70W1mFXqydZ1HECRSYrgnZeDE+8FMVxiy2wNXNgnmOxeXFbdD6UL4QSEvIt1kug+biwxPMvi2c5+2OGINajYMfqJIXU9QJS527fYwouotx3eZxlWL/w5WDGHnJ5IzOmwYOr/0KtkQkbsggp1mi78Da0/Y03e+HTSz4q3G5KCmnWf73KN6ZJMdXfK2uSxI+STmYWn75D300GiXZqCmcGioiaNYng+rGDLBoStGmwpFY+mKZFWJxHDzq6l85DqyZ0cz30HU+aURYCim44FC1TbvgCKMrBD1x2HR8nITIWPccsQUHcLq+2Fl93WWkmok4JRB5mR/C6xNojNknBCoqOC1dDzFUiN9vEtphrK4vxRWWGGFQf2NpCaK/XrhaFP5h0gFzeb//gKZGM0ffRV+/4vMhym/0vE0ExzeKrCkSs1HSvp0+7SMQ0Y/fno2I9JYy0INM5yFWnuKbeh7Ls//L8XrE9EXSMlBTOyhmZsPWSDCg1hLJk6iSoQNdZch4GzqnZEPhZajGkUNmWm7YISdRMi1AcCy1OJ/bomobYpaihGVrIyp1P59gPXX34gW6x9/g0ud1UX0yXN561aCDqlIhDURQzPIYjVO7J7X7HwQgHLPKELwya90G70xbeEENtHYq1aP8x7L7FjCgkdhRT1PfP4i9+2xOnrPp6nZjicfa99+MmhczJ7xgknuY+ZnyTxJGElo7lR8oJJwnkmrwMiGRnwuOzJsOegkycJkND/iSYovaBU4PQ+J6aD4F/3E8RzxXUNNRJq0jF4YRL7pPAGAm0eAsh80nwBEe5vMULoVaEFuInhYikdRIuuR17HAlk/NINWvzNZIFj/ZOEGBzEfsxEgeKhpvs9lqSmqz6oPjMBplyUgZNaJs6iaPaehxa1GAod9/PELdHtq0VX0BVPxHWu7jzq4dZut7AOyW2l7kUGaFE1xc2Sa8jNtL6H1NZVwZKso7BFWW4y2VEA1XbGumZ14G434mWRVQzVZOXFSwppROKJ6uRunxVrV6tlHXusss6/ADbW6TLKngBxuyipeKi0JCUr1t6M9VYLJsJixvqvKjCSQhLpPZgij23qFyZhRhHtEo5pDE1AsVDKkgeJh44GKSec7WcGYeWRc9AePR8TUALn+945B/U9g1Bvrg8Jud7rWsGK06mfPtquoyu+qLomOfvoGKjsUuTsVxuBvUFcVhIE83s4yW5HpgtOmXfV3cfctzzqSUrFRbm8EMRiQ/zaZ31x1LFUdzx8n9MlyikPtk3ugaC/DMI61XdA1GjbNfCcJ8Ypkf1dAbyeAJXDjD+3bZ4DeznGOSGgX/c89jd3iQ7sQeOhI00GXFGOCuXlqsumwR+PJYl5KUZrX2Z8QNlzkQhKFNNkUhAlDeKD/tPLZLng/Hma5Pynl38S/vX/tInNE4HUdNWZcYR/0o1JZ0zXfOzd9FSAhZMZXVQn/rhJNyaNYMHUsHAyo4BKEFHscVU2tNRzl6G0Jq5G4gaxLQPOnTsHH5g8WaydCHCMk2GYOBjSQPFMOaPmzc9BKLmuGI73DcDx3pNir/EOW5wMwwTAx+x0VmXAH//9Dbjqw/ni548TAbY4GYZJgJIH8aEsTDGr5g2r84MfnIbiWQi5OdmQmZkpdhuvsHAyDJMAQx783HWXeBqfopsSodbpWQfXQtoxIsLJMMx4xZAHUzjFB33ipD/Nedc6/BA4M2kPxzgZhkmAGdvU89a6DFpWk5531qHEZNBE6/R8+k/4P8MwTABIB+V/8lOIozmvJhIX/SkEU6/Tk9ovjSeqBcMwTAJILOJgi6cWUC2apljq7WJbek/4P8MwTEBICx0hVZ9CIMWMnLR4krzEFUu9Pj0nrAHDMEwyUDA0YlYv06cUEzHZy6ZI6m1iIulJ34n+ZxiGCQAJnkLMGst6Pq5IqvXjZBoV4VwRyYS22ZPFtHNsBwpiGGasEI+2+XzTvFr2iI0Sz3EyscXJMEwItHgoxKK1ztnHWu8R0/SdUl849fCv8YZiGAPkqIzeoS4YZuKCAmJCi1pY7G2OgI6fKeWFU45ffhqiozQwGsMwQ4VExAehLW6hGW9TigunHCCts/k5aB8YjdEVgyHG2QkyHC/DTDhMQbEwN42zKbWFU/z1cBpkbD9s75DD3F4od51hmGSY6jK+GZU/8kFZ9fV5svGiJ87Bchqxcgi4BvmiWGdtMfRsvReqXKM10lC7cpTKTZc9COvLYuNzR1ubYLkx4qRzvC0zxbEiaj0MdMC6O+KP0kgxzvVl/dBoWJ1ynTkW+OnYXzqPW1ZVBhrNUpxPlt01FngXD2rGjHfS/499pLDFuRJKiwA6DygRUcPcmuNxm+SXPyiGmV10071y2npUjP+90x7jPKcMdtYAbND70ZCyWcWwPlTyaSXcXtwN65xj0DDBxhjrccsq6xTt2CdEesXaMjkssT6OGjbXU2aGGVeYlml6TqkrnDVz0BIzxwKX7joUzfHNbkf6Wl3WJTTUibG6I2Xl7v2z+mGLy7pU43yjeN6OghoM/I5lodZvwWNANhSJBFacsqo6bVHlpNipyyJtfhK2dGFd8q5QKxiGSUVSVDgXwMbyAnRbX3clZHbs6UZxKoBSH4FzLFODHcf68X8tZgrrmILm49CDH/mXhbT0albLAcloEq7/NMidLTfteLgVOrGslYb1WDvfWyfXwGY4VaNFCjkzOZbLMCnMsIXT74dBucM9avlCKMnCT3RbHWFyxAld4PIL16dToPuWrgJoNN1stVmyDfaS9agTWvidSjP0gFC8s21zFZR0NBkuv9rIMEzKMiyJK5k6CbbmZsAthnhGJk+C2y+Nreh9P3wgWPTdRJfWESVjIvcbQvXp7IeugEPT9hwLMvY3Wog1KOCUxEnSRan+wFGnrLI/agds0q45WqvVRZRQutcdYmAYJuUZsnCSQD5y2SSIRDLhW4WTYU9Bpph2XjEJcvRRzw7C9jNqPjCy76avS41IF9jbp9MvaSRc44EodKhlgV+MVMQeT0PvIbU8BKTYWzQ0Q4vof7pS1EknheIjk0cMw6Q2w3OqtTGJR5lyUYaYnCMOnoeWY4PQENbgFH03/WOWEssF1qBb32TEPqm7EMULO5vtbkYFUF1niCy53aso9tgquxIh8ieWD8JGX6t2P3T14YcpwHiMNa6uSRrV/7RsmeiPqpNCgkNRdO3dL4DaOqtrEsMwKcmQhTP6/iD8+eFz8Pw75+HsObVSEY0OwrO47Z731YoQCCvRlU33Il1gdxa8c2sT9JbH4qHry0C4wXY/Suonue5EmbMfxU2htSlU38n61U1oSaIA62NQ9yZPjFMiE1qIbUGjoC9XXaZ0WUoPcIyTYdKBcTDKZawDvEckLVwd6kMgOrtTv80EneQZhpk4DM9VnyAU56Eb3necRZNhGAELZzJ8uhExDDOxYeGMg+xjiVOc35wzDDNxGQcxToZhmLGFLU6GYZiQsHAyDMOEhIWTYRgmJCycDMMwIWHhZBiGCQkLJ8MwTEhYOBmGYULCwskwDBMSFk6GYZiQsHAyDMOEZFSEk8ZVb5s9WUw7/QYlYhiGSWMmrMUp/sp7qLHULyzOHx3ZrMZuZxjmgpFywikFIo44qOF4dxpD7jqokSd9t40Y7qF8nWmUBVj8AeacDlgnBqyjAeLojzePTF3lMCEsxgwThpQTTjEsRpyx01dcli0+I3lXiE8XsyMQgdPQvmd0RoyUAuMeyldOu6BT7TM6yAHckg/0xjDMWJF6rnrD60KI8i+zrSk1+iXhM1KlHKso+FDAoUBLV49h5B3KdxtUjfmQGnhOFO2RGFZ4x8P3KSuWYZigpGCM8wj0DviMYlm+EEpo9Msuskizocg1AuUCKMrBjzhDCg8PdItXFUC09TlnFEyGYSY2o/KHjCmrvj5PZtOjJ87B8mi4MYLF4GjCwrsvJlYU31wF0HjT61C6eRnktzbFLC6Kb9p/qV2tc8Y6H+hwDbYWG4DtONyOx4sNy3sUz2FYYM55Q1hl4jtkAWtOu+uCOAPHbZnpKmfUqJdsB/eww3L7FWKAOlcbED51buwohOqy/rjll+dwb/ee1yi/qFu2pz4y/lsFS/r0YHhyED3XcMdd4QfKY5hUJCWz6nJI3WmQO1utQIQrLixKn3HVVXyz95BapodbCamMQzZBCxTDek8SpxDWbJ4De514pR72N5YsEecdiEKHWk6GSG4JYdHHvBfWtQIsqX3UNe67oGiZHFpYn18NF6z3k260jKGSYNI+cd1zT53xvEI0/cZ7T8RKuJ1eKLpMODV2TcPyqzYRoRT3ePAC7RGosZlWrMU3n1GWRTR8MtZ3dJN3DDM2pKRwQvM+aEd3fd78lWqFSpCcOCKWOk6gJZwVQSmUSHHrhu3CAkLLp5xEdpcxTtB+uKcBH1xrLHbAB7293rTEcL87SKgKoHIoD7gY2M1rXZIA0njp83C7W7jRujXjow3NKNxmvYMi60ziao6NpM8bDm/Mtn4LjRmvwyM+Ly5kxeJCiKCFu0mdn87tGqep+UnYQt/zS+wxTJqRmsKJAtbVhx85M+XDWT4T8o2MubRIdeZdxjedrLOwfFC8tlguYfNx6MEPV9LJEVsTFWMdwgMuxcPvmKq3QFYhVJixWU9M1qp3UJS113PMa42Kl8xQIAtWd7cS7n/MAxBC6noJycSdN/Pv7r5VjS+/0HVjmBRk2MLp98Og3BGQY1NoPIKkLFIhgrZoCLedXMvYAysnK94WENu6TYQYf/1CYIcqhgPFSam9RFzXcLPVZoHtEdSUwxJ8WZldwWR/XHf3rfDWL8OkJsOSuJKpk2BrbgbcYohnZPIkuP3S2Ire98MlhhycWNpK2Q2p77hhzUjLjNzFWhJVdHn3arfwUBQfcnKX1UNvTUG78OiwgNu6TcyQrbuUAS3EGrQuKYmTMBm2H7Z3YF1VtzAZf251JfKqRchiZLpMMUyqMWThJIF85LJJEIlkwrcKJ8Oegkwx7bxiEuToo54dhO1n1HxotMs8B3KNpINGWqQRKCUrz3R5hUvuk7zww3adCduCVbG5eauS/7pmx7F+/2Mi7jjsCBMvYaNc6OEiLH41r9nxcKuIBZfWyPizfX28yP0YZjwwPKdaG5N4lCkXZYjJOeLgeWg5NggNQzQ4Y1ZNAbrYhkWpEWKB24ykkWQbbGo97cpOS9CaqrOTM+jS15jrVkITxfOMJAdRv1pn2x+EjR6hRddWZ+sb6lQG2r0fde8RFljDaHWU96/zirU3owutFhRUlja/eghUjNX8gQHWb41vZl4mieatWgbzrPaSVr9byGvrhhYqYZhUZMjCGX1/EP788Dl4/p3zcPacWqmIRgfhWdx2z/tqxRCRbjLi2x1IWqTUx9D+maXoxrP1KD7UZoyzCnIPWMJFfTubI7DejIOSm+r5JRBl29HV39rvjZ2i0IKRFKlfHet+pPeR/STtfo8jC9V5HYqnWec18JxYF4bYS0IdB4V4gx3jVMifxxqJOQ1a6ctV1ypdltIDHONkxg+j0gGeSR1EZ3bR0d/f2k22nWEYL8Nz1ZkUR8U4XYk1N6InQILtDMN4YeEcJ9TWeeOWtXVVsCTrKDTG+5mj6LAfJLHDMIwJu+rjBO/vyxGK4fq44OJ38irD3Wn+vp9hmECwcDIMw4SEXXWGYZiQsHAyDMOEhIWTYRgmJHGFk+ObDMMw/rDFyTAMExIWToZhmJCwcDIMw4SEhZNhGCYkLJwMwzAhYeFkGIYJCQsnwzBMSFg4GYZhQsLCyTAMExJLOKfCjOlqNhBh92cYhkl3AP5/GQ8hMyoAqtMAAAAASUVORK5CYII=;movable=0;resizable=0;rotatable=0;deletable=0;editable=0;locked=1;connectable=0;" parent="WIyWlLk6GJQsqaUBKTNV-1" vertex="1">
          <mxGeometry x="-192" y="190" width="191.48" height="309" as="geometry" />
        </mxCell>
        <mxCell id="OdEKxOvV1YU56GnAyZDW-7" value="" style="shape=image;verticalLabelPosition=bottom;labelBackgroundColor=default;verticalAlign=top;aspect=fixed;imageAspect=0;image=data:image/png,iVBORw0KGgoAAAANSUhEUgAAAS0AAAJ9CAYAAABghSSEAAAAAXNSR0IArs4c6QAAAARnQU1BAACxjwv8YQUAAAAJcEhZcwAADsMAAA7DAcdvqGQAAIBjSURBVHhe7b0NfFXVme//C6EIlBORJIJEiaHQRCtY5KUd4F+C3tuSTkO8dqajN9EZqeM4/3FKsC9Ui53/VLT15ZbQsdeOY+NcTarXufUKTAvt51bC/AmdhiAKviRCjUGIvCQgOQxQFLjPetl7r/1yztknOQlnJ8/389mw9z7r7L322nv99vM8a+U8Obi8/DwYhmEiwgj9P8MwTCRg0WIYJlKwaDEMEylYtBiGiRQsWgzDRAoWLYZhIgWLFsMwkSJQtCaOH6XXGIZhsgu2tBiGiRQsWgzDRAoWLYZhIgWLFsMwkYJFi2GYSMGixTBMpGDRYhgmUrBoMZFnyc1voPXRTtTqbWZok3WidaEfwKq57+PPFhzAx0ef1XuiQVTrzTDp0kfRGo1xY/VqKNItf+F44708jB51FpeNP633RIOo1pth0qVPonXZLV/Fhif+BndP1zuSMhqzb6fya/4cX56kdyVh0/OfwpxvFqNObw82738wGqfP5OJTV/TqPdEgqvVmmHTpk2i9v+7f0RS/FLesSiVcSrAeW3Ip3v33/x+/Oqh3ZzH/cToX7V3jMH7chyiIndF7s5+o1pth0iUwsYX4g+lDH6R48MfOxt89shSfjx3Gc6t/jMf36P0G19z2N/iHPybB2vQ/8LdPv4MTen8yRExr9exxaDCtres70VrRoTcU7RvLUf0yrUw/hM13voUua9ug9u4m1Ey4Cqu+NxGbcAZrv7sNC2L6Q0Hc+syN6PR/POcgXnv3YrzacbHem4iA43ZehzmP5+kN65qO6C1Bifv60IvGR18B6Bq2X011Lta7rfp5rt++dg/p1Vuds1Rvueqk2zQWeB1A85OfwnJxv5PdF0n/rkveP1AdfnVK1Ufv9963wGeGkN+3zkkkajcmWvQ9EH9yB/7+W+vx6wQWV18EKxgShYWgB7Kc3Ea1rNpRiNKKN7BWnHPPJdgVB0qv9rpFvZhLD2z87UvUw339+5j59nz7GHO+eR3aY29h9d1+d6o7Pgr7joxF6eQTKQLbolOSYIE6kXlc/akStCbdoazPy9HQ2YGaR3X9DUormjD3TV3uyasQp/qt/O4baF042j6+69o9hK63ECUSk8k7nPZQddIDIHsmYvHGEqD4Pec89J2VJLztG7VgpbovBv26rgnvYfMtwMO6nH3fvnsIS3QRP6rd5QvL+h5dj6hH4/W6CBNZ+jd6KIXrf+Jfe9zCZQvWL36K2/slWIJRWP499xt00/NXkDAcQcEVYmsUNr5dSB3smHvE8fpjZEWUYN3z+md2Xi7GYmtdkodnqaNgwqnAh/+97jEpA9u1d5Ol4rPW8lBtWScklAtiXqsKqHt8PprjR7DgCx7BJMvGtgRIONZ1AjEyL5qfc45vXfvM2cGWcKh6f4GsFqr3w0Z71D0uxLYDVTfr41J7NXRSHW9R4iC/Y9Yv5X0x6M91xcZhnbd9tfDdmkiAZLsXuo6vrocEdGEysWOiQP9ES3DyTXx/lSNc9/61IVjP7NOFMoC0DprQKhfl1ky+VD3g6oE3OhxRezW5HZ2XuDqVQLgM6hjCAiKXLXYaZfozEyuwfUXBKb3Hi8eSCyBRHRIJbfubjismaOumMhiHjgDXOxFh692+1RQCwWiy1Kg5Chyxk0ImxOHuTnKzSHwNV9EmyX2x6Nd1BbXfnjHoov+857FQ7X6Ftggd5HkT3G8mOvRftASGcH2pPNOCJVww6hB3dmPXk4aLoD9V5GG7eHt/8ph6i1JHqhId0+gsav6XjpFol0G4JImwAttTCk8GB7ann8Jk+q/rcKIfTDyDkgl6dRAJW2/hKlnirRZPXE5CVo1wq4o7yC10W1Xh7suFQLd78Sue69MvKSbyZEa0BFK4foy/uvexjFpYtgv2TSuWEkzdmyWkWt2oIBd1yexu6f48a7kkdjyGOlaQtZCA/eRqCS4Pslr02z4xo9BxVK8OMmHqLdtCi7drcbUPCVNFB+JxEW9yT/gNe18GkuAXhm53MYgQdH0eV52JHpkTLcHJw3j9HfIxBhoZr/Lw8mUyTjRzdi8qPnkkqdumOCPLJUMEtj848TEUF5zUe0yUO+UfAHCQ7og31ibR5w50HftPf+ttYQnTw9+bTm3bgZqAQQsXQfelvwS1nzxPIbrf09seErc7MxTIrGgNACoOoSwohXr7+1FxotjsV2Tw2w7AC7R1YXbUJTfvCXCH/IiZ5mLu07RJ/6H3WIzC8ueuQly4Ia7OTPXT25ue153d82dJtXcLVyxBjChDJK33VjEy+Ao2GzFAQe3dRj2vF3EsK5jtXKs1+hb+vvQXj1iKGJo4T0DMysKKcdZ4Rxjpmnj0MPpkvWiJGfJyFOtOKzZxDNsTxE427SiAtPN8FowecTLiHCsxPWlMyyJpYFtMDRB1ccVPXgHsWJoYYbOmE1ifW0PxA+umJK33y8Vy6gFmbzPq3YSq7stUnfT8qfiO6Y4w6FE/a1pCOvelX5Cbt4pMKrued74FiKkaSQWf7vc356MZb2G19T2xLBzthAyYyNL3yaUDhJwo+MmCwEmfF4rF13Tj0ov/gH/dMUkGuqNCVOttYU8uHUCLlIkeWWdplRUcAY6OyRrBEuzuzJNzn6Zf1r8ZZ4NNVOvNMMnILtEKmKqQDYjA9v/YPCXEn8ZkF1GtN8MkI6tES8Qrgv6GkGEYxiLrYloMwzDJyPrRQ4ZhGBMWLYZhIgWLFsMwkaLfoiXiXwzDMIMFW1oMw0QKFi2GYSIFixbDMJGCRYthmEjBosUwTKRg0WIYJlKwaDEMEylYtLKEO++5Afsa5uMRvQ1MwcsNlXj9Hv6FBoYxYdFiGCZSDLxojR2NcXo1FOmWH2SkRfTEDNyptxmGGVwGWLQuwZ3334sN36/ANXpPUsZOxT1/dy9+du9ncZnexTAMYzLAonUMP/vVG+i+YiH+IZVwScH6c3y56DCa1r+K9/VuhmEYk37/CGCYsuPKv4Kn77gWBe9txd/euxGv6/0OU3D3w1/FLSRYP//+T/HDN5zU7Km5GM898Tl3OrDO1zDlO07CWOHSrbpurN4S9OD5mm34lt5SQe9rgY0b8PxEs+xJNP/kN7hlK60unIHX77oS7h+Ctj53vt96dSVuLqaPXHVQn0/TW4LeV/4N1/zwuN6y6njKqJf6zqWecr56xN/F6r/ejSf1pjzO9MNY3Qh8TZYzroFhhgCDEog/0fQCbn/qtQQWV38ES3RsEixQx63ZgClyeQ179adK0Cq1GFifkzB15uPmhhvw3EJdTDOtohJfQ6tRbiwW3KVH9LbuxjW0b/UrJ5VQyDJuMbh04Q2Y86Y+jyVY1fOxT4uPddwpP3kXuO5z2PfgFFUmLOJYJESHSRzVsf4NzbgSq3wxtkvxtWrgRwF1ZJioM2ijh1K4frQDXS7hcgTrub//cZqCBTzyIFkvHksD2IfrbcH4FFlgXqsK+NZ3qLPHSZAqPKJB1pFp1Xxr47voRT7mkACEIe/oHlxPFo4DiebCfJ9VJQVwYw9QPN0nnIlRxxJ1dM5xHLc0Uh1jV+Jms45kde5uNNuEYYYOgyZaghMtL+KvbOG6CfcagvV4gmzBiZmCOeSG9e7Zl7BzPnK16OT7XYKlOI7Ne8hiKr7cmBcF7H3TcSklW4/jMP136cRwc6V6ewxhEiycghmxk9jd4tkvaNxPFuFYzJgXch6WPlbzxjB1PAXyxBlmSDKooiVwhGs2vjSpr4JFLLyYnCDg8KEAQZBcjCsm6NVBwleX4pgnBtYP5LGEu1pJ7qa5uGNlknjccJEZZmgx6KIlkMK18h9x+z19FCyBtjAScxzvHdWrF4rOOLmXGUIeSwTVrXiWe3G5nwwzhLkgoiU4cWAf3u7RG33iOA7FgWlXJw5m7+3xu4CKi7F4+tgErmMGkcKawAWsvpwspASuYxDJjsUww4gLJlr9Rwehi6/1jMJNwct6+8kftqI5LkYKzb/pEwF8MUWiB88b0yLC8uShU0DsUiwOFUDfh+s39iDvus+5/4ZQTFuoEAH61jRG9vbh+VdOymO97BoYuBjPPcgz9JnhQ4RFi5DTEF7DXiFcRowHdkCdhO2vrSkOThzo5gliyoJ7RDE0jW+okUcZW/JPm/DRuM2Z4mDVQU9bSNele/KHv8EUEkExNcM+VsPnMPFNHilkhg+DMrmUYRgmU0Tb0mIYZtjBosUwTKRg0WIYJlKwaDEMEylYtBiGiRQsWgzDRAoWLYZhIkVO+Z/W+uZpjcIfcAYX6a3kpFN2Uu5BHDw7SW8xDMOkD1taDMNEChYthmEiBYsWwzCRgkWLYZhIwaLFMEykYNFiGCZSREa0Zp1+B48del0uD5z+UO9lGGa4wZZWEr76Z1fgma9eggq9nV2Mww/+5gr85I8/preBij++DM/8zaX4qt4eqviv098WzNBl+IjWwkvpQScR8i3Wwz+YD/7H8O2vBtRlQAVSXZ/vnH82Tn/OJGK4vAyiwjCztD7Cm//nPdz2Y3M5jJ/qTwcD1QEm4cqDBz31OIYuXSbTSIvxby4BXjPPR8v/OYGTusxAIK81ay1VJqqwe2hzAt+mjnzXLwYwXkbW3i1XQgqn/zx0/p8ew0a9lSmEcCwq+AO20LV925tEo/0Y7vqfJ/QGk4iNv3ifRH5wX25MYli0Bg1yz669CCff7cYP2vWugab0ElRdORJdr3GHY4YOkfmDaTF6WH1cOTOnLi7F/aPTjD2JmNa1uWTlvJ9ANETM5xKMf/egbQUJt2rRuBN4zrKASAR+8p9G493/003Hm4SrR8tiQPcx3EYWi7BqbiGRUAhX1DiXPD/I4gkvIPL8BXqD6CL3zrGW/PVV5z9rn0NuTzrt1D8E7msQCCvNrLM6r3A1t1yc4HplO43DWPWBxvrc+f6eIn19uv0U6vPJektw0rhGgfc6g9pC4q3HaeNeEnb7UJtWyXKee6bxny+onYzvJnzWRCyTnpsT1vX6r9XdFkwQbGmlzUhc/Z+op23VcaHX/gAUUOf4Kj3E4+J2vGhLtyjnBG+/WkTCfvrDkHErFaiXgqmPJ84z+dor8INQ+RYFH8O1k6hTnfgwpGCpc6rOqc8pr+MiLPqby/DtUl1MI+pShe7g6xVuJ+177t2PlFDIMu4OPL70Mkw/oM9jdVI5WKLExzquiLvhyknpDxiIY5EQfWDH8Q7iTRKJW3wxttGoojZdF1DHxIzDIiF2Vh1pcV3/1pN0n0fiymmeF2vpOFxJL7quA+p6K/445o4zihijeJZ4FDQpw0y0xIPV/9Ezl4u39RjePA2MHU2d3XhD/vRVEeS+CNNDi4zBwkvIiqM3Nx3bFpyth6ljkFiQ9TAggW15Tq9VRdfxP6mzn6Z2+7SnncgiMK2adK937Im4J8ZGolkq3GePtSQEUL4YYj7hTIw6lqijc44P8YOtVMfRJDhmHUlE3jXbORT++KO6/lwUyjqewB66V2MnjXPdq4ppozGWRHyLrpOIlbnagK51u/jeuHCey3CFRw/TNsU/wrt7jU5FneGIOERoKyo10irrjvve+l0nyHIht9jlTmQIdc6TLsFSfIjXDtJ5C8a6hvwta8Gm/UN8QP+NvziclXDyBAmRibRCvG2rSWS5JEIf600SEheBdTyLI6GsqwCkZahfftK9HInxheojKWIugVSW78mDJzwCqSxc6zjSXR73MR5xTUJWitYY/b9J3vmAhzlChBecj6FQGDXkJtgdQi/uGEoqtJiG6gD6nIPIB8c997PwY54YWD+Qxwqwqr3xI0FfXjYiViaOJ2OU+uXnnT7SfgLvkgU+uUg3rLaeTVFWU1Hc01+ENc0kJ+tE68oPu3Df8WNYoLcFY84eRXncutkj0DsiV69Hh417T4d0n7TYiICs1SFci9t9S8ZPD5A1M3o0rk3pVulzXkiOfOju9P1BHivAqtaLy/1MG7KMFpJVJe9PsnvhtlB91jNZaYsKVB37V5/hR1aJlhCnPz92FGNOH8B/OfwWftDTLpcHeroQs8Y4cyfglVER9Gp1vGLytalnVkurzOOO9QkZbyOLg97yqaytxOfUAf1A1zGDSNctgQu4cCxZSAlcxyCSHWuAkPEqvW6x8RdxsuLEi2ocppPb53OpfahyTHKyr/fn6P/Pn8XIjz6UCyzByhmLtksm4Td6M2qooHbwaJx0OfTIlvWwL/KOdNHbOfzooeBD/OCnx9A1ehxuCfozFBGT0QMRG3/RrevmLvfVPxNTO/7gGmQIy8bjZ0NaeoIT+PZrf8DYKye5R89Eu6Q9v+0Etrz7kTyWu73ISvqzVAKuY0wJZ/Jrq9QUeKqjmA/nRwXkJ19LbqkRgJdIa9AtrF+lug1EvHKokVWidYqsqEcKPoHdH/84PnLVbAROjS5Ec8FUPBU9z9BAiAi5KK+d9cdb/hOJhx2kFbPz9RC9Wab0Q/eDHwo10/+5d3NJkIxjiYXEwHn7q7qpKQ5OGTXtIrxL6sKy9OS1Bgi1l62HnSkOVh30tIV0XSg5i11PE7GP9TeTMP5AuiOFfpyXjz4uCeO6BH8SJV10wheA16OiQlit+okpIBzTSg1n42GYFNiTUNOYpMsMHBEMDjHM4DJ5XDqTdJmBhkWLYZJRegnmhgqiM4MFixbDBKDmUNGiY2q+X8hgLhgc02IYJlKwpcUwTKRg0WIYJlKwaDEMEylycHm5L6Y1cfwoHPrgjN5KTjplb144Cc9vPai3GIZh0octLYZhIgWLFsMwkYJFi2GYSMGixTBMpGDRYhgmUrBoMQwTKSIjWktiuWidOlIum2PWLwUyDDPcYEsrCbVrHkPrM3dgid5mAii/A5tfegyNy/Q2KtFI25vvm6W3GSazDB/RWrYCrdSZ/MsK1MoCg9nZZmHtMwF1YYFMyZL7HjDuGTMcGWaW1ik0130Dc240lzWo058OBqrTVWNmW6OnHlvQ1/R7oZAW0QNYW663GSaisHtoswHVJB6LH9qptwcAsvZWz4MUTv956Py3PYVNeosJZtND9w/6i4bJLli0Bg1yP5cWId7yIpY36V0Mw6QNi5ZNiJiW7WJ5YlJrKuXHyvWz9ntcsWXTUIoDWJeGJec+nlj8sRw5WCDOrwPiVlnnOnRda8sQwxgsqHV/bn/fjvmZ5wiIvelrTRtP/Xzxu4C2DboXgTGtgHilPTCgz+sMFDi4B1oCrpVjjFkJi1baiI5/E1CvY1HrDwAli7D5mQewurDFjlE1dIhyTueqnVEE9MbRpreTozrQ6nlH0aCPp45ZhJqguBSdv5U65cNWWapTbF617qg7sfw22lfXhrgR03O5p/nzsHnGXn0e7XrJzl6NBT1b9H6xbEG7OFe6nVmIColm13rrOI1oRhlWBxxn5jKnbcO56tRW1B5mO61qOYXSpbqdmnZgVy9QOsMrtpWYWwLE23Yol3xZuSfOSNeaR3Xsq0gzA8YwEy3H0rCXPjyULhevvgnN1ClieSQwKzbonUDdOiESRZgb8IZPCXWgBXkHqCO6Yzd1K6iz99I1VHnrTGXNeJiuk7+jJoDqvs6ou6C2iiyzDhIs1/4NqBbiR5351tDXJUSFBJuOVV2vdwkhrQ86zhigLV33WYiyu502PdSCdjpWwVSxtRMb206RsE/zWGcey7d+jUckN+BZEj/kT2RrK8sYZqIVMHro6aypOYVd28yHeyc6eui/0FZUaqRV1rE3INicoAP6yuo6he1wvrorK6R9d0DbJLRcElA+GzPzqN3XeY7VdAhd9N/kSW4XsOtgGOsqAJf7uYgEyTm2ErEiVBnuZqI2li6jPs7qeSSieTGyCZlsIitFK2jCe0HE5bXtCIlNqA4wCyX5enWw6DnkHrUsn5i59OxTY65YmrMoYXFzCt3v6NXQqFhka20xdtkvJO/0kQ3Y3kHPVdlsJeIkcFUeUbbihzVw3GHhZjLZR9ZJwczRI7C+IAdfMYQrNnIEbr3E2dH9ke/HVrOeTds6Q7qL2kq6kGgrKCO8E3fF0rxLf6eY1K4h8ettw6ob70/qVtbtPkAvjWJUlJNAzS9GjL7zrOWukoitJKuqXcTc0ra8mcEmq0RLiNOjk0YgFsvFt4pHYltRrlw2Xz4C+VZNz5zDxtN6PUo0PYV19LYvXZp6Nre0yrwuoGQWKsrIZQl0HTPJfnQncgGlu5fAdQxCCuAYzJzvHwkcMGS8yoOM84l6VMo2tAPwCdFtzWQd2ed0WUYU1WzURTlysWt57jyaD55DffQMLYkKpCcYARQxGT2atumhF3U5t8DVrqlWAfq+WANpiYcOlIuRQtdABbliYuqEK6ieChXQdkYzLWZh7ZrUo5DKbQtoL41yu5UFpVDz4fyoeGBs3iLZhq6pJ9qyNEV6yX03UTm9wWQVWSVa8Y/O4U/eO4uXj5/HmbN6pyYeP4cX6LPlH+kdkURPP1h/1B/jITGA/fZX5dQUB6dMTb5wg/o6G9wRD3GslH9jSZbhYmuKg12HRZjc0pi2CyVnsa8/QFamcy3iT5kKdvf/LwDEsdX0Euu407A9wZ9EKRed8FmqelTUuNaVeJFjWlkKZ+NhIoWwvFaXdWIV/8nTsCX73EOGSUJZ4Rj/aCczrGDRYqJDwFQFZvjBosVkPfaET/2nQOEHAZihCMe0GIaJFGxpMQwTKVi0GIaJFCxaDMNEChYthmEiBYsWwzCRgkWLYZhIwaLFMEykYNFiGCZSsGgxDBMpWLQYhokUkRGtJbFctE4dKZfNQT8izzDMsIAtLWbw0BlznF8wDZEgl2E8DB/RklmIE/9s70AQmA05bXS2Ge/CSURTkpn2Z7INtrSyGPWTLIsAOzOzXmS26AFEWkSDK/AMExYWrQFE/jZ6H3/TXVgJNSUiy3TA70eJ32/nVFcp6U/7M9kLi1Y2Yufh4w7HMF4i8yOAYvRwdaEaNYwfOYvF8TTziImY1tIJaK5LntRTJk4Q6dBthLXjFw9vuXjLFuwqW4QFPVvsbDWqzFHn+8LtkpmQ70dH1WNkSclihPsc8ntpJm8IU2/hbsoMyusmUj3KENP74y2NOmnqLKx9RqQpU/strM/t7++eRm0p0nSZ5wj4bofTFhJ5/eavj4p4ncrw40raqstZ9YNIxmq0hd0+dIyVspxIBuu/r772F8jnwJ1iTCRplfXx1c9BXrvIhiTrEXCtnjoyAwdbWjbiQXxMP+RO/Eil8XLHd8QD7C7XqAQrVJ48le5q7m7nuzLHoc55aCcJDZ28IXy9JSJN1jLgYavs+gNGTkKd4kzGzJys0C5ByZ+HzTP26vMYYvwSdWIh2NZxrfRj9nWFRIiKFg51HGoflGG17zjFWGlfR/IXkQO1FbWH2U4iTVjpUt1OTTuwKzBJbSXm0gvGTvC6rBwz2xrtY8hrzaM68uDIoMCiZUEPokyE6rFOVIJVEpoq/UBSB60qER3aLCc6e3CuvSCE5eK8yem7TU7K9rQJW28bKmtaBDLzcoJs0kHkHcU6TzyttkolcHXnQ9S5BKkz3+pK0poMISpkBbmSwVL7iMSx3uPQC2JXfbqWjbhP7nba9FAL3bcxKJgqtlRCV192b5mx2kjwWr/Gk85f5ZRE/sT0BJrpEyxamtoZorMEpZt3P8hL5heTO3IUHb43u0oln5pT2LXNfOCJd+Jk2VgdJz3C1tvGV3YnOnrov7AdrjeONr2qUFZIYIachJZLAmTKfXohrPMcS2eAnjzJnM8VdA9CIi1Da/rIIplC3zq2ErEiVBlzxxK1sRrdVYt0zfNiZBMyA01WilbQhPeCAa3pLJTk69UUyLx7vo6bSdIRkfD1zhhet7V8Iibr1X4zNUYvBDNbtLUoYXHRp3ug57zJuKLh2ulPFRuwvYOewbLZqv2lZe0WZRErE/WS8T3DzWQGh6wTrZmjR2B9QQ6+YghXbOQI3HqJs6P7ozSD8CnRQpEl1O0O6y5mQb21FZQRpMXpxNK8i9slS5/aNSR+ImCeIgZmtr+0rOk7z1ruKomYGtmlOvG0kwtCVomWEKdHJ41ALJaLbxWPxLaiXLlsvnwE8q2anjmHjaf1egZpOxLgSkl0YFy7BwkFRbo2er2/yDgTWRzLUgexw9Z74FBucaALqNskdHJVKYBjMHP+IP5Zj4xXedDtP3N+pWxDOwCfEN3WzKCQfe6hZURRzUZdlCMXu5bnzqP54DnUZ9rQIjY99CI9qGLEzf1nH7VrxND2ATRYb1VLUGrNcrOwdpkxRN9vdGBfjEgF/RmKGGHTI1Wh650OaYmHDpSLkULX6Bm5YmI6giuongoV0HZGMy2ofdekFnDltiWeyS8F3vXCoTp6pj8oVDwwNk+MCBsBeIG2LE2RXnLfTVRObzADTlaJVvyjc/iT987i5ePnceas3qmJx8/hBfps+Ud6R58IipdYf8ArhMKaKuB8JufmuEbmRDk9TcEudxOJmdini2SEDagml2hVywRXfeRCHc2xXsLWOx0c8RDHSvkHzWKGvjXFwa6Dmn+VrgslZ7GvP4DSpc61tL5UjYLd/Z8DJY7d0GE+A9Ow3RfTUmza1qn+VMpnqepRUeNaV+JFjmkNIpxhOmOI+VLVcv5Of2MvTGawJ6HypM8hRfa5h1FFx2+6DrJgZQtypDf0JF0mKrBopU0lGn2zs/sSv2EGlICpCszQgN3DtFFuYKK/z2MuLPJvBPXfdNp/U8gMKVi0GIaJFOweMgwTKVi0GIaJFCxaDMNEikEVLY5nMQzTX9jSYhgmUrBoMQwTKVi0GIaJFCxaDMNEChYthmEiBYsWwzCRgkWLYZhIMTRF6/pOtD76BtZO19sMwwwZ2NJiGCZSDLxojR2NcXo1FOmWzyBLbn4Drd89FCJ1F8MwF4oBFq1LcOf992LD9ytwjd6TlLFTcc/f3Yuf3ftZXKZ3MQzDmAywaB3Dz371BrqvWIh/SCVcUrD+HF8uOoym9a/ifb2bYRjGZFB+BHBc+Vfw9B3XouC9rfjbezfidb3fYQrufviruIUE6+ff/yl++EY6iQ170fjoK0buuhI0bARqKk6g+clPYfkevVsE5ys69IaifWM5ql+mlemHsPnOtzwpwAqd7yf7LsMwg8qg/XJpYuHqh2BpscGO+Vj8/Ci1zxYYQ3RwBmu/+z46vldsp4MS8avVs+ESNrnvkwVY9b2JRjKEcN9lGGZwGLTRwxNNL+D2H+1Al8tVdATrub//cZoWFlD7BbKOOq9zBEvwcjFW7SjUGxajsNwQHcGm569AO46g4Aq9IyH9+S7DMJlmUKc8nGh5EX9lC9dNuNcQrMfTtlh6MbeY3LQ3/al9Nx1OMP4oLLNHm9AqF+VSTr40nEXZr+8yDJMxBlW0BI5wzcaXJvVVsIjppzBZr6ZGxL1IbO7sxq4nyzHnm2K5LjCzsJ/+fJdhmEwz6KIlkMK18h9x+z19FCzBnjHo0qupqL2bLKP4VVj1zfRjUP35LsMwmeeCiJbgxIF9eLtHb/SJ0eiOA6VX9+pth9qr3SN9gVx/zBhxTJP+fJdhmH5xwUSr/4zC8q0lQPEr2HyzEVu6vhM1xXpd09ZdCMS6UWH/LSK5fJ4pDAIZC3OVC/9dhmEGh0FN1jogeOdQdV6HOW8eo33ueVq1dzcZYlaChm9egrmPvoLJ5nQJOb1hGxbICVvOlIlw32UYZjCIvmgxDDOsiLB7yDDMcIRFi2GYSMGixTBMpGDRYhgmUrBoMQwTKVi0GIaJFCxaDMNEikEVLTGni2EYpj+wpcUwTKRg0WIYJlKwaDEMEylYtBiGiRQsWgzDRAoWLYZhIgWLFsMwkYJFi2GYSMGilUkWzsDrDZV4uVpvMwyTcbJLtMaORoKMhcGkWz6DPPJgJfY9OEVvJebOe27Avidm4E69zTBM/8gi0boEd95/LzbY2adTMHYq7vm7e/Gzez+Ly/SuC87W3bimZgOub9TbDMNknCwSrWP42a/eQLcrbX4CpGD9Ob5cdBhN61/F+3o3wzBDn0FNbBGm7Ljyr+DpO65FwXtb8bf3bsTrer/DFNyt0+n//Ps/xQ/fOK33h2EKXm64FtP0FtCD52u24Vt6S8ak7roUu3/yG7xXUYmb7Qw8Rrnq+dhXkS/3OujP5fevxOGNZG11qnV30v6TaH75MGZcr8t4LDLhSq667pS7TgzDuMi6QPyJphdw+1OvJbC4+iFYMkh+LS595d8whVw4sTzfmY+bG+bjEV1EMRYL7qrEnDdVmSk1/4bmOJWz4lKN2/R3ab3zNV0mQGS0q7j6lZNA/F2sluV+g1vq92F3HJh2tTceNgU3XzcWva+8wYLFMEnIytFDKVw/2oEul3A5gvXc3/84TQsLeKSCrB4Sjx/98LjeA3zrO69hL/LxxXsu1nsUvSRsjhV0HLds7QFil2LxQr2rX+jjFU/Hc+bxqi8nC/Akdrc49WMYxk9WipbgRMuL+CtbuG7CvYZgPa4TsIZnCuaQq7eXrJ8n9R7FcRwiqycv3xStAOHojKOXLLCJnszVfaZxP4nlWMyY55z3kavJ5ezcQ4KmdzAME0jWipbAEa7Z+NKkvgoWsfBiXEr/TauoxL4Gc/mcziY92OxDK7mXedOn6KkQWlTf3Ce3GIZJTFaLlkAK18p/xO339FGwBFuP4zD9t3ejFafyLN8ZfLH41sZ30Wu5nNI17EErT5VgmJRkvWgJThzYh7d79EafUG6gP/h9AdkqAvLCRZyC5xbmcwCeYUISCdHqP1bw+1q87gm6P/Kgd/QwHHt7TtLxLk/53ScPnUoQxD+OzXtOkos4HTNiHIBnmLAME9EixFSFn7wLXPc5V1zriz19s3Ce/OEeOfJ4szxOEuFrfAPNZFGJaRT7Gm5wjRjKY8TGIi9+GJs5AM8woci6yaXDCzXZFQETTRmGCWb4WFpZyJ33TOcAPMOkCYvWBYNnwDNMX2DRGnSESyjiW+pPiq4xZugzDJMajmkxDBMp2NJiGCZSsGgxDBMpWLQYhokUOZ/+wh2+mNbYkR/h5Ecj9VZysqEswzDDB7a0GIaJFCxaDMNEChYthmEiBYsWwzCRgkWLYZhIwaLFMEykGJKi9ZWP3sVTp9Ty3XN6J8MwQwK2tBiGiRRDcnKpsLQ+/6Fa33fRlfheP6T5MzW34y+vukhvWfwBu//laax9VW8ywBf/BE8tKNAbJplrK3Uv4vj1d/4XXtD7MsMf4bsPXouCt36DrzX0NXsKM1iwpZWIT38RP3rwLvxl8SH803d+gjuM5dfv6zLDEtHB78J3v6g3XQiBcrfVHd/pi2AlO4ebr9x9F566+4/0FjMcYNEKhDrNn04B6M17x4O/xO/0XosXHmcr60Lwu4anSQQzbWUJfovvkcCylRUNWLQC+Mrd12LKyX1o5IeYYbIOjmn5UPENNP8E3/ul3pUS9R0zq+JJb3xEuJt/OhG//5etwB/fgBlj9f73X8Mdj//WEzvzxoGcOrVNvQufv0zvJmH9J2EJeuJJ+4LqLs8/BdZp7e/qTXl+4Qo/eAxfMK9F108gXDH73BbW57IOsaTxq/6ewxXTCoyhdePXzcDnE9RDHvti93UrVPu6Y1rTsfw7xn0SGG2W8Fi6nbutexBQz8D7w4SGLS0vXyyizvQHHO/S26kQD6V+4O04zr/sA666ISDWchFm/OlC4Be6XHM3cNm1+NF3qDOOb7O//+v3Rbk/wVf0tyymLLgLZe845zg5dgqq6btPzTppx93+6a0/ULnbsfzT+ksCUUfdkdQ5foPddJV/+Z0v4jO6iISO95cPFqFNH0ueQ9SvZrr8+IXHxf7XIPJxi44ny2ixCU2mzvHL/yU/k/FFIWryeCRmvzxA370In7hGHc+GxGQhieG+nV7BSsAXr8UnOo17Kuok6q7v6Qvv0L0bOxGfNduZ+Mw1E+nF0I02KUokfLNAImsdI8H9YdKCRatfiIeywG9VvfpLfE0KUpnv4Tz51lbHAvjla9h9kp79sWQ9GB3zha3UkVGAMm8gmjqn/Yamc2ylDjuWLIHdv3A64u8a2jydVtXR9V3swdpfKNH7guscwsIzYkbWOYqnu8UtIUJs7yIRNxavMPb7HKn4LX5FwjD2qmtdou8WkxCQKLpjXOq4uPgSVc9AcZyOzxZfRPf4NX191M4PumNw1v25eLLewaQNi1Z/+PR0fGLsH/D71wNiX4EPtbfsHrwv8lqcPIlOtSMp+95xWxydH1AnQhzvJxsU0HXcvdVjrbx6jLowUDDBqN/JQ/h3z7HkOUgZi/V2cgJGD73uU7/PkZrfvX7II/peMQmPHJ3UAizdd7ueAeKY6HnQI9HqOMotdrU7kxaRFy0z5KA4j7H9mQXfdZIe+JBvwsljA86fZcg6BlhAZkxpqPHqHvyeLNgpU7V7nuzlkgARPxPt9HlYrqdy7Uy84viVhVMw1iXKIlZGbS1jmZaQK9eX6TuRFq2FZw/iBx+exlV6W/CJc0fx2bN6Ax/Df+To1bB4H/hkSIHLcmQdAywgvQzNYX5yy3YK97xIWkHSNQyw8BJCllE1WVUyppYsZud6Vv4IZZ6YmTUK/U99mqvGJCKyovWJcz2oOXMaYz86iK+ffg8/Ob2flvdw7x/isMccc8fj1+mKlv3AX5t6cqN0sQKCvgId0E/n7T4gJKvjUEa658IK+iN8QQhQ2AB8QpSL6cYQR3m/Q8TMZDmmPwyNmNb5sxh5/iNabBMLyInh16M+jt16My1++b/0KM9d9qiWgxgKt0Z/fovvNXdj7FU3uMuJGMYCEaA3gu4XDCv2coNHhOk67vYGycPQjeNhLdE+E/4cMh6mLSo3v0Xb+3SMWWUkXV4x0W5bopn0Ot5nnv8zNQvd0x8stDh+Xt5vd8xMxerMEUY6r2+aBpMukRWt34/Ix7dGT8Tvcz+m91iMQO/H8vHCaFr0nr6gZl+/hm4xdcGOA4nlBsyA4WqIoXdrioNVRk8vyBbXS14LiasQYfM6Ln6nL9aHY4nK47g6flDsLNyf47hJdg43ajSOREOeyz1NRI7Cjr0IY98/kOazQC8jPRXDuoZqbPXFtBRKHP2DLKrd1fQVqy3EVA+OafUXzsbDDF3kRE8RBE8VU3Im7/Kkz+xnaLiHDBOAfzQvAZ++hGy1NCYUMxcUFi1maJLGDPjQ4sZkBeweMkML6RKqv7FM+jd+Rjnv32Ey2Q2LFsMwkYLdQ4ZhIgWLFsMwkYJFi2GYSJGDy8t9Ma2J40fh0Adn9FZysqEswzDDB7a0GIaJFCxaDMNEChYthmEiBYsWwzCRgkWLYZhIwaLFMEykGJKiVZs/Eq1T1dI4Wu9kGGZIwJZWhqhd8xhan7kDS/Q2wzADw5CcXCosrZqL1Xp710eoPq3Ww7Lkvgewet4YvWXQ24ZVtz2FTahE40uLMLmlEYsf2ik/EqJVk299nknUuUr1lk3HFsxZsUFvDCOWrUDr0iK9YXIKzXX3Y3mT3uwH6v4fRcONa1Cn92WKgXtOhg9saSXkAD2038AccxnkB01abyRYWO+pR10b4rpMWOSx1lTqragjBMrTJjf2RbDEC+ExNC7Tm0kYWu0XbVi0+sQGVFNHsaysgUC87WtKlHBW1+udFk1PYfFwtLIGiU0P3U8imHkrS1C3ggSWrax+waKVjZTfgZXknravH5iOwzBRhmNaAaSOaaSOacljlHViFVlJK2vLEJOlqD7k6lXXz8LaZ6qxIE/vtGNlCvu7Id/Iqr5mDM6I7wTGgIQF51ybrHuJ3iBUHfWGxnuOeMsW7CpbhAU93tia59oE3vgbifLm2mLsqnuR6qfKxn/fBXxiMroSnlvfD3k9E5LGr5z2O4RbzXigUQ/vNUv05/7zBbTfeqAmQT28z4KJ/7OA9jKeh4THkm1Y5rRXQD2D7uNQgC2tgSSvDKuXAQ/ruEtDB1C69AFspoe0oMmKxWxBuyhnx0tmoaKMxKHnUCjBEgJ6q+ig+hzqPGOwoHYFasXH9Wvsc8tOKctYgiU6jO4U1vfXH6A6uuM8ouOoTmydo1EJltnRBKIjvUQdUAiZXZaur2RR4MjqzGU3Uf1UucVf34xdvdQ+M7xxI7o+Est4S1N6Vqdo05emYbtVDxEHpHpsvm+W/Fi6aaJutC46tywT5HInar/6vfTdMZg5Xx3PhtqgisSwnVz4UPdvWTlmtjXq4+o6Gc9D3e4DdC3FqCiXmzZL5hfTi/AAtktRovtIn5sx2FUtp+SzJvYPNVi0ElKEmpdEINxZrAc+PGTx1DsPb906EUAfgxh1aucNuAHP0gOGkmlKZNJmA6o9b2F1ngkoSfXAUodZkOeuo+ikUlyp80mRkZ1QWG6OZQbsxPLbVIc3qa0ii9JrVYn6CcGgjnirK+BNwtz2omGl0DGbqIOWzHN3tGXTyFI6hV3bzPihEGX3vfGLoqfOJCLr6LpiZbMzNC1F3bfYvHLXfXOLSQiovd2xUf085E9U9QwUR/Vic4Rc3A/z/oi4XIv8XsFUvWMIwaKVEP/oYdqB995ObDRdh6ZDEFmq4kf2q+1MItwDqwNLdzT1A1s7g9yJjhafe9N2hDpNXgxltK464VF0+Fyx/egmy8ihEnOFhbE7wFpp2hFoRXUd9LRnQAcNrqMQJPe98QW3vW1PmNeVCTZt66SXQxHm2mLsFZPwCGvWun/SDbfrGSCO5bMxk142biEnpKVrHUe5xZMnpfuizX6iLVo59ObUqyYx2h9ddqKjh/6z3rSpsB7UpYZ7EGpKxCyU5NN/wnWzH3S1mLGrskJa742jTW8npHwiJuvVcJxC9zt61WYDtrusoSRCmA14xTiRmCRBxM9Em9fAcamFa2fiFUdp0bpEWU3daJVxQv0MaNd3KBJp0aoal4v143Mw1xCpmaNHoMKOtZxH71m9GiESxTH8zMLaZdolMwLr4dDiaMdpvEuax9NWZH+Rrq117dI1TMPVGnQsl1a59tIqDbDwEkIvHDVKTO0dFE+zcImjFnIjZla7hqwqEbzv01y16BFZ0RLitLIwB7EJuXhiykhsK8qlZSTqJ4/AKF0GJ86h4UO9HiXqm9DcOwYLlvmD12FQLl1qpLuUIpaWUEClVaHXJcpd9AfSCV02lMUkO6hwESuxtryoT67WoCJdWmEFqQGD0AH4hOiBGBeGOIYVclluaBJt9/Cc/j8XGHVRDi16W3CGBKv7PJr1ZrTQgW45AqZHAU1E/EqOLmlryRQe/fb2EiRQKlhbhBpvEJuOb48eWgJqjUZKtIWntxRU53qykoS76Zo5Tq6LiLGRRRdu+H0nNradIhdxXtquVvokEVoPiQVeubSl5fPIPfaKiRqdTfg3qdo6Nc+/5L6b/KOyAi2ONUv9Qq5ideaLhdo88E+dhgaRFa1dp8+hcv9Z7Iqfd8RLQOs9x8+irusc6sz9kUPNul/VMsE3iinm41hWS92KRhIVY6STxObhgJiWLVCynCVA4hz0fQhx1N8XS3kcz9qdTwio5xwviakKYp8uYiFm6ltTHOyyaj5bUvfHg6xr3pgkrlbA6CEtYf4cx41lwej6JvkzneD2UyiXlurbsTdNq1CPrBrttRIv+mJaCiWOIhboFXIxg19Nc7HaQkz1GLoxLc7Gw/QRYUVUyzlGmf9zJjV5V/zNZSQmR4rBEBkETx1TkpNFRdA9DRFn3ETbPWQuHDpO5Zu2kAGW3DcvywPwbvyjeYlQI7YDMuVlGMGixaSArB5fTCbdOFU69HEG/IWCrKzQM+D1ZN6BjdMNfdg9ZFKg3EBvcDhu/N1lZlAuoRjxyvyxBwDpEqrBiOR/42e2n5gUOzymJQwkLFoMw0QKdg8ZhokULFoMw0QKFi2GYSIFixbDMJGCRYthmEjBosUwTKRg0WIYJlKwaDEMEylYtBiGiRQsWgzDRIohKVoi72HrVLU0jtY7GYYZErCllSFkNpVEv1DJMEzGYNEKwMqQ4ltsURK/SNCXPIhhUccPqkPGzil+pYCOl/6vfaZGtV/Az0QzTAZg0UqIP++hL7feACN+osV1flr68pMt0gpM8lPCFlJs2FpkshwWrT6hfr8963/zKRny99wH5ueMxW+Wp5/SjGHCwaLFMEykYNHqE6ljWrarpWNHVkxKxZB0ailrf19cMnncB7C2XLt/9jmMWJJOlV9TQut2xhf9uRnT0usqHbuVmYeOfVfiuFeyuFXQZ2qfWU9Vd4msp7Fto9vJdm0DYn0h3F5maMGiNZAIAaAO/7CORzWI/HhLH8DmZ6pR0GTFqXR+wz51PpU2au5u61g61ZclgvVr7PM6maQD3DbtKsrUVTJTsSh3P5b/xJP23Sbd33Gn8mWd+rhqUSmvtLDJnH4iQavnJeBJ8ioSXogMPdYxZPp/EuOBGxBhshEWrYSYef7Ukn7nOIXmeid4L/PjUeeM9ZgJITbgWSEWAYlAY/OqXecPskZEsN45ls7jF5QRuk9YeQHnuc8rsxenk6BhA6o9gxiqLSagRB5X5fSLlc12WZwqzXybnYNRxMpcMTgS23Xie4WX6x3McIBFKyH+0cO0A+/etFI6o3DYFFL+0UNvUoQA4XgnLoWxYKre7i8BVlDtjCKy3FrST9Cg3VW5yKQQTj1VwtMy3Gq7oio9fLxth2fE1u1aS9c3fyKPeA4joi1aOfSW1asmMdrPZAqvFVSJuSJllnbZQmHF9ZbCeRF4s2A3eVzRgHRbKnanEsRaQi5dX2ZYEWnRqhqXi/XjczDXEKmZo0egwk53dR69Z/Uq02eUFaRdTukappNIlSyjZSpHYvJpEDuxsc1xk33WHFlpNSUiBVfEp5ow/SayoiXEaWVhDmITcvHElJHYVpRLy0jUTx6BUboMTpxDw4d6nek70goSLmIl1pYXpRGAT4yMV+l1i00PtZArWoS5y8Jac6ocM7yItnt4Tv+fC4y6KIcWvS04Q4LVfR7NenM403YkONDvZdPBowmC+MoKipXNw0xfhmQdY0o4bWMnOnroP/P85C6uFNMrfChXtHTpIpQaAXiJjtW5YmtrVHJXZngRWdHadfocKvefxa74eUe8BLTec/ws6rrOoc7cH0H8o4e09GFqhGXBqNHQ4LlVkvomNJNFJaZReEcq5THyxiDmHVwIQd0KPRXDugYxDcQb09LU7T4g//cF4MW0jPUHXG0ipnpwTGv4wRmmmZCotPVinlSqP/0RE0lXi3lZg/y3mszwINruITNoiImdYQPwZYXk+vUcYsFiBgQWLSYEacyAL78DVelOiWCYNGD3kEmCcglFsFtMdE021UDMoZITPYn2EC4kw/QVFi2GYSIFu4cMw0QKFi2GYSIFixbDMJGCRYthmEjBosUwTKRg0WIYJlKwaDEMEylYtBiGiRQsWgzDRAoWLYZhIsWQFK3a/JFonaqWxtF6J8MwQwK2tBiGiRQsWgEky548UPT9nAFZl+UyuPXPBmS2nr5k62YiBYvWEMGbI7GhQ/y8cVCq+QgiU5ANkWth+g2LVpYgsicnT7GVHnUrtgSnmh/C1K0gweafeB7ysGgNWfaju1evMswQYkj+CKAYPay5WK23d32E6tNqPSwyMcO8o2hIYfmocmYqLJFK3/8db7l4yxbsKluEBT1bMGeF+lli3zmFS1RbjF1196OjyvlVUP851K+LTvb9smhwIgrzF0YFQb8ymrq+Im1Ytav+FvL4+W2epBbOL6Aq/O3ka8tecYwdqBDnsZPvKhL9iqr/3Lqe5vflcdXnwXUlZNuXoctqG5HOf2mR+kzDv8564WBLq0+oXH9KZJLHkUTHcJdrVALg6YjBqHReIlWW9V2ZiitlsFnUz5s7UNVZdlKrLusPoHTpY2hcposQ/atvADIepURVHc9qJ2egwBFs55zNIlcidmL5bbQt042p7NLi89AZppeVu1Loz7mRXOa8MqzWadhkurKAPI8qkayVxIPajT437/OqllPUbhxju1CwaPUF6gwL8vzWgsrvR0JTpXMTyiQPorOZ5URHFPGmcAirwnmj03ebgjuaO0fiTUA9dTDTgpB1prrUG/vq18i8gaVUTymCGaivl9qqMsRIPB82hEbF24pQdZ+Kt8nsPR173edc4bF++gJdn1vgNuBZEhzkT1TXW783IO43CxVlZhIPcf3u+6zySI5BwVS9gxlUWLT6QO0MchVcncxCZWK2simrN/ZRdPiSm4aNN3mzORM607K3wzijhyoAv2CZ2xpTdW4h0dM7NDL7dF4MZbQu6xuYjLWv8TGd3r7JK0DqeLHCy+WWyoC9CJu1iGUaYT1agi5dUH29lojF5pU700PKZwdk0SakxWgdR7m6kycNn0GObCLaopVDD75eNYnR/oFjFkry9WoKpAXRG0eb3h4cNqBauFPkBq20RUDXmYTBscaMTqyR9c0k5RMxmf4TLqj7vO44kxw5NbNHZ2iulXA7xfFqsMXl2pls2tZJL4EizNUusrIMTeHW8+BkfNFyEftueTL9J9KiVTUuF+vH52CuIVIzR49Ahd0hzqP3rF7NGDvRIeMtWQxZNuvI7XMsCF3nDqfzuhfl/kiLJxQh26DpELroPxG0DjyvGcQnV07tJ0EQcaf+To4ly2glCbI8t2ewwEXTDuwiq690hnDp/ZZh7RoVG1x14/0+K5W5MERWtIQ4rSzMQWxCLp6YMhLbinJpGYn6ySMwSpfBiXNo+FCvZxDlzigX0I2Kh1iuY6JAr3JB9PoAYcWNanTQOXGdHTYdPJpefa3YkI3q9A7KDVSCEBZtKWICSjIe6Nb3x4WOE4q2WTYtXBZtWY65UETbPTyn/88FRl2UQ4veFpwhweo+j2a9mUk2PfSiGsXzWAO1a4TbcwAN1pu9vkkF5mvNcrOwdhm5IHpr4NBB55J5cpRLBY8DRh6XrXBGD9OorxJk0wXVVoleV1iC4I9X1a5xzmGuC3yxQGmxeQPm2m3TouxDW3mmYC6576bgUVAZkKe2WVpkBOAVKuZnCjmd1zP9gRlcIitau06fQ+X+s9gVP++Il4DWe46fRV3XOdSZ+9NGiJIVg7EWa5hbjChZQ/fO52o6gXfkTU9TsMuJkT2xTxcZQKxRLhWUJwtGTCWAcL2cOreWx41pEWnUl9w5ER8yRy3F1AwxGulCuH1kOcE1uvkYqo6Y4uBuR9d8NYkVMFfHCBew1xabEcdbiRd9MS3FBmyX9fYH4EW8raFDCLlVv2nYzjGtCwpnmL4giDlT1XIOUeg5RxcUVd+gyaTZhJwsKoLuWVxHpv9E2z2MKjpG1HUwCoIVFdQIafzIfr3NDFVYtAaUSjT6hu9pX20ZYh1b+M9AMomePOubX8UMOVi0BpT96PbGkKw/aWEXJgMIt1W369IJaK7jaQnDAY5pMQwTKdjSYhgmUrBoMQwTKVi0GIaJFCxaDMNEChYthmEiBYsWwzCRgkWLYZhIwaLFMEykYNFiGCZSsGgxDBMphqRoibyHrVPV0jha72QYZkjAlhaTFnfecwP2NczHI3qbYQYbFq1ELJyB1xsqqYOay8B2ViUI3nNW4vV7dLrsbKR6fmCd9zXcgOcW6jL9ZCCF8pEHqa5PzMCdepvJfli0ApCd5K5LsfsnGzClxlr+Dc1xXUAgRS1zHdOhB8/b56TlJ+8C130O+x6coj8Pj7yOQemQJ9Hsaiux/Aa3bNUfh2YKXibBe7labyZBik0f2oSJPixaPqbg5uvGoveVVk+nO45b/nobvqW3Bo2tu/GjV04CxZcPW5fsyR/+hkRwYNr+W98hgf3r3XhSbzPZD4uWl4UX41L67/Ch42o7C3jyUFAyBoYZngzJHwEUo4c1OgzU3vURqk+r9XBcjOee+BwW4F2sDnwD6889ObV6X/k3XPNDIXTCxbkW09RuRedrmPKdfXpDuTY3g/a9eTn2VYjUz8Il3Ia95M6tuu6UXDetCuHmrZp+2F0fEUuS33XYu3EDrm+kFeG63nUl3NmyhAvnuGzymGRRWjj1N/AeJ/4unt9zKVmiRh1lPca4ju3Fqf9x3Gy2jdEusk2K5aqD/lzVVZ8z4Lpl+20Ebk5QD3nsCcH30/9ZwP2l67Y+T3gs3VaHrXuQ7P4w/YItLR/kBja+i97YlVgVGF8RbiK5FD+hMkYsx+rwd94zHaCH047tiHLF1/qD6ROm4/Wr9+tySVwfeviFuOwlN9HpJNSxFsIV+1pNLuS0Ch1jo7LX6H2yw8kyTmcWHU+JgP6+jpu56ig6ne6E9jmkYDlClxayPS9Hq3FOs12km1bzGvbSuujcsowh9DaN2+Rnz3fSuhA1eTxqv8b99N2xmDHP084kJl8kMXS3XxKqP4UZe/5NH1fXSdRdx8++9WYPXculWOyJZd4571IS9x60SlFKcX+YfsGiFYTs9CrwPq1CjYaFCQ4LRPzF9TalY/2SOlhevqczxU7hl0GdEvlkjVgjcLRoYXO/of3xtSd/uEd22olea8WL1Yk3Gt+nOoq4Wd51n9JxM9Hp8qX1ZZ5XXJsUCx9jseAuo85i8Q0ACIF3n1O2y/QpGRoo2IfnXdegcItJCEgU3RanOi4mXKzqGSiOF2PxdBEHfUNfXz/uD5MSFq2EaIvKEK/wUw+Ei+F0YOn2WA+9RTwurQo/zuihtJTIGkkomMIlsYVCuV2XTkxeR9mJhZvn6cQqbjYGVwhLYOEUzIidxO4Wf1xvbw/VyUfA6KHXfYofxmaP2yaPFYu5Xel+8GTLYbJ+8zHHbi+vmIRHWKPW/ZNutF3PAHFM1F59uD9MaqItWjn0LOlVkxjtzxxKvISA5F03J6V5rx72z7lcjEDr5OjxlO6KZdlMq/DOUVJTA9zTMpRrlYpp+aIDKtfX6pRyMeMvxTFPPCwibN2H3eIFc7WeCpFEfBMhp4lQe8iYo75/8uVh4BXHRyqupBeBKcp9vz9MaiItWlXjcrF+fA7mGiI1c/QIVNg97jx6z+rVfmKZ976YiUn1fLKqlNXhC2r3kW9tFLGzfHzRsPIeeZDe2jJWlf5cKGnd2HEu76KP1xmnc0YResFs7bGnhyir0m/hJYQso6+J+KGIqQW67hqXOE7BHE/MrD/3h0lNZEVLiNPKwhzEJuTiiSkjsa0ol5aRqJ88AqN0GZw4h4YP9XqGSH8qhHqo+4wdb0ph5VVfHsrNkm5gQCDZxdbjOBwo0MrdympkzElYQWq+XegAfEKCrtkQR9nuIWJmIe8Pk5pou4fn9P+5wKiLcmjR24IzJFjd59GsN0Mj4hC+ILKIUam3px0LCurY0kJx75NvXb3eVywrb0GFcntULMgUHnJHfNMAEghU4xtojovAucflpOt+2bbmrLjN51zxtDvvmeOb6pFZjuOQ6d4lQbZB4ITbfWgVLvXC6bjUJyY61pjorwTkPXWfP+E1a3G8mdrdGzMLe3+YvhFZ0dp1+hwq95/Frvh5R7wEtN5z/Czqus6hztyfDr6Yz+ew4OhrnuCy07FFGRmkp7f6NRt77H1imfNmgphWWugRLB2UV7Euc8ROTCUIiJnYAiXKWMPtKkb3fKdnlPKuGFoNl1acQw3TO2W+hlZffEcRMHpIS9gRVwfLgrlWHSPJn+koIbeuwS3A0qWOjUVe5/40A/D7cL2eimFdQ+JrVuIoBiG8MbPQ94fpE5xhmhl6CGtZBsFTx5TkZFERdE8Ww2Kyimi7hwwTgH80LxEX44oJQG9PZgZNmMGBRYsZWpCVFXoGfPWnsCDNKRHMhYdFixkaCJdQxI/Mv/8LxJj4m+JvJpnshGNaDMNECra0GIaJFCxaDMNEChYthmEiBYsWwzCRgkWLYZhIwaLFMEykYNFiGCZSsGgxDBMpWLQYhokULFoMw0SKISlaIu9h61S1NI7WOxmGGRKwpcUwTKRg0Qqgds1jaH3mDizR217k52sq9dYAs2wFWl+i8/mWB7C2XJfpJ0vue4COtwK1ejtzVKKR6rr5vll6m2H6D4tWJDiF5rpvYM6N5nI/ljfpj0OjRKRxmd5MwqAKM8OkAYsWg00P3U8iuAZ1ejtzbEA1Cezih3bqbYbpPyxaDMNEChatjDALa59xx5y8cRwVN0r8ue2O2TGs8DEm+7vld2BzgnPIMi8tQimtly7VZbT754pp6fPXlNB6ySJVTnwm9wfH0eSxA2OAQTEttc+qo1kPQcJj6WuzXFtve2YyxsdkNyxa/UYIVjUW9Gxx4k11bejSnwpER1w97ygajM8xr9ofoM6fh80z9urjpOmuCYGhDv2wdY71BxCjc1idvG6F2L8F7bTevl6XWbFBfWhSv0Z+1tBB6x3WNVFd6vfSd8dg5nxPnUlMqkjg2puewia9KxlL7psHWOcXC7VFnOputUXd7gNAXjEqPAK0ZH4xYjiA7fViqxK3lnVilXUMWho6xmBB7UAMJjDZBotWv7kcBXnUaXcbAkAduNqK41ider0hQvT5wy2nSFTK3Z0s7yjWBQkJicWCWtOqoMVnjRxAw22GcNQ3obmXrKoZmQqmb8CzAXV2i0lqRPys2ixLbbGOBDJWeLnaDhTHWagoG4N4S5Nuww2oNq+VqFtH4ocJKGFra8jDotVv9qNbiMPSYPdEdureNjzr6dSbDh6lfz2drDcOssECCBg99HRadOz1WGY70dFD/+VPTDh1I102beskYSjCXHv00SsmYXG709IVtesZII7lszEz7xR2bfME9M3pILVlJJ5jUDBVf8YMWaItWjn0htarJjHaP3jsxPLbLPdEdSDT7SsrHEMWVBlWW53LWpYW6RIGPYdCuVgXjKYd2GVab4nEJAkqtlaNmW2NhmunP9R4xbG2igSptxMbrSkeVuxuKVwud1x/zAxtIi1aVeNysX58DuYaIjVz9AhUkLumOI/es3o1DdqOnCKhiaFMb7uZhZJ8IH5kv95WqJgRLTqWZAWX5bHI0jLjL87Sl7lWFxIS6KYDQMk0aQUpK9IQk1SQZVRToqzGpNMgXOJYibmumBlZactIxGS8bSCmaTDZTmRFS4jTysIcxCbk4okpI7GtKJeWkaifPAKjdBmcOIeGD/V6GvjdIINU1kX9Gqwi98Zyd6QbGBBYjiwy5iTaphK3zhsTOgCfGCVKbgxxXDYNpSFiZiq2xgwHou0entP/5wKjLsqhRW8LzpBgdZ9Hs95MCx0c9sepKtEoYicdLYaFRPuMIXsrzmO7ejIgHjCyRS5Oo3f0cMDR8bcQwXlpIWqLys0GbBdtUz4Pk31ioqczuNrD4J04vQzcQfbaNWoahg8tjjXkRrtjZjpWZ9aN2nIlCSgzPIisaO06fQ6V+89iV/y8I14CWu85fhZ1XedQZ+5PE+HurWqBZ9RukRqu947w2fOZxKKnP9hlrJgXdUC7DC21MWwPPVM8YPSQljB/juPGsmB0fROJC7HpoRYlGvJcbsGVI3V5Y0i8vcH/FNDLYLHlPutrmLvbH9NSKHEUgxBeq7ZuRSO9CIz2pHZ4mGNawwbOMM2kjwiE1xZjV12qmJywvJTQu6Y5MEw/iLZ7yFwQfKN5iSifSC7kKXS/o7cZJgOwaDHpQVZW2BnwocWNYdKA3UMmHNIlJBGiVfFnQAndPaOcnOrhnQTLMP2ERYthmEjB7iHDMJGCRYthmEjBosUwTKRg0WIYJlKwaDEMEylYtBiGiRQsWgzDRAoWLYZhIgWLFsMwkYJFi2GYSDEkRas2fyRap6qlcbTeyTDMkIAtrQuETDYamOCUYZhksGh5kKmtEoiJldU48BdDdTqr9H9NNBUBGZn14kv2mpWo+kejrkwUYNHysLFNZOIJTkQh04ERkyf5O+CSSRPo3/BJS9Ml3uKk3LKWpBltGGaIwqLlQWXiCUr66WSNiZXN9lhiOplFwmSrw5kNqGaBZTIIi5aXpkPoov98GWtkKqtTaO8IyomoUuPH23bwD94xzADDouVDZ4HxpM+S7l9vJ55dF5ATUQuaK2uM+AVPMwaVMOjujVl5Uo2FQZ5LpTtTGZyDj6VicgHHl/E4I12afTx3+nore48V21OLN82al6CYVkCczs4MpM8ZlCnIU093PcSSqi7MUIBFK4C63Qfo3wkosTuAcv+kJeVNDU+oeNZRdFi/hS46V20ZukS6MRl/akQz2WarfcJVjJUvTcN2O05lpcbqg3DpNGMiJZfrWH0eoRTHuwmo18dbr1KPbX7mAawubNHnEOm/AnI6pmDJffNUKjZ9DJnSXhxbCttOFVcMyLlYO6NIvjjUb85X4tayTlfm7r7UhYkeLFpByEShRlJRmVUa6DooLCmdLFRnkLbjWXYOQLIUyqlzdWwxfkd9J5bXi1yBZbjVtNDomLvqzNTuIkfiFplvsMoz2mbmCkxkVYhgveucIsdhP7Jbx1tedFKEyaSzVI+8o2gw8j7KHIheyzMFmx663/0b8zo5bqzwcrkZnOHbmx5/A6o9vz+v6mK+bJihCItWICoTs9WJMDWGmDEyKC0xWwxUPKt9t+7IOm1+8zpPQlcdK3ONPAZmqvGcW+MfPfTmHAxI1a8zOvsHFcLgPZ4W64wNNrhdzxoxyGG9CKwM3+Sm2lZiovT4eqqJXGRCjb5eLxMVoi1aOdS59apJjPb3D7eLIt0SM5uytsRk59DxLDu3nxS4oIzQCdK/D0NU3K0aM9scIfZmmXa/GCzr1bgHVsxwKdBgCTlnmR4WRFq0qsblYv34HMw1RGrm6BGoIMtHcR69Z/VqmjguinJL4kf2608EyhoScS13nIWQ1g1ZWnWWReRewg79u8+XGTYdPKrXLiBkGdWUqPZJ2hami+6zXknElpFVRS74nBtN95oZDkRWtIQ4rSzMQWxCLp6YMhLbinJpGYn6ySMwSpfBiXNo+FCvp4vlzs2YJrMke10laYnlT8PcfBIYc6qD/J4RD0tGULzJFT8bCPwxHym8FxRnDpzDBjzbckrOiaudXxwq6esSUU6vM0OXaLuH5/T/ucCoi3Jo0duCMyRY3efRrDfTR019iJUUBXYYaYnlFaHUJzC6s82r9vxJD1kHa7wjeeRGLjP3VaJRxGV62/CsN3aTCbT14jqntHz0eibQMaaEf86k42ymqNeuCXadVRuXoWbeGE9Gax1fM0cYyV1cSeWYoU9kRWvX6XOo3H8Wu+LnHfES0HrP8bOo6zqHOnN/H1BTH4ieQ/5Jo9oSC/rTHTE6JqYIlC41Y1rVKNjtybYsMjA3xbDaLkOdV7g8AVmZ/aOHtATNZUrKBlSLuA8JgX3OGXvVdIbBgsRnMZ3PvB4xTcMb05Lo6SVBbVy3wpoeoq+DRPJhjmkNCzjDNDPAiImki+S8rISp9BkmDaLtHjLZT/lEGRO0R1cZpp+waDEDSm2ViNGlDqIzTFhYtJjMY82hoqUmvw2rAmJ0DNNXOKbFMEykYEuLYZhIwaLFMEykYNFiGCZSZK1ocTyLYZgg2NJiGCZSsGgxDBMpWLQYhokULFoMw0QKFi2GYSIFixbDMJGCRYthmEjBojUo6Mwz6f5on/7D44S/AsowwxAWLYZhIkV2idbY0RinV0ORbnmGYSJPFonWJbjz/nux4fsVuEbvScrYqbjn7+7Fz+79LC7TuxiGGfpkkWgdw89+9Qa6r1iIf0glXFKw/hxfLjqMpvWv4n29m2GYoU/W/QjguPKv4Ok7rkXBe1vxt/duxOt6v8MU3P3wV3ELCdbPv/9T/PCN03p/cpbc9wBWl3ViVT2wUqZPV7TLhAsiUF6NBVaSV5ElJ+DXNuUxXGmqDqAhIFmot1y8ZQt2lS3Cgp4tmLPCTJevkj446bM8xxOBeKprFyeFYBibrAvEn2h6Abc/9VoCi6tvgmUjUmeJVFM627NIW1W69AFsJsEqaLKyQG9BuyjnGulTo3+r5x11UrDL74sUVg9grZH8VKR8d5drVIJlZ73WyJHBRZjcYqaGF8db4eTyYxjGR1aOHkrh+tEOdLmEyxGs5/7+x+kLluQUmusdC6punciTNwYxsoAcS0YlW3UlAl1WTqLjt6pU7r0xWFClBY6EqEqmfDfL7cTy20gI9ZaFSvjQhoeN1PB1K0S5IlTdFyI7NcMMU7JStAQnWl7EX9nCdRPuNQTr8T26ULp4s8LohKvxI/vVdgJk2viOvT430E6PrwVOpmUPzDyzH90y6aiFSgPvzposUOVihZfrbYZhvGStaAkc4ZqNL03qp2D1mVkoyderKSgrDJmWXeYCFK6pyljjLEZcjWGYQLJatARSuFb+I26/50IIlmAnOnr0agrajpDVFQZt4YlBACue5VpcwXqGYUyyXrQEJw7sw9shhWMgkGJkxrhsZqGijKwr7TpuOngUyCtGhRGYl5TPxkyXBaXcwNIZaf5ZD8Mw0RCtC82mh15Ec69/ZK92jXDnDqDBsozqm1RgvtYsNwtrlzlTLBQ7sbzpAAnhImz2BN1r1/DoIcMkg0UrFGIE0JqS4MSgZPZk14iiKCdGFM1yN5GYiX26iEX9GsypawPmVdvHE0vVkaaAgD/DMBZZm2GaYRgmCLa0GIaJFCxaDMNEChYthmEiBYsWwzCRgkWLYZhIwaLFMEykYNFiGCZSZK1oiTldDMMwXtjSYhgmUrBoMQwTKVi0GIaJFCxaDMNEChYthmEiBYsWwzCRYkiKVm3+SLROVUvjaL2TYZghAVtaDMNEiqz9EcD+/GCgsLRqLlbr7V0fobovKRI1/qzSApHb8H4s96UKG8YsW4HWpUV6w6DDm1V7qOHJTm7iyVQuEvnWlOiNQDy5NYPaNEH2cy/yXOKXdUOUjRpsaSVCZoB+TKXS92TLEZmphy8ilf9jaFymN10IMTfbagvaSxah9Zk7sESXiDLiBZbwWoQ4G8+IWBp6yrCa2srKA1C3wvxcJfCNGxnG59iCpTKaty6d4GlP55jB7T88YNEKhDpmbRkgHqiAN1XdCraywrEB1esPBGcoGgZIkaLrj82rTktk7IQpN/qfM3HMVS2nULr0AaxN0qby3EPQyhKwaAVQu2YRSj0p65k+8k4ccb06LJEZmtJIF0cWfpXIPr7eTJjiRmWHGoMFVcMzBR3HtHwI92cRsP4bqK7Xu1KivlOqtwTC7F9sip5wN2uLsavuRWCZEQPRMR937MwbM3PqtH2GERex4hue2IdIAuuruzy/kcrMExuR5xeu8G2HcKt5LUZMKjAmY30u6yDcGY91IPfDHavxtZcnlqPxnq99/RZg6SJMtttWHcfZttBxph5PPC1FGwTFp+R93Dbb/T2JdY8SnMtA3dujgW3grXtwWT+pyvljWgGxN+P6E8bAdJt1Wc9UQJwt8HkbQNjS8rJsGnWmU+h+R2+nQtxE/fDZsQcrNdga75tQ5EQUKcV0OeE6idyHz9ADWNjixC06vLkTFSKN/tzdzjnieWVYSd9tLY/bcbdA10HUUT946hyNaEYZVnvjM3S81S9Nw3Z9LHkOIzejismoWIydHTtBR5WIB54e8HiLkRZN7PO0l0rN5skV+YzuRFZd6LxCsMwXQ1qkbANDfKxz0vWLTOBoegqLaVu0rezo8vPwIQKZxBcTUBLCRS4rpBdXbxz0BCUlnWNKlpVjZpsZP6P7KO63fkbrdge78UvmF5NYH8B2KUrURvR5g32McK5qpmHR6hfiJopO6XnTi4dcCtI8382Mt7zoPOzadYjl0RvT6Px160gsUIS53jgIWTX2G43Osa5DfBdornfejpseaiFRGYOZ860ksKqOru+K/Iz1SvRudZ1DWA/Gm9s6R9nskIF0IbYqf6Nc6NgP04Nttk1tFVks1PFN17tuhRDCIlRZiWupg8mYjuutvwHVQkT1VnqEaYPLUUBt2b7bEGG6/mqXBRdh6td4rNENeFaIcP5EdW/r93qeG4HKoO68dEReT7dlZz1vBVP1jkGARas/yHT3p7BrW8CDHfgQeMvuRIdI9x/izSpwdShCpuvHUXQke+PrOjav81hETYekFTF5klG/3k5s9BxLniMvRjZJGIzRQxmAJ0vQlUG7EnNFvIbEwOWCYD+6hXgXXi63amcIgdnrd3t0ndMmVBuoOgy21dA/Utz7AIQbaL1UZDjCvrdKxGLzyh2LN9HzLa1l6zjK+nU9RwNMtEUrhx50vWoSo/19RgaOQ745psYCz59VyDp6LCDjYRsw6M0uXIfYvJscESifiMn0n3Bz3XUxYy2zUJKvVzNFqDawsog75Sy3uL8smTQh8IUQRNiXhDpmuJedQMTAxDXVwHF/pbtrsGlbp8vCV1axWW8Rh6O2kbFZy0VU4YLBJNKiVTUuF+vH52CuIVIzR49Ahd0BzqP3rF4NS9MO7Ao72hOFkTFZR8MC8ixulyGzWK6DPcqlLRs7HuZdpIusrc9QKOsoJWm0gT2XSk9V8Mcl00W7WG07PNZlMF7hCCa9YwrLaCVZVbLdk8UgXc++3yq2RtVXpRHPGwgiK1pCnFYW5iA2IRdPTBmJbUW5tIxE/eQRsH+o+cQ5NHyo10NDb9wmFSBPObdGdkKvC6jRAf1A13EwSVbHAUfP07LbUrtgKV4I0toomeYbiFBt6sdyK22kW6PXBX1pA20p2jGfPmLNuVoX9uWg44ilS/0DMRZL7rspvWMGooTPjfXsU9vLtrYC8ElIcE8Gkmi7h+f0/7nAqItyaNHbgjMkWN3n0aw300I/sMKN8bsIYpTJinuoTineyK5y9qiZEXS/YFixCu8ER7qONZ7Rw1CEEx4ba54StckS44XgbdfaNU4nVRZaEWpco5vkmnj/pIWOt7FNCJz5gqHrWuadnhCmDej4LqtKd+qeQ7alIUfsQk+UVa5UTUnwdI5k1K1opDYTI6r++JqISa2eB/eAiXwmyW1LNFtfW7jmPVPCpzdMZCyWzu0d9SWU62pef9A9GXgiK1q7Tp9D5f6z2BU/74iXgNZ7jp9FXdc51Jn702TTQ/eTm7AFXcJFkPEPa6E3Jww/nwTOnuJgldFD6wPpeqWDvBYSV3csqRoFu70B8TA4wiOPk9J90uWtoHxQe9FSdcTsIPQysIbk7TJiKoY/fiKuTfxZlXNtYkqJ6PS6gCZUG1jXpD/zzb2SAmzFvDyC4vquWNS8OudPc9KB2uw24aIe9cXhVEwqXfdMj7wadVyJF30xLcUGbJd/pub3ElRbm7HB4Hsy0AzJyaXMUEVYL0GTSRkvcrKoELhkMayIEm33kGGYANQIbPzIfr09tGDRYpihhpycmwWDQAMEixbDDAl0MF7EmoL+BnQIwTEthmEiBVtaDMNEChYthmEiRaB7yDAMk60EWloinhSWgSrLMAwTBLuHDMNEChYthmEiBYsWwzCRgkWLYZhIwaLFMEykYNFiGCZSsGgxDBMpWLQYhokULFpZSu3dTWj97qE+/Bwywwxtsku0xo7GOL0ainTLR5peND7ahMbr9SbDDFOySLQuwZ3334sN36/ANXpPUsZOxT1/dy9+du9ncZneNZSoe7wcc743sQ+/4c4wQ5ssEq1j+Nmv3kD3FQvxD6mESwrWn+PLRYfRtP5VvK93Mwwz9Mm6HwEcV/4VPH3HtSh4byv+9t6NeF3vd5iCux/+Km4hwfr593+KH75xWu9PzpKb38DqTxZg1XPAyjvfQgyFaH7yU1i+R3wqXK9XjPxtJWj4ZrGTRWX6IWy+sxu7qHzHF5pQU6z3E+0by1H9st6w8R4PiO+Yj8XPm38wfgZrv7sNC4xcV2YZEdOqmXAVVpG1VSbWjXNKOq/DnMetHFD+Y7k/J+xrmA7cosrG93yS9r+NroBrkO01e5y7HRgmC8i6QPyJphdw+1OvJbC4+iZYDt1YeQvw8DfJ9fqmFizRmUlgJpNgzJH7y9HQ2YGaRzt9yTJn3tKEuW+qMmJZtaMQpRWeONP1nWj1HG/Ok1cBs7eh9W4rr5UWmaMkLEYZkZsuCOkqfvM6mapJiKQsbwmSrL/nWKJs8SuBgfyZt9BFP6fKLX6yALviQOnVnnxbJLq3zj5CInoZCxaTdWTl6KEUrh/tQJdLuBzBeu7vf9wHwSLIutj1nDtOVPsFsrriV+Fhwwqqe1wIRAeqbjatwiPA2/NdFsmm5z9FAkedfqElDiRGCzv8VtWeiVi8sQQofg9rydABTqOA6tL+pmEJUZlqlyUWDll/r1WFPFSTCMZjb+FWV+BeXMN0bV0KRmH5VrNemuuPkZVYiF070q8Pwww0WSlaghMtL+KvbOG6CfcagvW43enSZRw6XN/txVxyu9q3egPeo9FNFkiswBTG4E7c1l1IBU+jTGxMP4aZsQSd/eVLSAiPYOZsIYTq+KUVb7jFIm10/U3xs9hzSaAV1XXYUzdXvRS1V3eQe3mFIW4Mkz1krWgJHOGajS9N6q9gEfHRaNOrkumnMJn+Ey5e66Pm4okPheWK05507IkgC+d7wg09ggV3qnNudll1IdH1D08hut/TqzZ52E7WYuyTx7S1mEQIGSYLyGrREkjhWvmPuP2efgpWEHvGyDiSHSfyLi6XKwmWGL43GmTchEbFqmgh1zHminmFRNe/v9T9SriS3agQVp90DUuw3Te4wDDZQdaLluDEgX14u0dvZBTtpvkC0UG4XSjFGVR88ghwdIxyL6WIBJUjksWJXi6WQX1MOJXmDPgk9ZeuakiLSbqSot69OibHAXgme4mEaA0cViD6FZ97Vnu3f/QwNnuPKwZVe7dwIwvR/CtLGPJQra0m1/HECF+FEAMrCN6LRpdV5RG/QIIEiur/HFlJYqTQdTw6vpjW0XldwHSMIEZh49uF5CK+lzgmxzBZQtYma8009jytoFnmcg6TmLvl4BoBtOc4XYGCO5PM57IIOJ57Ppd/Hpd3XpU5T8uur5hOQeIncZUPMS/MvgZrbpoXfYy455wMk2UMG9HqFyk7/FBAiRYCJ8syTPYwzN1DxmLJze9xAJ6JBCxaDMEz4JnowKI1rBEuoZgnpv7syP23kQyTnXBMi2GYSMGWFsMwkYJFi2GYSJG1oiVcSYZhGC9saTEMEylYtBiGiRQsWgzDRAoWLYZhIgWLFsMwkYJFi2GYSDEkRas2fyRap6qlcbTeyTDMkIAtLYZhIkXW/u1hf/5OUVhaNRer9fauj1Ddh2xjFkvuewCr543RWxan0Fx3P5Y36U0GWLYCrUuL9IZBxxbMWbFBb2QrlWh8aREmtzRi8UM79b7soXbNY6jJb8Oq257iH2ck2NJKRPkd2PzSY1hd1olVN34Dc4ylQf946PBEdPDH0LhMb7oQYm621Ra0lyxC6zN3pPnb91mAvP8PYG253mayBhatQKhj1pYB9OadE/B2q1vBVlY4NqB6/QEgrxgVWd35qZ4kstloZQnqVtALgK0sGxatAGrXLEJpbxseztKHOFK8E08rrRrDpIJjWj5UfAPrv4Hqer0rJeo7rsQS3viIcDdqi7Gr7kVgWTUWWDkpdMzHHTvzxsycOm2f8RhqSvRuElYZ5/DEk9qD6i7PX+Yk27C+qzfl+YUrfNsh3GpeixGTkrEV69wW1ueyDhP8sT65H2i4cY3xq6je9jrg/txuq/vRUeU+Z+C1hWl/zMLaZ4x2J5wy6vsqpgVfOYH7eH273/HfdwGfmIyugGtQ9/+op50U/piW/1rM+5kwBqafAfv8AXHI4PbNLtjS8rJsGj2Mp9D9jt5Ohbjx+oG3Yzl1bcC8arSuqdSFLMZgQe1NQL0uJ1ynkkXY/Aw9sIUt9vcbOkS5Fb4UZqVLH8Pc3c454nllWEnfbS2P23G3VS2nqJwnFiPqqB9WdY5GNKMMq72xJjre6pemYbs+ljyHqN99s+TH0k0RcSpaFw+3LJMsyC46CXWKeEuTW5A87dXQUYSal/zXO3OZcb20qGvzxNNCtb/u5D0ksEaZ4ES3O7H8NvV53IjR2YKU1v0W1+Dc78Vf34xdvXQfZ3jLVeJWemG52ikZy8oxs804v7gn4t7p89ftDnbJl8wvppfWAWyXokRtQp832MdI8OxkISxa/ULceNEpPW/ZpqewWArSPN8DEG950bFE6pvQTA9xLI/esEbnr1snOkwR5nqD3WTV2G9BOse6DvFdoLneeaNueqiFRGUMZs5XQmPV0fVd0THrlejd6jqH6KTGm946R9nskIF0IbaPUafWCx37YeoMZtvUVpG153G961YIISxClRZHBVmd1DHNt/6mh+6XgyClJHyqPmHb/3IUUDu17zYElspUm98JRbr3W1yDcb9FuzcFlNMvyl3bQtanfo37/NiAZ0lwkD9RtUv9Xs8zIJiFijJTGIU4u60669kpmKp3ZCksWv2hfDZm5iV42AIfHG/ZnegQmbN74yqtfgpcnY5oO0IPKo6iI9mggK5j8zqPRdR0SFoakycZ9evtxEbPseQ58mJkl4XBGD2UAXiyBF1CVIm55Oq1Uyd3uS3Yj24h3oWX621BcLu66hO6/dXx+21FpH2/ga6DnrIB5WpniJdKi9utDoFwA60XhAwt2PdJiVhsXrljvSaqu7R8reMol9f1TGQh0RatHHrQ9apJjPb3GRk4Dvm2mRoLPH9WIevosYCMB3TAIGtAuBuxeTc5QlE+EZPpP+HiuevijyGFInT7K5dPud3qnJbLmxZp3++gMMMGbHdZr1rIPS+kZIj4l7iGGjjurmhrk03bOl3WurJwzZeSiMtRW8i4m+UiKtc/24m0aFWNy8X68TmYa4jUzNEjUGF3gPPoPatXw9K0I0HcIYAojIzJOhoWkGdxuxmZxXI3FlTpttTWnR0P8y7J4mMmlmWaZvurmBwtZAXGEsSgkpKh+y3dfyvmJF1DK84UArKMVpJVJdswWXu5nmO/hWuNkK+6MXrTdyIrWkKcVhbmIDYhF09MGYltRbm0jET95BGwf6j5xDk0fKjXQ2PFHRYlmEBpIDuh3yWQpBunGCiS1XHA0fO07LbUblqYF0JgnVVcBj2HVOfra/trK9COAYUlU/dbCoo4TqWOkYUMwCdEt4sL6zmehtqwwijLZT/Rdg/P6f9zgVEX5dCitwVnSLC6z6NZb6aFfqiFG+N3I2Zh7TNWbER1SvHWdpUTcQI5amYGYS8UVnyj2iPCdB1rPKOHoUhHeAg92KCC584LwduutWv8o4cu15KoXSPcSDM+F7b9yRVyWVUe8QsiUKAydb93YmMb3ZOyeQFxJvF8kduW6K8IZL3c7b/kvpuC3WsZPytCjXcEl1CxQXOEkdqIykWByIrWrtPnULn/LHbFzzviJaD1nuNnUdd1DnXm/jQRI1XCx+8SboQdexELdRwYsQESOHvI2yqjpxcMpOuVDvJaqLO5Y0nVKNjtDYiHwREeeZyULpYubwXlg9qLlqojXmtDuLQtKDBicTUlYj6Xx50J2/5WfeWipz8kdUcdsRffsUUqQ/dbus55YzxxpjCQcNL5xVQU6/wr8aIvpqVQ8bOgQQ01EmvGOsVUl2jEtIbk5FIm4gjLRU8ujVq8JTxqgmqYScxysqgIuoeN+Q1xou0eMkxEWXLfvHBxJnIXS/KB+JH9epth0WKYQSeNGfDLymUc74IP6GQRLFoMM2jouVH6z4ASx8B0MF6UDfp7zmEOx7QYhokUbGkxDBMpWLQYhokULFoMw0QKFi2GYSIFixbDMJGCRYthmEjBosUwTKRg0WIYJlKwaDEMEylYtBiGiRRDUrRE3sPWqWppHK13MgwzJGBLK0PU3t2E1u8e6sMvgTIMkw6cYTqAJTe/gdWzj+gtg/hVWPW9idiEXjQ++gom75iPxc+rX6QXolUzwfo8k6hz+X67u/M6zHm8LylsIs71nWitkD/H6SYi7TFwz0n/Uc/9ODR8s7ifv1k/sLCllZASunnlmGMug/ygSeuNBAsbPfV48qq0s8LIY93dq7eiTiGanzTb5Dq0F78SUUtXvJSa0Hi93mRSwqLVJ/JQTZ3FsrIGAvHWqylWwln9st5psWciFg9HKyshdD82lgCxblRM17uylLrHSWSz0MoSbHr+U/QCyG4rS8CilY1MP4SV5J62b8z+ByhreG909uegZDICx7QCSO3bp45pyWN8sgCrngNW3vmWnZm4nVy96pfPYO13t2GBtdOOlSns74Z8I6v6mjE44T59Csv30GpgDEhYcM61yboX6w1C1VFvaLzniO+4Drs++QoWHPXGkjzXJvDGm0iUN9/ZjV1Pkll0iyob3/NJ2v82uhKeW98PeT0nnOuzkPvhuWfeeKD7uq3Phfv97KXe63PurYM/vhhUznc/jPtrPidlnnaXuNpqgNtS77MI+sx3Lb5nK+BeWPW2nw1/u/UnBsmW1kASewurbwEe1rGXhk6gtOINbKYbWrDViMeIcna86QwqPkkPydExIV2IXtwqBE6fQ53nCBbc2anyCL5cbJ9bPiiyjPVQiodLdyLr++RmlVa4Yyyio6mH2TrHfCVYZmcSiA70qH5Y7bKJ400zb6En/TlVbvGTBdhFplLp1d64G10fdZr4jst8ncxGnJeE2VVG1kW9WKy6NHR2oOZR3S4Gkxe+gZWYbpcTbRCbvQ2bbzZemqKDeo4nYougcmas0On4ugy1VfNR/aEH6SqK9qF18aKQ5a2OfKHa0kWqZ+sSqvsRzJztMS6mH8NMejba31TXsuTm99xxWRGTpetwtW8asGglRDzgIhDuLOk3Mr2VnnOspbpfiQD6EcToQXTegHl4dkchUHzM15nCkYdqj0WmznMCJaniO9e/T8LjrqMQOSmuC3XHoM5TVSzeruabeRSWf091NpPaL5BF6XuDUv3EQ0rCfKsr2EzC/PZ04w1Nx9xaQu3wHtaa9b7+GL2hC7Frh2nNiI5j3Bv9YjAtHlkXsnAeNvbVPS7q3IEqz32MHb3CbS1RG6yiexKb/b6+JyTuC4UoeqwqEVsUsTSjzmUFdF2dl7jb6vFwFrPJ4LVlMlI9W3nYTs9K7JPHXCK6ZHa3bPtn9TMuYmUui4/abZ34XkGaLpCGRSsh/tFDv7uQgngBNppm854xMjtwvHsAZrxKS0B3YumOHkHBFfqzBNReTW5j5xUe0x5o6yYRjZ1GGa3LBxDj0OEpA4xGtyuI1Iu55OpYb1cXey4JfPN3Hfa0Z8CbO7iOQkT1fZEB+Lew0iVEui5bvWKh6uztLEF13nR4HP2rO6e0HBJ0dk+dZdv1w4pQDGZbhiDJsyVFzCWiylOIv32Jp+2VVW8dR7rFE071abQ32qKVQw+gXjWJ0f7oMgodwp0Ie0OlG0EPgozn6I4cakrEGZRMoP+Eu2E9kHoxYxjScoiPRpveTsj0U5isV8NRiG7yGtx439xJOq+FbRXtcawKXRfh5rqvzRMfCssVpwOfsyDkCJx2L+U5+zIN40K1pZcwz5ZXRLX1bgq8nG5DbT/zbdNV1x/2gUiLVtW4XKwfn4O5hkjNHD0CFfZ9OY/es3o1QtS9GXb4nt5et2g3IiCwmhwtjnacy7ukeTxtRfYX9ebW1y7dmRJs9wSTvWx6/gppVSz4gu44ui52nMi7hA4Aawsz3ZFJHUe045UBcbSkXMC2dAj7bI3Cxred8IbPmiMrrUaGFzI3RSiyoiXEaWVhDmITcvHElJHYVpRLy0jUTx5Bzag5cQ4NH+r1KPHyZWiOUye8pW+TJZVLlxrlyiSPpSUUUB1sdVCulz/4S3gCs0mRb27h1vTqOFKYoLGep0VWoxpASFKXAILKyc5nWZhSRAICzoKkcSIdgwoTX3RxIdsyOUHPlnppdGDu9WGtOVWur0TbPTyn/88lvb8ohxa9LThDgtV9Hs16M1roQHeit7SIMcgRK20tmcJDJr2Y4+UlSKCsh63G68LQ8e3RQ0tArREjiX4L6y0F1fk56qDC3XTNvO9Fo4iD0BvbO/wejHpzxz75XuI4UhCyntTR5QCCFYj2x5Zq7w5oT1vsFGIEUMRcnJiYEkXfiKJwn+SopRME9x4/cUzQIkigBqMtdYwpofsa/tmyXNHSildQagTgJdJK9cTW7g74s7Q0iKxo7Tp9DpX7z9Kb5LwjXgJa7zl+FnVd51Bn7o8c1FHIxVi144RvFFPMu7LeZnWPz6fOaox0ipG0gJiWLVCynNWxxDno+xDiqL8vloWjjQdPCKjnHI9SD3xO7NNFLMRomjUsb5fV0wTSmJMj6xo7gph3ICMpWqisoLxw0agd5JQEuy5NqOr2WxvtG+eje6FTZvVsSHfGJQxBxyMBEXOh3G6Pe9Q50ZwoB0dg5XcskbqgbakI+2wJpEVO+ALweoTVjvHRMvfN/sW0OMM000fEm1oFVzMVq3BwJn2Gsyj6ymCd50IS/hrlHLM0JjVfKKLtHjIXDh1b8Q21ZwAxGTG9oDGTiHTaUo4Uh57UfOFg0WJSQG9qX9wj3dhKOqQ7a5tJTBptOV1MIg4Z4L/AsHvIpEC5gd75TcF/m9cflBsjArSZP3Yihqp7GL4tzb87Dfqb02yERYthmEjB7iHDMJGCRYthmEjBosUwTKRg0WIYJlKwaDEMEylYtBiGiRQsWgzDRAoWLYZhIgWLFsMwkYJFi2GYSDEkRUvkPWydqpbGAcghwTDMhYMtrQxRu+YxtD5zR59+HplhmPCwaAWw5L4H0PoSiZB3sUWpEo20vfm+WXIr86jj++uwwv9TwVmIar8srWv5HdhMbdm4TG8zkYNFKyEH0HDjNzDHXG57alB/IC3e0ug6f0NHEWpeegBry3WBCCEt0TWVeoth+g6LVp/YgGoSkcUP7dTbg0Pdii1oxxjMnD9QFl5m2PTQ/SSya7LzR/yansJiunfV9XqbiRwsWpFiP7rN5CwMMwwZkj8CKEYPay5W6+1dH6HanQU9JSIms3reUXIPE1kLIua0CJPJfbOsLeH+1OS3YZV2IeUxyjqxit7oK2vL7HRb7evFW34W1j5TjQXWL9v2Ot9T+I+vUPshj6F3EfLcKhmKRJ1DbxjfeXaSuK4xer9yP/3Woqdugo4tmLNig97QLFuB1qVFekMg3GnVXq7285UTOGUFqrxTL+/n5jVsn6GvteMtNOdfhQU9AXUTcStq8y5PO0mCPguoo92GSY7lvucB7ea7r0wmYEtrIMkrw+plwMN2TAooXfoANtPDXdBkxarI5RPlUsZ7RKdYhFLqCM/anUfs0x1Hn2PO+gN0Dn+geXL5A1iJF/U5VbnYvGr3YIIMUlPHE0JglRP1K1nkHhmVnXwCmuusMuraAqlf43wuxE+WtwRJ1V8JnHms4NiduIa5u3W5FT/FxrZTQMk0X8C/topeEq52SgbVgc5jnn9Vyyl5n+T5m3ZgF1m3pTO896cSc0k84207lCgtK8fMNjMGGfa+MunCopUQ0XHMkbu+jBaeQnO986atW9eGOMYgRqLgvLU34FnqJEGdT4iKc/6bSACoM5hvbuooC/Lc5xAiIcWRBMicfhHraXFbVVROdM7YvHL7vLKz+6yqDaiuo3pTB7xVC+GSSRPIiujExia1LahbYVpGIZH191pV4liNaO4dgwVV7g4vrsG0djY91IJ2uk9VrvviEZOU7MTy29znV8cdg4KpYmtnsDgum4ZSsgjXWW1K7em2WvV9zZ/I02AyDItWQvyjh35XKgWejo2mQ+ii/+JH9qvtFDijhyoAv2CZW4hqZ5BL09GC5eY5iLYj1FnyYijT24L23R4Xith0UKQQnoASadGozh5UzmttyO9lwIpQ9d8bIHbBQuFvtw3YTgIdK5ttWIEeMQmLtDKtFwRZtLRr8iQlhkHimKjucpRUH0e6vJ77wPSfaItWDj2wetUkRvuHFo61s9LuOLNQkk//CdfN7mxGZ0mX8omYrFdTIlw+UR/73H2Zk6XrnwZdB/1CVLf7AAlDMSq0K5lYCBMh4mV0DbXF2GW7u+IlYeIRRxK4Ko/Aq7lp5KrDca2FJctknkiLVtW4XKwfn4O5hkjNHD0CFXYw9Dx6z+rVqNP0FNaJjmO7czvR0UP/2XEi7xLWXTuKDmGpaSswNHrqwJwbhSvXl/ljuv79pb5JupJqGkgSazEBtWtUnHDVjff7LFYTUxyXzC92x8xIxFbSi0IE732DAkzGiaxoCXFaWZiD2IRcPDFlJLYV5dIyEvWTR8DO8nbiHBo+1OtDADVPiwRCu2XSDQyIhQXhDyRrq6Q3jja5paZTBJVD+WzMpBdBsBiImJByX1UMKDyJ6z8LFWVkLYaymJQrKayg2vvmeQYq+oh0MT3Y4lgp65Y6Zqavgck40XYPz+n/c4FRF+XQorcFZ0iwus+jWW8ODayg/Txp1Vixlhrv3zwuW+H/MxVy5cx9wp0RUwfayWJSnY/Ep167fK5YFblPYsoGWXRWEHzJfSvcVpXs5KfQ/Y7eDiBIoDY99KK20tzuZe0aMXXgABpCWi2btnWS61yMqgAxUW5bYitQxf8c91Jer2+KhkCL47xFsm6umJm2Uk3BX3LfTe7pD0zGiKxo7Tp9DpX7z2JX/LwjXgJa7zl+FnVd51Bn7h8iWCNbKigvZuaTe4YyrNbxLLmUx33WRvv6RnSXO2VWz4OcsuCaeyRdPrKaXHEyNV/M7fZMwIJa51hq+kNy98oWWPkdS6SElWZNcXCOp6ZwpDEaKV3nMYjlncKubekF4MXs/Qb6rnM907DdF9NSSHEUKz4LUMccjXYT00s4pjUwcIbpIY8zMdM7OXIoISd6iiB4KutMjBLKoHtykWWyl2i7hwwjCBjNS8jUGGLW4AMTSVi0mMgTfga8mP2e7pQIJttg0WIiizWR0/ybz0DEnx3JWJP+EyWelhBpOKbFMEykYEuLYZhIwaLFMEykYNFiGCZSsGgxDBMpWLQYhokULFoMw0QKFi2GYSIFixbDMJGCRYthmEjBosUwTKQYkqIl8h62TlVL42i9k2GYIQFbWkxaTPj25/H1ny/EdL3NMIMNZ5hOxKJrcfvXpmKC3lQcwfovb8UevZVphCDcPvfjesvh6PbNePoHH+itC4uq40mnHf5iIb5eWSg/c9HxCv7bNzr1RvYy/bH/gqX57+Dp21+DSKiWTfjampGwpRWAtCa+NhFv/uh/47992Vo2Y2uvLiAQovbzz+Mzi/R2xhDCaJz3R+8Acxfj648V68/DI6/j6Ws9wjsQ/Ae2utrqFewpuW6Qzp1pirH05yRkf6E3mayDRctHMRaStXN0ewt+t0XvknyA391+Ad54W17Duu3/AZRcESGXrBPrNxwB8iZiesZFPbPs+QaJbBZaWYKjP/g1vQDYyvLCouVl0XiIHKI9B7PDHRMcPXhSr0WIjnhWCgETfTim5WM8PvP0YixEojiH/tyTHsqJOwn34jq3VeSJ78g4Cmjf61foeJCKlfUkiGHI2EbpIXd9AmJJezb8b6z/Z1oJjMcJF+7XtvWo4iVO/CwwbuY9Tu87WN8+EUt9Ma2xrmNL5H74rkVee4neIOw6S1TbgfZtnRSifgFtHVTOe63iOqy2NGNa+Z66SVz3LuDe+2J3zjW8dY0+3pEjOFpYiB7XtSpU3YLjVkGf+a7FvK+J7oVV7x6rrqmf0WwmF3lX/n963Wbc6Fz8x+lwqZmzoayXz44dgZl6qkNP/Bxe/Eith+M0DnxwEco+NxXz/+wqFI5tQ/ur+iMJfb6uDb89RGU+Mwo7fvQL/MsjbXh1q1LGCd/+DKa88gv8831U5gVdbsnVmDX1oF0m//NXoTQ/D2Wxd/Df7/h3KrdPdqAxCz+BWUUfol1vS+hB/H8Xj8eeXzfhVbse9BAuvxSv/tdf41/FOWhpnzoFNyz+BM4d+j0ObDmEV/W+WbH9ePq/NuHlF2i/fiZFR735U8epM+jvUx1n3XSdq46yA9x2OfZTR7Oupf2qa3Gz7DAnnTp+egrml34M+37nHF+KHX33FLnYv7GOJztOBf7zWBIIWR865tgCfKlyttHG41H6Z5ch/7IpKOtpwX//2quqDancDYs/hTJv/e6fhhwSKbucvo4b5p3Cb399XBZzOr7VVgdx7v8Zj6O/PgSR4Evei7HH8Oq6Qzjwa/H5KRRSHY5a162PI6/ph9ehtIs6t7xnuuxfXYcvVVyEdvq+ShjmXMPHt+vn4F97cVFFCd0Lp16KYvznFcV0DWY7OfifByr/1bNYb7UfLd3zZuI/LylAtyjzag7VvRjFI4x2Eiwqxec/dwn2b/132c5hntFsht3DILa8hqd14H165X/B19MIzIo4hOttSsfa2kEPSoE2/SzyTmJr4JutkN6C6pxyueY9Gdx2v6H98bWjP2in7Y9jotdS8EKdbyGV2bPB+L6Om02Ye41++5LALCqUVot5XnltdC1+Po6FXzPqTG21jurssnj+4hqyUMgq+GfDWvznrfJ406lOplU4oafd/V0q93SC+rnKifsmYmklpfYASX4BiWzHe0ZbUdt9I/0Y1vRKsjh91kgn1v/oHRzNm4qFnudDXIPTdnTOLe56Sf5CxCn/A2/+1mtBJoLO57H+92yg82MsJsjjduIt8ayVFrvb848mYgJZl1t1fUI/o1kKi1ZChDCIkTBHvG7/9nj9WSqEVeF0Yuki5I93u2u9cfToVTfO6KHoqCi5LrFgire/JRTa3M+flLyO3gfYQsXN9MO/qBhXk8AEdaaebqqTD2P0UAbgp6LK01bTryFXtqPd47bo4+XFZBzRYs/rfjEPWz/8sxCoj+PqP1Lnl8enNgx/74IoxlVC6APqhS2deFM8H9e4R3ePdpsWFeGplyBRm6REWJnWfZfuu/OykiLmEtHxmF76cRxt7/QIdYhnNEuJtmjlADG9ahKj/ZlDiZd6089LOcVBuF5f//liXN2+WXViWgKtk54PUr7tLctmeqV3MqeISYgH1pyW8YphTSRGWh70UDtipxczPlYS6/vDa1tFZltRZxCqJKZBeM4bNC8tJWnUT47AkZBOENNGxDn7Mg1DD86kg38gx2sFJRHCRFgvKRkr1PddWHr6Y4lXRLWFawp86Gc0S4m0aFWNy8X68TmYa4jUzNEjUGEHSs+jt29hMR+W+2W+KX3QG3BpibI6XG5LP1DmfyEWGpbC9MfIqhLB5C97A66pkZaH/K4lduaij9fPkT+rrRZWWtYHCbQwK4V7FXhefxA6mJM42pf6kZCq85CwS8FOc0b/lg8SWMXpoawgPQ1EuoZH8JbH4k0MWUZ/oV3UpO31Afa0C+tSTZHxWXMD8IwONpEVLSFOKwtzEJuQiyemjMS2olxaRqJ+8giM0mVw4hwaPtTrGSL9qRDqjdpn7HhTCitPdoLUSDcr1fwp2UmDBFq5GqnR87QM11a5aeHq6HW1BLLzWS51wvoRSeNEOgZlx4DCchyHAlxAiXRVQ1pM0goS9S6meylicq+HFOvESHdfr1uol0YhrvqLsNZcP5/RQSba7uE5/X8uMOqiHFr0tuAMCVb3eTTrzdAIE9znQgj/X1k3diwoqONIC8C9T1pFer2veC0XFQcyhYfcxYA/pQkUqH9+HVup4yz8msfaoOtealtzndgqhXKxK5424dvzfFM9EiLPQ9evg+xWR1rqbVvx5vfG7DxxPDECKGIue0jAlYWlRFHUzxWrEveO2sGcGDz9Mfd1qk6uLbZAggTqA/zun0nshHvr+ssEancRUyLrxz1QkghlBU0oLQ2MyYnr/HrCv7LQ1qop/HS9VYHutXJFp1d6nlnBAD2jg0mk52nlj8zBo5eMwMyPk39oyS8JWU/8LJ49dh4Nlqilg3jwfXOciIB5LOacGXskSwRJDQER85DkfB3j79vk3CAxTyvweMnm7HxcHk90EHkM++0ogvfv4aqfX4d814iaEFtrXpExn4dwf18gjuE+r3l9AnGN6zDPXUd5vUFzgwjdFs4on1kfjXBV7RExa47TZhxaZJZz190m4F65532lvk75ufdvD8176Lrv/vlNvhFM+xq8I74W+hiu61ao9oZ9rf7nwdN+4hh0jipqA98cMF/bG4R4RrMZzjDNZBGpOvxQIPw1StHyTipmIu4eMkzEmPDtUrLUwgXg5UhviFHm4QaLFsMMGtYf44cIwJPrKycBpzMlYpjAosUwA45wCcXcKG/M0Y+Iscn5ZEFxKkbCMS2GYSJFzuRPV/pEi2EYJlth95BhmEjBosUwTIQA/i90UTj4+mHM/gAAAABJRU5ErkJggg==;movable=0;resizable=0;rotatable=0;deletable=0;editable=0;locked=1;connectable=0;" parent="WIyWlLk6GJQsqaUBKTNV-1" vertex="1">
          <mxGeometry x="-192" y="-140" width="192.32" height="407" as="geometry" />
        </mxCell>
        <mxCell id="OdEKxOvV1YU56GnAyZDW-9" value="StarRatedRepository" style="swimlane;fontStyle=1;align=center;verticalAlign=top;childLayout=stackLayout;horizontal=1;startSize=26;horizontalStack=0;resizeParent=1;resizeParentMax=0;resizeLast=0;collapsible=1;marginBottom=0;whiteSpace=wrap;html=1;" parent="WIyWlLk6GJQsqaUBKTNV-1" vertex="1">
          <mxGeometry x="400" y="-130" width="210" height="140" as="geometry" />
        </mxCell>
        <mxCell id="OdEKxOvV1YU56GnAyZDW-10" value="+ field: type" style="text;strokeColor=none;fillColor=none;align=left;verticalAlign=top;spacingLeft=4;spacingRight=4;overflow=hidden;rotatable=0;points=[[0,0.5],[1,0.5]];portConstraint=eastwest;whiteSpace=wrap;html=1;" parent="OdEKxOvV1YU56GnAyZDW-9" vertex="1">
          <mxGeometry y="26" width="210" height="26" as="geometry" />
        </mxCell>
        <mxCell id="OdEKxOvV1YU56GnAyZDW-11" value="" style="line;strokeWidth=1;fillColor=none;align=left;verticalAlign=middle;spacingTop=-1;spacingLeft=3;spacingRight=3;rotatable=0;labelPosition=right;points=[];portConstraint=eastwest;strokeColor=inherit;" parent="OdEKxOvV1YU56GnAyZDW-9" vertex="1">
          <mxGeometry y="52" width="210" height="8" as="geometry" />
        </mxCell>
        <mxCell id="OdEKxOvV1YU56GnAyZDW-12" value="+ findByUserID: StarRatedEntity" style="text;strokeColor=none;fillColor=none;align=left;verticalAlign=top;spacingLeft=4;spacingRight=4;overflow=hidden;rotatable=0;points=[[0,0.5],[1,0.5]];portConstraint=eastwest;whiteSpace=wrap;html=1;" parent="OdEKxOvV1YU56GnAyZDW-9" vertex="1">
          <mxGeometry y="60" width="210" height="80" as="geometry" />
        </mxCell>
        <mxCell id="OdEKxOvV1YU56GnAyZDW-13" value="" style="rounded=0;whiteSpace=wrap;html=1;" parent="WIyWlLk6GJQsqaUBKTNV-1" vertex="1">
          <mxGeometry x="50" y="290" width="650" height="360" as="geometry" />
        </mxCell>
        <mxCell id="OdEKxOvV1YU56GnAyZDW-14" value="&lt;span style=&quot;font-size: 24px;&quot;&gt;&lt;b&gt;Service&lt;/b&gt;&lt;/span&gt;" style="text;html=1;align=center;verticalAlign=middle;whiteSpace=wrap;rounded=0;" parent="WIyWlLk6GJQsqaUBKTNV-1" vertex="1">
          <mxGeometry x="80" y="300" width="90" height="30" as="geometry" />
        </mxCell>
        <mxCell id="OdEKxOvV1YU56GnAyZDW-51" style="edgeStyle=orthogonalEdgeStyle;rounded=0;orthogonalLoop=1;jettySize=auto;html=1;" parent="WIyWlLk6GJQsqaUBKTNV-1" source="OdEKxOvV1YU56GnAyZDW-15" target="OdEKxOvV1YU56GnAyZDW-13" edge="1">
          <mxGeometry relative="1" as="geometry" />
        </mxCell>
        <mxCell id="OdEKxOvV1YU56GnAyZDW-52" style="edgeStyle=orthogonalEdgeStyle;rounded=0;orthogonalLoop=1;jettySize=auto;html=1;" parent="WIyWlLk6GJQsqaUBKTNV-1" source="OdEKxOvV1YU56GnAyZDW-15" target="OdEKxOvV1YU56GnAyZDW-4" edge="1">
          <mxGeometry relative="1" as="geometry" />
        </mxCell>
        <mxCell id="OdEKxOvV1YU56GnAyZDW-15" value="" style="rounded=0;whiteSpace=wrap;html=1;" parent="WIyWlLk6GJQsqaUBKTNV-1" vertex="1">
          <mxGeometry x="800" y="290" width="650" height="360" as="geometry" />
        </mxCell>
        <mxCell id="OdEKxOvV1YU56GnAyZDW-16" value="&lt;span style=&quot;font-size: 24px;&quot;&gt;&lt;b&gt;ImplementService&lt;/b&gt;&lt;/span&gt;" style="text;html=1;align=center;verticalAlign=middle;whiteSpace=wrap;rounded=0;" parent="WIyWlLk6GJQsqaUBKTNV-1" vertex="1">
          <mxGeometry x="870" y="300" width="90" height="30" as="geometry" />
        </mxCell>
        <mxCell id="OdEKxOvV1YU56GnAyZDW-53" style="edgeStyle=orthogonalEdgeStyle;rounded=0;orthogonalLoop=1;jettySize=auto;html=1;" parent="WIyWlLk6GJQsqaUBKTNV-1" source="OdEKxOvV1YU56GnAyZDW-18" target="OdEKxOvV1YU56GnAyZDW-13" edge="1">
          <mxGeometry relative="1" as="geometry" />
        </mxCell>
        <mxCell id="OdEKxOvV1YU56GnAyZDW-18" value="" style="rounded=0;whiteSpace=wrap;html=1;" parent="WIyWlLk6GJQsqaUBKTNV-1" vertex="1">
          <mxGeometry x="50" y="690" width="650" height="360" as="geometry" />
        </mxCell>
        <mxCell id="OdEKxOvV1YU56GnAyZDW-19" value="&lt;span style=&quot;font-size: 24px;&quot;&gt;&lt;b&gt;Controller&lt;/b&gt;&lt;/span&gt;" style="text;html=1;align=center;verticalAlign=middle;whiteSpace=wrap;rounded=0;" parent="WIyWlLk6GJQsqaUBKTNV-1" vertex="1">
          <mxGeometry x="80" y="700" width="90" height="30" as="geometry" />
        </mxCell>
        <mxCell id="OdEKxOvV1YU56GnAyZDW-20" value="" style="rounded=0;whiteSpace=wrap;html=1;" parent="WIyWlLk6GJQsqaUBKTNV-1" vertex="1">
          <mxGeometry x="50" y="-660" width="780" height="430" as="geometry" />
        </mxCell>
        <mxCell id="OdEKxOvV1YU56GnAyZDW-21" value="&lt;b&gt;&lt;font style=&quot;font-size: 24px;&quot;&gt;Entity&lt;/font&gt;&lt;/b&gt;" style="text;html=1;align=center;verticalAlign=middle;whiteSpace=wrap;rounded=0;" parent="WIyWlLk6GJQsqaUBKTNV-1" vertex="1">
          <mxGeometry x="80" y="-640" width="60" height="30" as="geometry" />
        </mxCell>
        <mxCell id="OdEKxOvV1YU56GnAyZDW-54" style="edgeStyle=orthogonalEdgeStyle;rounded=0;orthogonalLoop=1;jettySize=auto;html=1;" parent="WIyWlLk6GJQsqaUBKTNV-1" source="OdEKxOvV1YU56GnAyZDW-23" target="OdEKxOvV1YU56GnAyZDW-20" edge="1">
          <mxGeometry relative="1" as="geometry" />
        </mxCell>
        <mxCell id="OdEKxOvV1YU56GnAyZDW-23" value="" style="rounded=0;whiteSpace=wrap;html=1;" parent="WIyWlLk6GJQsqaUBKTNV-1" vertex="1">
          <mxGeometry x="870" y="-660" width="790" height="430" as="geometry" />
        </mxCell>
        <mxCell id="OdEKxOvV1YU56GnAyZDW-24" value="&lt;b&gt;&lt;font style=&quot;font-size: 24px;&quot;&gt;Model&lt;/font&gt;&lt;/b&gt;" style="text;html=1;align=center;verticalAlign=middle;whiteSpace=wrap;rounded=0;" parent="WIyWlLk6GJQsqaUBKTNV-1" vertex="1">
          <mxGeometry x="900" y="-640" width="60" height="30" as="geometry" />
        </mxCell>
        <mxCell id="OdEKxOvV1YU56GnAyZDW-25" value="FilmEntity" style="swimlane;fontStyle=0;childLayout=stackLayout;horizontal=1;startSize=30;horizontalStack=0;resizeParent=1;resizeParentMax=0;resizeLast=0;collapsible=1;marginBottom=0;whiteSpace=wrap;html=1;" parent="WIyWlLk6GJQsqaUBKTNV-1" vertex="1">
          <mxGeometry x="110" y="-580" width="140" height="140" as="geometry" />
        </mxCell>
        <mxCell id="OdEKxOvV1YU56GnAyZDW-26" value="film_id&lt;div&gt;film_name&lt;/div&gt;&lt;div&gt;film_description&lt;/div&gt;&lt;div&gt;poster_img&lt;/div&gt;&lt;div&gt;status&lt;/div&gt;&lt;div&gt;release_date&lt;/div&gt;&lt;div&gt;video&lt;/div&gt;" style="text;strokeColor=none;fillColor=none;align=left;verticalAlign=middle;spacingLeft=4;spacingRight=4;overflow=hidden;points=[[0,0.5],[1,0.5]];portConstraint=eastwest;rotatable=0;whiteSpace=wrap;html=1;" parent="OdEKxOvV1YU56GnAyZDW-25" vertex="1">
          <mxGeometry y="30" width="140" height="110" as="geometry" />
        </mxCell>
        <mxCell id="OdEKxOvV1YU56GnAyZDW-29" value="CategoryEntity" style="swimlane;fontStyle=0;childLayout=stackLayout;horizontal=1;startSize=30;horizontalStack=0;resizeParent=1;resizeParentMax=0;resizeLast=0;collapsible=1;marginBottom=0;whiteSpace=wrap;html=1;" parent="WIyWlLk6GJQsqaUBKTNV-1" vertex="1">
          <mxGeometry x="290" y="-560" width="140" height="120" as="geometry" />
        </mxCell>
        <mxCell id="OdEKxOvV1YU56GnAyZDW-30" value="Item 1" style="text;strokeColor=none;fillColor=none;align=left;verticalAlign=middle;spacingLeft=4;spacingRight=4;overflow=hidden;points=[[0,0.5],[1,0.5]];portConstraint=eastwest;rotatable=0;whiteSpace=wrap;html=1;" parent="OdEKxOvV1YU56GnAyZDW-29" vertex="1">
          <mxGeometry y="30" width="140" height="30" as="geometry" />
        </mxCell>
        <mxCell id="OdEKxOvV1YU56GnAyZDW-31" value="Item 2" style="text;strokeColor=none;fillColor=none;align=left;verticalAlign=middle;spacingLeft=4;spacingRight=4;overflow=hidden;points=[[0,0.5],[1,0.5]];portConstraint=eastwest;rotatable=0;whiteSpace=wrap;html=1;" parent="OdEKxOvV1YU56GnAyZDW-29" vertex="1">
          <mxGeometry y="60" width="140" height="30" as="geometry" />
        </mxCell>
        <mxCell id="OdEKxOvV1YU56GnAyZDW-32" value="Item 3" style="text;strokeColor=none;fillColor=none;align=left;verticalAlign=middle;spacingLeft=4;spacingRight=4;overflow=hidden;points=[[0,0.5],[1,0.5]];portConstraint=eastwest;rotatable=0;whiteSpace=wrap;html=1;" parent="OdEKxOvV1YU56GnAyZDW-29" vertex="1">
          <mxGeometry y="90" width="140" height="30" as="geometry" />
        </mxCell>
        <mxCell id="OdEKxOvV1YU56GnAyZDW-33" value="CommentEntity" style="swimlane;fontStyle=0;childLayout=stackLayout;horizontal=1;startSize=30;horizontalStack=0;resizeParent=1;resizeParentMax=0;resizeLast=0;collapsible=1;marginBottom=0;whiteSpace=wrap;html=1;" parent="WIyWlLk6GJQsqaUBKTNV-1" vertex="1">
          <mxGeometry x="490" y="-560" width="140" height="120" as="geometry" />
        </mxCell>
        <mxCell id="OdEKxOvV1YU56GnAyZDW-34" value="Item 1" style="text;strokeColor=none;fillColor=none;align=left;verticalAlign=middle;spacingLeft=4;spacingRight=4;overflow=hidden;points=[[0,0.5],[1,0.5]];portConstraint=eastwest;rotatable=0;whiteSpace=wrap;html=1;" parent="OdEKxOvV1YU56GnAyZDW-33" vertex="1">
          <mxGeometry y="30" width="140" height="30" as="geometry" />
        </mxCell>
        <mxCell id="OdEKxOvV1YU56GnAyZDW-35" value="Item 2" style="text;strokeColor=none;fillColor=none;align=left;verticalAlign=middle;spacingLeft=4;spacingRight=4;overflow=hidden;points=[[0,0.5],[1,0.5]];portConstraint=eastwest;rotatable=0;whiteSpace=wrap;html=1;" parent="OdEKxOvV1YU56GnAyZDW-33" vertex="1">
          <mxGeometry y="60" width="140" height="30" as="geometry" />
        </mxCell>
        <mxCell id="OdEKxOvV1YU56GnAyZDW-36" value="Item 3" style="text;strokeColor=none;fillColor=none;align=left;verticalAlign=middle;spacingLeft=4;spacingRight=4;overflow=hidden;points=[[0,0.5],[1,0.5]];portConstraint=eastwest;rotatable=0;whiteSpace=wrap;html=1;" parent="OdEKxOvV1YU56GnAyZDW-33" vertex="1">
          <mxGeometry y="90" width="140" height="30" as="geometry" />
        </mxCell>
        <mxCell id="OdEKxOvV1YU56GnAyZDW-37" value="StarRatedEntity" style="swimlane;fontStyle=0;childLayout=stackLayout;horizontal=1;startSize=30;horizontalStack=0;resizeParent=1;resizeParentMax=0;resizeLast=0;collapsible=1;marginBottom=0;whiteSpace=wrap;html=1;" parent="WIyWlLk6GJQsqaUBKTNV-1" vertex="1">
          <mxGeometry x="110" y="-380" width="140" height="120" as="geometry" />
        </mxCell>
        <mxCell id="OdEKxOvV1YU56GnAyZDW-38" value="Item 1" style="text;strokeColor=none;fillColor=none;align=left;verticalAlign=middle;spacingLeft=4;spacingRight=4;overflow=hidden;points=[[0,0.5],[1,0.5]];portConstraint=eastwest;rotatable=0;whiteSpace=wrap;html=1;" parent="OdEKxOvV1YU56GnAyZDW-37" vertex="1">
          <mxGeometry y="30" width="140" height="30" as="geometry" />
        </mxCell>
        <mxCell id="OdEKxOvV1YU56GnAyZDW-39" value="Item 2" style="text;strokeColor=none;fillColor=none;align=left;verticalAlign=middle;spacingLeft=4;spacingRight=4;overflow=hidden;points=[[0,0.5],[1,0.5]];portConstraint=eastwest;rotatable=0;whiteSpace=wrap;html=1;" parent="OdEKxOvV1YU56GnAyZDW-37" vertex="1">
          <mxGeometry y="60" width="140" height="30" as="geometry" />
        </mxCell>
        <mxCell id="OdEKxOvV1YU56GnAyZDW-40" value="Item 3" style="text;strokeColor=none;fillColor=none;align=left;verticalAlign=middle;spacingLeft=4;spacingRight=4;overflow=hidden;points=[[0,0.5],[1,0.5]];portConstraint=eastwest;rotatable=0;whiteSpace=wrap;html=1;" parent="OdEKxOvV1YU56GnAyZDW-37" vertex="1">
          <mxGeometry y="90" width="140" height="30" as="geometry" />
        </mxCell>
        <mxCell id="OdEKxOvV1YU56GnAyZDW-41" value="UserEntity" style="swimlane;fontStyle=0;childLayout=stackLayout;horizontal=1;startSize=30;horizontalStack=0;resizeParent=1;resizeParentMax=0;resizeLast=0;collapsible=1;marginBottom=0;whiteSpace=wrap;html=1;" parent="WIyWlLk6GJQsqaUBKTNV-1" vertex="1">
          <mxGeometry x="290" y="-380" width="140" height="120" as="geometry" />
        </mxCell>
        <mxCell id="OdEKxOvV1YU56GnAyZDW-42" value="Item 1" style="text;strokeColor=none;fillColor=none;align=left;verticalAlign=middle;spacingLeft=4;spacingRight=4;overflow=hidden;points=[[0,0.5],[1,0.5]];portConstraint=eastwest;rotatable=0;whiteSpace=wrap;html=1;" parent="OdEKxOvV1YU56GnAyZDW-41" vertex="1">
          <mxGeometry y="30" width="140" height="30" as="geometry" />
        </mxCell>
        <mxCell id="OdEKxOvV1YU56GnAyZDW-43" value="Item 2" style="text;strokeColor=none;fillColor=none;align=left;verticalAlign=middle;spacingLeft=4;spacingRight=4;overflow=hidden;points=[[0,0.5],[1,0.5]];portConstraint=eastwest;rotatable=0;whiteSpace=wrap;html=1;" parent="OdEKxOvV1YU56GnAyZDW-41" vertex="1">
          <mxGeometry y="60" width="140" height="30" as="geometry" />
        </mxCell>
        <mxCell id="OdEKxOvV1YU56GnAyZDW-44" value="Item 3" style="text;strokeColor=none;fillColor=none;align=left;verticalAlign=middle;spacingLeft=4;spacingRight=4;overflow=hidden;points=[[0,0.5],[1,0.5]];portConstraint=eastwest;rotatable=0;whiteSpace=wrap;html=1;" parent="OdEKxOvV1YU56GnAyZDW-41" vertex="1">
          <mxGeometry y="90" width="140" height="30" as="geometry" />
        </mxCell>
        <mxCell id="OdEKxOvV1YU56GnAyZDW-45" value="LoginRequest" style="swimlane;fontStyle=0;childLayout=stackLayout;horizontal=1;startSize=30;horizontalStack=0;resizeParent=1;resizeParentMax=0;resizeLast=0;collapsible=1;marginBottom=0;whiteSpace=wrap;html=1;" parent="WIyWlLk6GJQsqaUBKTNV-1" vertex="1">
          <mxGeometry x="490" y="-380" width="140" height="120" as="geometry" />
        </mxCell>
        <mxCell id="OdEKxOvV1YU56GnAyZDW-46" value="Item 1" style="text;strokeColor=none;fillColor=none;align=left;verticalAlign=middle;spacingLeft=4;spacingRight=4;overflow=hidden;points=[[0,0.5],[1,0.5]];portConstraint=eastwest;rotatable=0;whiteSpace=wrap;html=1;" parent="OdEKxOvV1YU56GnAyZDW-45" vertex="1">
          <mxGeometry y="30" width="140" height="30" as="geometry" />
        </mxCell>
        <mxCell id="OdEKxOvV1YU56GnAyZDW-47" value="Item 2" style="text;strokeColor=none;fillColor=none;align=left;verticalAlign=middle;spacingLeft=4;spacingRight=4;overflow=hidden;points=[[0,0.5],[1,0.5]];portConstraint=eastwest;rotatable=0;whiteSpace=wrap;html=1;" parent="OdEKxOvV1YU56GnAyZDW-45" vertex="1">
          <mxGeometry y="60" width="140" height="30" as="geometry" />
        </mxCell>
        <mxCell id="OdEKxOvV1YU56GnAyZDW-48" value="Item 3" style="text;strokeColor=none;fillColor=none;align=left;verticalAlign=middle;spacingLeft=4;spacingRight=4;overflow=hidden;points=[[0,0.5],[1,0.5]];portConstraint=eastwest;rotatable=0;whiteSpace=wrap;html=1;" parent="OdEKxOvV1YU56GnAyZDW-45" vertex="1">
          <mxGeometry y="90" width="140" height="30" as="geometry" />
        </mxCell>
        <mxCell id="OdEKxOvV1YU56GnAyZDW-50" style="edgeStyle=orthogonalEdgeStyle;rounded=0;orthogonalLoop=1;jettySize=auto;html=1;entryX=0.999;entryY=0.632;entryDx=0;entryDy=0;entryPerimeter=0;" parent="WIyWlLk6GJQsqaUBKTNV-1" source="OdEKxOvV1YU56GnAyZDW-23" target="OdEKxOvV1YU56GnAyZDW-4" edge="1">
          <mxGeometry relative="1" as="geometry" />
        </mxCell>
        <mxCell id="OdEKxOvV1YU56GnAyZDW-56" value="FilmDTO" style="swimlane;fontStyle=0;childLayout=stackLayout;horizontal=1;startSize=30;horizontalStack=0;resizeParent=1;resizeParentMax=0;resizeLast=0;collapsible=1;marginBottom=0;whiteSpace=wrap;html=1;" parent="WIyWlLk6GJQsqaUBKTNV-1" vertex="1">
          <mxGeometry x="930" y="-584" width="140" height="180" as="geometry" />
        </mxCell>
        <mxCell id="OdEKxOvV1YU56GnAyZDW-57" value="filmId&lt;div&gt;filmName&lt;/div&gt;&lt;div&gt;filmDescription&lt;/div&gt;&lt;div&gt;posterImage&lt;/div&gt;&lt;div&gt;status&lt;/div&gt;&lt;div&gt;releaseDate&lt;/div&gt;&lt;div&gt;video&lt;/div&gt;&lt;div&gt;starRatings: list&lt;/div&gt;&lt;div&gt;comments: List&lt;/div&gt;&lt;div&gt;categories: List&lt;/div&gt;" style="text;strokeColor=none;fillColor=none;align=left;verticalAlign=middle;spacingLeft=4;spacingRight=4;overflow=hidden;points=[[0,0.5],[1,0.5]];portConstraint=eastwest;rotatable=0;whiteSpace=wrap;html=1;" parent="OdEKxOvV1YU56GnAyZDW-56" vertex="1">
          <mxGeometry y="30" width="140" height="150" as="geometry" />
        </mxCell>
        <mxCell id="VBIy8O_bgQpXXYGPiBef-0" value="" style="rounded=0;whiteSpace=wrap;html=1;" vertex="1" parent="WIyWlLk6GJQsqaUBKTNV-1">
          <mxGeometry x="690" y="-910" width="390" height="210" as="geometry" />
        </mxCell>
        <mxCell id="VBIy8O_bgQpXXYGPiBef-1" value="&lt;b&gt;&lt;font style=&quot;font-size: 24px;&quot;&gt;Converter&lt;/font&gt;&lt;/b&gt;" style="text;html=1;align=center;verticalAlign=middle;whiteSpace=wrap;rounded=0;" vertex="1" parent="WIyWlLk6GJQsqaUBKTNV-1">
          <mxGeometry x="730" y="-900" width="60" height="30" as="geometry" />
        </mxCell>
        <mxCell id="VBIy8O_bgQpXXYGPiBef-2" style="edgeStyle=orthogonalEdgeStyle;rounded=0;orthogonalLoop=1;jettySize=auto;html=1;entryX=0.526;entryY=0.014;entryDx=0;entryDy=0;entryPerimeter=0;" edge="1" parent="WIyWlLk6GJQsqaUBKTNV-1" source="VBIy8O_bgQpXXYGPiBef-0" target="OdEKxOvV1YU56GnAyZDW-20">
          <mxGeometry relative="1" as="geometry">
            <Array as="points">
              <mxPoint x="460" y="-800" />
            </Array>
          </mxGeometry>
        </mxCell>
        <mxCell id="VBIy8O_bgQpXXYGPiBef-3" style="edgeStyle=orthogonalEdgeStyle;rounded=0;orthogonalLoop=1;jettySize=auto;html=1;exitX=1;exitY=0.5;exitDx=0;exitDy=0;entryX=0.562;entryY=0.011;entryDx=0;entryDy=0;entryPerimeter=0;" edge="1" parent="WIyWlLk6GJQsqaUBKTNV-1" source="VBIy8O_bgQpXXYGPiBef-0" target="OdEKxOvV1YU56GnAyZDW-23">
          <mxGeometry relative="1" as="geometry" />
        </mxCell>
        <mxCell id="VBIy8O_bgQpXXYGPiBef-4" value="FilmService" style="swimlane;fontStyle=0;childLayout=stackLayout;horizontal=1;startSize=30;horizontalStack=0;resizeParent=1;resizeParentMax=0;resizeLast=0;collapsible=1;marginBottom=0;whiteSpace=wrap;html=1;" vertex="1" parent="WIyWlLk6GJQsqaUBKTNV-1">
          <mxGeometry x="90" y="350" width="200" height="210" as="geometry" />
        </mxCell>
        <mxCell id="VBIy8O_bgQpXXYGPiBef-5" value="getFilmsWithRatings: List&amp;lt;Object&amp;gt;" style="text;strokeColor=none;fillColor=none;align=left;verticalAlign=middle;spacingLeft=4;spacingRight=4;overflow=hidden;points=[[0,0.5],[1,0.5]];portConstraint=eastwest;rotatable=0;whiteSpace=wrap;html=1;" vertex="1" parent="VBIy8O_bgQpXXYGPiBef-4">
          <mxGeometry y="30" width="200" height="30" as="geometry" />
        </mxCell>
        <mxCell id="VBIy8O_bgQpXXYGPiBef-6" value="+ getFilmsByCategory: List&amp;lt;DTO&amp;gt;" style="text;strokeColor=none;fillColor=none;align=left;verticalAlign=middle;spacingLeft=4;spacingRight=4;overflow=hidden;points=[[0,0.5],[1,0.5]];portConstraint=eastwest;rotatable=0;whiteSpace=wrap;html=1;" vertex="1" parent="VBIy8O_bgQpXXYGPiBef-4">
          <mxGeometry y="60" width="200" height="30" as="geometry" />
        </mxCell>
        <mxCell id="VBIy8O_bgQpXXYGPiBef-7" value="+ getFilmById: Object" style="text;strokeColor=none;fillColor=none;align=left;verticalAlign=middle;spacingLeft=4;spacingRight=4;overflow=hidden;points=[[0,0.5],[1,0.5]];portConstraint=eastwest;rotatable=0;whiteSpace=wrap;html=1;" vertex="1" parent="VBIy8O_bgQpXXYGPiBef-4">
          <mxGeometry y="90" width="200" height="30" as="geometry" />
        </mxCell>
        <mxCell id="VBIy8O_bgQpXXYGPiBef-8" value="+ getFilmsByCategory: List&amp;lt;DTO&amp;gt;" style="text;strokeColor=none;fillColor=none;align=left;verticalAlign=middle;spacingLeft=4;spacingRight=4;overflow=hidden;points=[[0,0.5],[1,0.5]];portConstraint=eastwest;rotatable=0;whiteSpace=wrap;html=1;" vertex="1" parent="VBIy8O_bgQpXXYGPiBef-4">
          <mxGeometry y="120" width="200" height="30" as="geometry" />
        </mxCell>
        <mxCell id="VBIy8O_bgQpXXYGPiBef-9" value="+ rateFilm: StarRatedEntity" style="text;strokeColor=none;fillColor=none;align=left;verticalAlign=middle;spacingLeft=4;spacingRight=4;overflow=hidden;points=[[0,0.5],[1,0.5]];portConstraint=eastwest;rotatable=0;whiteSpace=wrap;html=1;" vertex="1" parent="VBIy8O_bgQpXXYGPiBef-4">
          <mxGeometry y="150" width="200" height="30" as="geometry" />
        </mxCell>
        <mxCell id="VBIy8O_bgQpXXYGPiBef-10" value="+getRatingByUser: StarRated" style="text;strokeColor=none;fillColor=none;align=left;verticalAlign=middle;spacingLeft=4;spacingRight=4;overflow=hidden;points=[[0,0.5],[1,0.5]];portConstraint=eastwest;rotatable=0;whiteSpace=wrap;html=1;" vertex="1" parent="VBIy8O_bgQpXXYGPiBef-4">
          <mxGeometry y="180" width="200" height="30" as="geometry" />
        </mxCell>
      </root>
    </mxGraphModel>
  </diagram>
</mxfile>
